<svg id="Objects" xmlns="http://www.w3.org/2000/svg" viewBox="0 0 1106.67 1082.67"><defs><style>.cls-1{fill:#231f20;}</style></defs><path class="cls-1" d="M773.93,425.25c-3.43,9.68-10,17.32-17,24.93,3.41,1.66,6.53,3.32,9.78,4.72a27.31,27.31,0,0,1,7.78,5.4c3.44,3.23,4,6.15,1.76,10.21-1.67,3-3.71,5.84-5.63,8.73-.69,1-1.52,2-2.34,3a73.53,73.53,0,0,0,10,12,55.57,55.57,0,0,0,6,5.36,45.57,45.57,0,0,0,5.76,3.14,11.29,11.29,0,0,1,1.89,1.08,2.17,2.17,0,0,1-.74,4,10.94,10.94,0,0,1-3.82.43c-4.33-.24-8.65-.61-13-.93-.82-.07-1.64-.18-2.89-.31a20.34,20.34,0,0,0,.58,3.94c1.16,3.32,2.51,6.58,3.8,9.86.12.33.33.63.46,1,1.27,3.19-.85,5.84-4.39,5.13a58.72,58.72,0,0,1-10.32-2.9A89.86,89.86,0,0,1,749,517.9c-7.47-4.46-12.67-10.92-16.43-18.42a63.12,63.12,0,0,1-2.92-7.08c-1.35-3.84-.9-7.42,2.07-10.54a19.36,19.36,0,0,0,1.35-1.81c-2.33-1.35-4.56-2.56-6.7-3.91-1.46-.91-2.8-2-4.18-3-2.7-2-3.25-5-3.86-7.89a2.7,2.7,0,0,1,.56-1.69c2.2-3.75,4.43-7.47,6.68-11.19.64-1.06,1.36-2.07,2.21-3.37a23.18,23.18,0,0,0-2.53-2c-5.72-3.23-11.47-6.39-17.2-9.59a166.71,166.71,0,0,0-24.67-11.29c-.76-.28-1.54-.52-2.67-.9-5.37,23.37-10,46.7-15,70,4.55,2.4,9,5,13.59,7.12a132.16,132.16,0,0,1,27.64,17.88,118.55,118.55,0,0,0,16.56,11.89c1.5.85,2.92,1.82,4.35,2.79a5.54,5.54,0,0,1,1.37,1.27c.23.31.39.94.21,1.17a1.75,1.75,0,0,1-1.3.7,8.13,8.13,0,0,1-2.53-.94,128.71,128.71,0,0,1-18.93-13.26A154.87,154.87,0,0,0,677.05,504c-4.2-2.12-7.95-5.05-12.2-7.79-.37.36-1,.93-1.57,1.56a17.7,17.7,0,0,1-7.78,4.76c-5.09,1.79-10.23,1.28-15.37,1.08-8.22-.34-16.44-.76-24.64-1.39q-17.15-1.31-34.24-3c-7.9-.77-15.79-1.71-23.65-2.76-6.31-.85-12.56-2-18.84-3a6.79,6.79,0,0,0-2.46,0c-9.71,2.15-19.4,4.36-29.11,6.52-7.45,1.65-14.94,3.19-22.38,4.91a33.62,33.62,0,0,1-14-.21,23.44,23.44,0,0,0-2.69-.57c-6.15-.39-10.25-3.81-13.91-8.08-2.17-2.54-3.16-5.51-4.25-8.47-1.49-4-3.05-8.07-4.29-12.18-.94-3.1-1.26-6.36-2.14-9.48-1.88-6.64-3-13.42-4.55-20.13-1.18-5.12-2-10.33-3-15.49-.2-1-.46-2-.69-3-7.1,1.3-38.05,17.14-42.68,21.84.81,1.21,1.67,2.44,2.46,3.71,1.9,3.1,3.75,6.23,5.66,9.32,2.21,3.58.83,6.78-1.4,9.66a19.59,19.59,0,0,1-4.77,3.95c-2.26,1.5-4.69,2.77-7.38,4.33.73.9,1.36,1.7,2,2.49a9,9,0,0,1,1.84,8.68,48.83,48.83,0,0,1-13.15,21.62c-5.8,5.53-13,8.94-20.54,11.63-2.75,1-5.65,1.6-8.5,2.33a4.18,4.18,0,0,1-4.52-1.2c-1-1.23-.75-2.78-.15-4.27q2.24-5.5,4.27-11.09a19.15,19.15,0,0,0,.52-3.22c-1.23.1-2.18.2-3.14.27-4.32.31-8.64.67-13,.91a10.6,10.6,0,0,1-3.55-.4,2.23,2.23,0,0,1-.71-4.11,19.52,19.52,0,0,1,3.12-1.69,30.65,30.65,0,0,0,9.39-6.77,123.61,123.61,0,0,0,11-12.88c-.63-.83-1.36-1.7-2-2.64-2-3-4.11-6-6-9.13s-2.15-7.06,1.82-10.43a31.42,31.42,0,0,1,7.82-5.35c3.11-1.33,6.11-2.89,9.15-4.36.06,0,.09-.15.23-.4-.37-.46-.79-1-1.23-1.53-2.89-3.52-5.87-7-8.66-10.59a30.69,30.69,0,0,1-5.42-10.55c-.05-.17,0-.4-.15-.5-2-1.86-.62-3.17.69-4.66a81,81,0,0,1,17.15-14.41c7.58-4.86,14.91-10.07,22.6-14.76,9.09-5.54,18.43-10.71,27.69-16,1.65-.95,3.42-1.71,5.35-2.66-.15-1-.25-1.88-.44-2.8-1-4.7-2.13-9.38-3-14.11-1.95-11-3.71-22.12-5.65-33.17-.57-3.26-1.62-6.45-2.19-9.72-1-5.5-2.52-10.91-2.21-16.61.34-6.27,3.61-11,8.72-14.18,3.68-2.31,8.16-3.65,12.47-4.82,8-2.17,16.12-3.84,24.16-5.82,6.52-1.61,12.93-3.69,19.51-5,13-2.58,26.11-4.82,39.19-7.09,6.35-1.11,12.73-2.22,19.14-2.91A160.94,160.94,0,0,1,548,257.3c4.68,0,8.59,1.84,11,5.94a30,30,0,0,0,2.44,3.09c7.06-3.68,14.53-2,21.78-1.29,10.2,1,20.38,2.18,30.6,3,6.34.51,12.64,1.6,18.93,2.61,13.47,2.18,27,4.28,40.38,6.82,6.68,1.26,13.18,3.35,19.74,5.17a13.88,13.88,0,0,1,7,4.49,9.64,9.64,0,0,1,1.81,2.9,37.34,37.34,0,0,1,2.12,13.4c-.46,12.15-3,24-5.54,35.81-1.35,6.17-2.12,12.44-3.22,18.66-.79,4.48-1.68,8.94-2.55,13.54a18.13,18.13,0,0,0,1.66.9,143.16,143.16,0,0,1,24.6,13.12,16.19,16.19,0,0,0,1.63,1c8.25,4,15.74,9.18,23.36,14.13,6.47,4.22,13,8.41,19.12,13,3.65,2.76,6.63,6.32,9.85,9.58A8.32,8.32,0,0,1,773.93,425.25ZM541.73,260.77c-3.25.29-7.32.5-11.34,1-6.13.82-12.24,1.78-18.33,2.82-12.91,2.2-25.83,4.33-38.68,6.8-6.51,1.25-12.84,3.25-19.29,4.77-8.42,2-16.87,3.87-25.33,5.73a22.35,22.35,0,0,0-11.92,7.25,6.47,6.47,0,0,0-1.41,2.8,11.74,11.74,0,0,0,.19,7.22c2.87,7.35,4,15.1,5.15,22.79,1.36,9.37,2.69,18.74,5,27.95,2.87,11.58,6,23.1,8.95,34.67,1.71,6.81,3.22,13.67,4.72,20.52s3.28,13.72,4.92,20.57q5.91,24.57,12.13,49.07a98.76,98.76,0,0,0,6.6,18.92,8.54,8.54,0,0,0,5.65,4.51c.34.1.82,0,1.06.19,2.55,2.1,5.63,1.76,8.45,1.19,7.23-1.44,14.39-3.17,21.55-4.87,7.88-1.88,15.67-4.12,23.6-5.75,10.38-2.13,20.85-3.82,31.29-5.67,8.94-1.59,17.42-4.6,25.87-7.64a42.79,42.79,0,0,0,8.5-4.33,9.05,9.05,0,0,0,4.21-7.06,43.94,43.94,0,0,0-.63-12.26c-1.69-8.69-2.78-17.48-4.53-26.16-1-4.77-.83-9.77-3.06-14.3a4.91,4.91,0,0,1-.24-1.29c-.68-4-1.12-8-2.09-11.9a113.58,113.58,0,0,1-3-21,147.56,147.56,0,0,0-1.37-14.86c-1.71-10.82-3.65-21.6-5.63-32.38-1.51-8.19-3.23-16.34-4.86-24.51-.78-3.93-1.58-7.86-2.33-11.79-.64-3.36-1-6.77-1.87-10.07-1.76-6.79-3.7-13.56-8.31-19.24a10.25,10.25,0,0,0-3.06-2.52C549.24,260.32,545.87,260.59,541.73,260.77Zm76.43,63.28c.88,3.82,1.67,7.59,2.63,11.33a29,29,0,0,0,4.46,9.85c3.38,4.69,6.84,9.34,10.16,14.08,4,5.75,8.06,11.52,11.93,17.39a22.63,22.63,0,0,1,2.57,20.66c-2.83,8.27-9.17,13.13-17.69,15.65a26.25,26.25,0,0,1-6.77,1.25,28.22,28.22,0,0,1-11.38-1.88,13.11,13.11,0,0,0-2.24-.45c.69,5.37,1.35,10.39,2,15.42A18.72,18.72,0,0,1,614,431a3.68,3.68,0,0,1-3.69,3.61,86.61,86.61,0,0,1-9.11-.36c-2.43-.2-4.83-.68-7.53-1.08.28,1.85.46,3.31.72,4.77,1.3,7.51,2.66,15,3.91,22.52,1.06,6.35-1,11.53-6.72,15.23-1.21.78-2.31,1.72-3.55,2.64.53,1,1.84,1.76.44,3.23-2.24-.12-4.72-.21-7.19-.4a12.12,12.12,0,0,0-7.28,2.16c1.6.14,2.95.21,4.29.39.89.11,1.73.62,1.53,1.52-.11.5-.92.92-1.5,1.27-.37.22-1.11,0-1.46.06a8.8,8.8,0,0,1-2.8.15c-4.5-.76-8.47-1.86-12.46-.44-1.72.61-3.53,1-5.29,1.53-.58.18-1.12.47-2.11.9.92.18,1.35.3,1.78.34,7.08.67,14.19,1.14,21.23,2.05,12.08,1.55,24.12,3.39,36.18,5.1,5.11.72,10.21,1.61,15.35,2,4.6.37,9.25.15,13.87.26a40.54,40.54,0,0,0,11.52-1.25,10.9,10.9,0,0,0,6.54-5,20.88,20.88,0,0,0,2.35-5.58c1-3.9,1.74-7.86,2.59-11.8,2.56-11.73,5.08-23.48,7.72-35.2,1.52-6.72,2.59-13.51,4.12-20.22,4.36-19.07,9.17-38.05,12.81-57.26,1.37-7.24,2.39-14.53,3.79-21.76,1.79-9.3,4.61-18.42,5.32-27.89.49-6.59,1.68-13.15-.54-19.78a10.34,10.34,0,0,0-5-6.21,14.79,14.79,0,0,0-3.29-1.35c-5.86-1.57-11.68-3.41-17.63-4.54-12.95-2.47-26-4.64-39-6.81-8.83-1.47-17.66-2.93-26.62-3.54-5.89-.4-11.76-1.18-17.64-1.79s-11.75-1.31-17.64-1.81a14.78,14.78,0,0,0-9.21,1.73c1.34,3.85,2.66,7.62,4.14,11.86a11.6,11.6,0,0,1,1-1.73c.7-.75,1.36-1.82,2.25-2.08,2.6-.77,4.32.23,5.4,2.7,2.45,5.63,2.6,11.6,3,17.54,0,.26,0,.61-.11.76a3.49,3.49,0,0,1-1.45,1.06,1.56,1.56,0,0,1-1.3-.68,10.42,10.42,0,0,1-.86-3c-.18-1.45-.14-2.92-.21-4.59h-5.21c1.08,6.81,1.82,13.52,3.25,20.11q4.89,22.63,8.7,45.45c.25,1.52.62,3,1,4.92l3.73-2.83c3.1-2.35,6.38-4.51,9.24-7.09a98.38,98.38,0,0,0,7.71-8.24,79,79,0,0,0,11.62-17.51C615.7,323.12,615.83,323.06,618.16,324.05Zm74.07,50.08c-3.73,16.34-7.4,32.37-11.08,48.47l1.84.67c4.74,1.71,9.64,3.12,14.19,5.2,7.39,3.39,14.54,7.24,21.82,10.86a98.62,98.62,0,0,1,16.13,10.59c2.81,2.16,6.17,3.92,7.85,7.38a9.92,9.92,0,0,0,1.27-.64,42.59,42.59,0,0,0,3.47-2.62,133.29,133.29,0,0,0,17.67-19.15,62.63,62.63,0,0,0,3.85-6.06c.8-1.35,1.17-2.81,0-4.18-1-1.16-2-2.31-3.06-3.39-6.39-6.42-14.19-11.17-21.71-16.23-3.91-2.64-7.93-5.13-11.94-7.64-2.77-1.74-5.59-3.41-8.41-5.08s-5.8-3.42-8.72-5.1q-10-5.81-20.12-11.57C694.36,375.1,693.36,374.68,692.23,374.13ZM377,457.36a27.68,27.68,0,0,1,2.95-3.3c3.09-2.49,6.3-4.85,9.46-7.26,6.31-4.81,13.42-8.37,20.55-11.89,7.44-3.67,14.67-7.8,22.84-10a9.46,9.46,0,0,0,1.77-.95c-3.06-15.78-8.5-30.88-12.8-46.44a19,19,0,0,0-1.92.9c-11.57,6.89-23.22,13.67-34.66,20.76q-11.94,7.4-23.35,15.55c-3.72,2.66-6.76,6.16-10.17,9.23-1.73,1.56-1.63,3.23-.57,5a71.11,71.11,0,0,0,4,6.26,130.78,130.78,0,0,0,17.13,18.57C373.75,455.06,375.41,456.16,377,457.36Zm378.22-5.74c-.93,1-2,2.12-3,3.22-6.61,7-15.37,9.67-24.73,11.17-1.77.28-3.55.53-5.32.8a4.55,4.55,0,0,0,2,3.86,50.37,50.37,0,0,0,5.18,3.48q8,4.46,16.11,8.73a24.26,24.26,0,0,1,8.44,6.84,28,28,0,0,0,2.74-1.78c2.55-2.15,5.19-4.22,7.52-6.57a52.08,52.08,0,0,0,9.28-12.69c1.14-2.18,1.05-4.26-1-6a50.7,50.7,0,0,0-5.72-4.52C763.18,456,759.47,454,755.22,451.62ZM366.43,489.9a18.51,18.51,0,0,1,6.87-6.2c5.47-3.09,11.1-5.92,16.59-9a65.56,65.56,0,0,0,6.36-4.16,4.27,4.27,0,0,0,1.88-3.81,75.38,75.38,0,0,1-18.49-4.13c-6.08-2.26-10.52-6.67-14.81-10.92-3.55,2.06-6.91,3.87-10.12,5.91a50,50,0,0,0-6.51,4.81c-2.37,2.1-2.57,3.89-1.12,6.61a57.53,57.53,0,0,0,13.08,16.15C362,486.84,364.18,488.22,366.43,489.9Zm406.06,33.46c-.36-1.32-.51-2.09-.79-2.81-.75-1.88-1.72-3.7-2.31-5.63a40.44,40.44,0,0,1-1.73-7.39c-.35-3.32,1.13-4.49,4.6-4.12.55.06,1.09.16,1.64.24,2.83.38,5.66.8,8.5,1.13a20.22,20.22,0,0,0,2.89-.12c-8.54-5.4-13.85-12.67-18.91-20.22-2.56,2.15-5,4.24-7.51,6.27-2.76,2.23-5.79,3.72-9.62,3.06s-7.63-1.22-11.46-1.81a5,5,0,0,0-4.26.76c3.21,8.37,8,15.69,15.62,20.94A60.25,60.25,0,0,0,772.49,523.36ZM347.9,523c14.94-.12,36.8-17.53,38.61-30.81a25.89,25.89,0,0,0-4-.15,94.25,94.25,0,0,0-10.1,1.54c-4.57,1.07-8.14-.4-11.41-3.18-2.31-2-4.67-3.9-7-5.85-1.78,2.46-3.45,5-5.32,7.31a73.73,73.73,0,0,1-6,6.84c-2.13,2.09-4.57,3.89-7.08,6a11.62,11.62,0,0,0,2,.2c1.74-.16,3.48-.38,5.22-.61,2.2-.29,4.38-.73,6.58-.87s3.12.78,3.23,2.77a13.41,13.41,0,0,1-.34,4.43c-.86,2.94-2,5.8-3.06,8.69C348.73,520.44,348.33,521.66,347.9,523ZM595.39,364.06a9.57,9.57,0,0,0,2.16-1c3.05-2.54,6.05-5.13,9-7.74a23.06,23.06,0,0,0,2.68-2.64c.34-.4.62-1.3.39-1.59a2.92,2.92,0,0,0-1.83-.83c-.43,0-1,.39-1.39.72-2.47,2.08-4.89,4.22-7.38,6.28-1.39,1.14-2.91,2.13-4.31,3.26a1.77,1.77,0,0,0-.68,2.33A5.66,5.66,0,0,0,595.39,364.06Zm14.46-16.75a1.8,1.8,0,0,0,1.9,2.07,2.84,2.84,0,0,0,2.86-2.9,3.16,3.16,0,0,0-2.39-2.51C611,343.88,609.84,345.51,609.85,347.31ZM593.14,410c-3.42,1.83-3.71,2.85-1.82,5.79C591.92,413.93,592.46,412.21,593.14,410ZM572,282.52c-.44,1.23-.89,2.45-1.38,3.81h3.21l-1.19-3.8Z"/><path class="cls-1" d="M600.26,557.12h3.17a1.86,1.86,0,0,1,2.06,1.4c.23,1.08-.76,1.47-1.57,1.9a.63.63,0,0,1-.25.09c-4.06,0-8.13,0-12.18-.2-.56,0-1.28-1.16-1.49-1.89-.11-.36.74-1,1.25-1.46a2.76,2.76,0,0,1,1-.32,2.44,2.44,0,0,0,2-2.72c.1-7.88.27-15.75.4-23.63,0-2.27,0-4.53,0-6.79l-.54-.2a15.92,15.92,0,0,0-1.14,1.46c-2.42,4-4.8,8.07-7.23,12.1a2,2,0,0,1-3.37.31,38.09,38.09,0,0,1-3.64-4.6c-1.91-2.87-3.66-5.83-5.74-8.71-.12,5.81.27,11.57.47,17.33s.29,11.5.43,17.49c1.28,0,2.17,0,3.06,0,1.06,0,1.88.34,2,1.38s-.89,1.48-1.78,1.62a35.12,35.12,0,0,1-4.69.45c-4,.09-7.94.09-11.92.12-1.63,0-3.27,0-4.94,0-.44-2.77,1.23-3.63,3.51-4.07-.16-13.32-1.74-26.42-3-39.68a7.81,7.81,0,0,1-2.09-.54c-.55-.33-1.21-1-1.21-1.51s.72-1.23,1.28-1.38a16.45,16.45,0,0,1,4.33-.74c5.27,0,10.53.09,15.79.16a3.58,3.58,0,0,1,1.63.16,2.84,2.84,0,0,1,1.31,1.48c.09.35-.51,1-1,1.33a18.34,18.34,0,0,1-2.57,1.16L584,533.88c2.8-5.17,5.42-10,8.07-14.92-1.53-1.05-3.87,0-5.08-2.16a8.16,8.16,0,0,1,1.9-1.22,12.88,12.88,0,0,1,3-.48q4.54-.36,9.11-.65c.86-.05,1.72.14,1.91,1.13s-.36,1.67-1.38,2c-.44.12-.9.18-1.35.28l-1.49.36C598.9,531.13,599,544,600.26,557.12Zm-29.88-18.79a126.66,126.66,0,0,0-1.14-20c-3.18,0-6.18-.51-9.52.11.32,6.73,1.22,13.26,2,19.93Z"/><path class="cls-1" d="M627,534.5l4.82-.49a12.83,12.83,0,0,1,.23-2.79,2.66,2.66,0,0,1,1.36-1.68c1.08-.3,1.38.81,1.48,1.51.42,2.94.74,5.9,1,8.87a1.46,1.46,0,0,1-1.57,1.75c-.52,0-1.14-.75-1.42-1.29a11.39,11.39,0,0,1-.66-2.47l-5.45-.4c-.64,2.07.6,15.31,1.65,17.82h8.71c0-1.45,0-2.66,0-3.87a4.37,4.37,0,0,1,.33-2,2.58,2.58,0,0,1,1.65-1.07c.36,0,1,.68,1.2,1.16a8.49,8.49,0,0,1,.32,2.32c.16,2.18.27,4.36.45,6.54a1.89,1.89,0,0,1-1.67,2.28c-2.51-2.11-2.51-2-6.24-1.86-5.24.24-10.5.34-15.75.48a7,7,0,0,1-1.44-.12c-3.83-.74-4.25-1.32-4.42-5.09-.13-2.8-.51-5.58-.68-8.37-.41-6.82-.77-13.64-1.14-20.46-.14-2.45-.34-4.89-.31-7.34,0-2.92.57-3.62,3.6-3.93,3.39-.35,6.83-.32,10.24-.48,3.22-.15,6.45-.35,9.62-.53.17-.17.34-.27.41-.42.39-.83.34-2.12,1.72-2s1.49,1.43,1.61,2.38c.23,1.91.24,3.84.32,5.77a1.71,1.71,0,0,1-1.78,2c-1.75-1.11-1.17-3.14-1.93-5l-8.25.67C625.51,522.34,626.45,528.26,627,534.5Zm-4.91.75c-.44-6.35-.88-12.56-1.33-18.92h-6.15c-1.05,1.41-.41,3.2-.4,4.85a41.6,41.6,0,0,0,.7,7.72C616.18,535.54,613.94,537.4,622.06,535.25Z"/><path class="cls-1" d="M535.07,516.41c1.95,7.37,3.9,14.46,5.68,21.58s2,14.36,4,21.39a6.2,6.2,0,0,1,2.32.06,2.89,2.89,0,0,1,1.42,1.66c.21.84-.63,1.21-1.43,1.2-2.49,0-5,0-7.45-.18-1.67-.13-1.76-.4-2.11-2.3l3.16-.61c-.78-5.73-1.55-11.48-2.38-17.56l-8.64-1.18c-1.15,2-3.8,15-3.84,18.37a5.48,5.48,0,0,1,1.43.37c.66.37,1.61.81,1.74,1.36.23,1-.83,1.45-1.75,1.65a50.48,50.48,0,0,1-5.17.94c-2.93.29-5.89.43-8.84.63a2.2,2.2,0,0,1-1.09,0c-.6-.33-1.42-.72-1.57-1.23s.57-1.1,1-1.57a5.13,5.13,0,0,1,1.31-.66c2.11-14.66,3.19-29.46,6.48-44.18a14.26,14.26,0,0,1-3-.3,2.32,2.32,0,0,1-1.42-1.31c-.2-.91.74-1,1.49-1.11a88.25,88.25,0,0,1,18.24-.06,3,3,0,0,1,1.34.24,2.68,2.68,0,0,1,1.13,1.29c.07.28-.57.79-1,1.09A4.89,4.89,0,0,1,535.07,516.41Zm-9.94,20.33c.14-.39.28-.7.37-1,1.4-5.42,2.83-10.83,4.17-16.27a17.18,17.18,0,0,0,.2-3.11h-6.65c-1,7.1-1.91,13.95-2.87,21Zm12.34.59c-1.11-6.43-2.73-12.47-4.34-18.5l-.75,0c-.93,6.06-1.86,12.13-2.84,18.46Z"/><path class="cls-1" d="M500.33,518.1c-3-2.52-5-3.26-8-2.87-.22,10.18-.77,20.4-.16,30.62.1,1.57,0,3.15,0,4.72.08,2.42.23,4.84.35,7.25a4,4,0,0,0,4.52-1.64,31.42,31.42,0,0,0,5.48-10.54c.53-1.56.95-3.15,1.44-4.79-1.77-1-3.39-.54-4.9-.38-.21.25-.38.37-.42.52-.22.83-.18,1.87-1.49,1.86s-1.68-1.06-1.75-2a23.15,23.15,0,0,1,.11-4.71c.09-.65.82-1.22,1.63-2.34.77,1.57,1.27,2.6,1.8,3.67,1.72.17,3.57.23,5.38.54,2.05.35,2.81,1.31,2.32,3.12-1.54,5.6-3.23,11.17-7,15.91-2.94,3.74-7,4.69-11.49,2.65a13.72,13.72,0,0,1-6.59-5.8c-.94-1.71-1.84-3.44-2.89-5.09-2.18-3.45-2.22-7.37-2.63-11.14-.76-7,1.72-13.31,5.56-19.14,3.07-4.65,7.47-7.22,13.45-6.74,3.33.26,6.35,1.14,8,4.29a3,3,0,0,0,2.92,2,1.86,1.86,0,0,1,2,2c0,1.18-.91,1.62-2,1.72-1.65.14-3.3.41-5,.39a3.64,3.64,0,0,1-2.15-.93C497.73,520.24,498.11,519.43,500.33,518.1ZM488.65,516a17.69,17.69,0,0,0-2.82,2.52c-3.56,5.19-6.33,10.65-6,17.07,0,.66.14,1.31.23,2l8.76-1.07C488.39,529.91,489.63,523.24,488.65,516Z"/><path class="cls-1" d="M808.34,323.53c-.74.47-1.44,1-2.22,1.41-4.69,2.44-9.29,5.08-14.13,7.24q-13.66,6.07-27.55,11.66c-12.68,5.07-25.47,9.89-38.21,14.82-2.21.86-4.43,1.69-6.65,2.52a10,10,0,0,1-1.84.57c-.8.14-1.73.33-2.14-.65s.24-1.72,1.12-2.08c2.63-1.07,5.29-2,7.94-3,13.12-5,26.26-9.89,39.34-15,7.09-2.76,14-5.79,21.07-8.7q10.14-4.2,20.28-8.39c.89-.37,1.84-.58,2.75-.87Z"/><path class="cls-1" d="M312.26,323a126.17,126.17,0,0,1,15.51,6.12c1.63.77,3.36,1.38,5,2.11,3,1.32,6,2.76,9,4q15.82,6.31,31.69,12.5c8.19,3.19,16.43,6.28,24.65,9.38,1.63.62,3.31,1.09,4.93,1.71a3.5,3.5,0,0,1,1.5,1.07,1.16,1.16,0,0,1-1,1.86,9.51,9.51,0,0,1-2.92-.65c-14.95-5.74-29.87-11.57-44.85-17.25-7.64-2.89-15-6.33-22.43-9.65-6.34-2.83-12.47-6-18.69-9.05-1-.47-1.85-1.06-2.77-1.59Z"/><path class="cls-1" d="M311.41,353.08c3.09-1,6-.34,8.84.28,7.91,1.72,15.77,3.64,23.65,5.49,9,2.11,18.06,4.33,27.13,6.34,7.63,1.69,15.32,3.14,23,4.72a6.16,6.16,0,0,1,2.32.76,2.32,2.32,0,0,1,.84,1.72c-.05.89-1,1-1.71.87-1.1-.14-2.2-.3-3.28-.53-5.13-1.09-10.27-2.17-15.38-3.33-9.77-2.21-19.56-4.36-29.28-6.76-7.77-1.92-15.43-4.21-23.16-6.25-3.81-1-7.69-1.84-11.53-2.77A12,12,0,0,1,311.41,353.08Z"/><path class="cls-1" d="M809,353.18c-2.09.59-4.15,1.24-6.25,1.78q-12,3-24.1,6c-9.65,2.39-19.27,4.87-28.95,7.14-7.15,1.68-14.38,3.1-21.58,4.62a15.28,15.28,0,0,1-3.27.48c-.59,0-1.56-.47-1.66-.88a2.16,2.16,0,0,1,.86-1.68,4.91,4.91,0,0,1,2.05-.71c6.42-1.26,12.85-2.42,19.25-3.75,5-1,9.89-2.2,14.8-3.4,9.12-2.23,18.19-4.61,27.33-6.77,5.46-1.28,11-2.31,16.51-3.34a38,38,0,0,1,4.91-.27C808.93,352.67,809,352.92,809,353.18Z"/><path class="cls-1" d="M786.9,305c-2.6,1.94-5.18,3.9-7.81,5.8-3.91,2.8-7.81,5.61-11.79,8.31-4.74,3.21-9.53,6.34-14.35,9.44q-11.58,7.44-23.24,14.79c-2.76,1.74-5.56,3.41-8.38,5a7.31,7.31,0,0,1-2.54,1c-1.25.18-2-.85-1.27-1.84a6.27,6.27,0,0,1,1.82-1.56c2.84-1.78,5.74-3.49,8.59-5.27q11.1-6.93,22.2-13.91,15.24-9.6,30.47-19.18c1.9-1.19,3.93-2.18,5.9-3.25Z"/><path class="cls-1" d="M333.82,304.44c1.36.69,2.78,1.28,4.06,2.07,5.56,3.45,11.07,7,16.61,10.45q8,5,15.95,10,11,6.88,21.94,13.76c2.92,1.83,5.89,3.58,8.82,5.4,1,.61,2.21,1.21,1.68,2.63-.34.93-1.71,1-3.43-.05-7.75-4.72-15.5-9.45-23.18-14.28-6.08-3.82-12.15-7.65-18-11.71-7.92-5.44-15.67-11.11-23.5-16.68l-1.33-.91Z"/><path class="cls-1" d="M448.25,498.83l1.1,1.49a29.36,29.36,0,0,1-2.42,1.68c-3,1.69-6.06,3.36-9.12,5a135.46,135.46,0,0,0-22.54,15.65,159.25,159.25,0,0,1-18.92,13.69,17,17,0,0,1-3.42,1.69c-.55.18-1.31-.25-2-.4.18-.61.16-1.47.58-1.79a48.17,48.17,0,0,1,5.39-3.66A116.77,116.77,0,0,0,413,520.62c8.41-6.9,17.27-13.17,27.31-17.82C443,501.57,445.54,500.19,448.25,498.83Z"/><path class="cls-1" d="M345.79,292.26a29.6,29.6,0,0,1,3.1,1.56c4.91,3.27,9.85,6.51,14.64,9.92,8.13,5.78,16.05,11.83,24.26,17.49,5.51,3.81,11.39,7.16,17.09,10.73a13.83,13.83,0,0,1,2.56,2,1.58,1.58,0,0,1,.18,1.6,1.84,1.84,0,0,1-1.64.36,15.61,15.61,0,0,1-2.64-1.41c-18.44-10.68-34.93-23.8-51.52-36.79q-2.88-2.26-5.73-4.56C346,293,346,292.83,345.79,292.26Z"/><path class="cls-1" d="M774.39,293c-2.69,2.13-5.35,4.29-8.06,6.38-11.48,8.84-22.73,18-34.88,26-5.08,3.35-10.33,6.49-15.5,9.71a4.37,4.37,0,0,1-1.47.72c-.56.09-1.62,0-1.67-.17a2.29,2.29,0,0,1,.18-1.86,7.94,7.94,0,0,1,2.12-1.65c3.94-2.45,8-4.78,11.84-7.34q8.53-5.62,16.87-11.52c7.76-5.52,15.39-11.22,23.15-16.74,2.18-1.55,4.62-2.77,6.94-4.13Z"/><path class="cls-1" d="M799.23,373.64a15.41,15.41,0,0,1-2.76,1.37c-4,1.11-7.94,2.3-12,3.09q-18.16,3.54-36.38,6.77c-3.62.64-7.33.89-11,1.28-.91.09-1.84,0-2.71,0-.64-1.89-.51-2.33,1.19-2.76a25.65,25.65,0,0,1,4.63-.72c9-.58,17.67-2.63,26.47-4.1,10.35-1.72,20.67-3.58,31-5.36a7.17,7.17,0,0,1,1.31,0C799.09,373.35,799.16,373.5,799.23,373.64Z"/><path class="cls-1" d="M321.36,373.12c1.4.21,2.8.39,4.2.63l29.37,5.07c5.53.95,11.05,2,16.6,2.84,3.72.58,7.49.92,11.24,1.39a12.54,12.54,0,0,1,2.42.5c1.15.39,1.53,1.19,1,2.44-1.57,0-3.21.13-4.83,0a220.45,220.45,0,0,1-24-4c-7.84-1.61-15.76-2.81-23.62-4.36-3.41-.67-6.75-1.72-10.1-2.68a15.32,15.32,0,0,1-2.52-1.28Z"/><path class="cls-1" d="M671.35,484.8c2.39.55,4.83,1,7.16,1.68,7,2.16,14.09,4.17,20.57,7.68,3.28,1.77,6.88,3,10.29,4.55,6.22,2.87,12.41,5.81,18.6,8.75a11.81,11.81,0,0,1,2.27,1.48c.59.46,1.1,1.2.41,1.79a3.56,3.56,0,0,1-2,.36c-.32,0-.65-.3-1-.48-8.57-4.69-17.65-8.4-26.5-12.56-8.46-4-17.11-7.41-25.93-10.54-1.44-.51-2.79-1.22-4.18-1.84Z"/><path class="cls-1" d="M441.31,486.53c1,1.29.77,2-.48,2.49-1.55.57-3.11,1.1-4.64,1.72-14.68,5.95-29.12,12.36-43.13,19.6a6,6,0,0,1-1.72.81,2.14,2.14,0,0,1-1.68-.43,1.6,1.6,0,0,1,.26-1.58,8.84,8.84,0,0,1,2.44-1.68c7.36-3.45,14.74-6.85,22.11-10.26,3.56-1.66,7.15-3.26,10.68-5C430.34,489.71,436,488.47,441.31,486.53Z"/><path class="cls-1" d="M459.79,508.08a30.13,30.13,0,0,1-1.92,3c-6.54,7.92-13.07,15.84-19.69,23.69-2.65,3.13-5.51,6.11-8.3,9.14a3,3,0,0,1-1.31.9,1.91,1.91,0,0,1-1.5-.22,1.37,1.37,0,0,1-.2-1.36,14.43,14.43,0,0,1,1.9-2.87q12.66-14.24,25.4-28.4a23.54,23.54,0,0,1,4.93-4.4Z"/><path class="cls-1" d="M660.58,507.26a15.58,15.58,0,0,1,1.84,1.17,56.32,56.32,0,0,1,4.08,3.94c5.63,6.38,11.16,12.84,16.8,19.22,2.37,2.68,5,5.18,7.38,7.83a23,23,0,0,1,2.66,3.65,1.55,1.55,0,0,1-.24,1.59,2,2,0,0,1-1.75,0,5.5,5.5,0,0,1-1.55-1.46q-13.26-15.49-26.49-31C662.24,510.89,661,509.69,660.58,507.26Z"/><path class="cls-1" d="M719.91,484c.42,1.78-.47,2.33-1.7,2.42a5.74,5.74,0,0,1-2.14-.39,330.51,330.51,0,0,0-36.27-9.25c-2.6-.52-5.23-.88-7.84-1.31,0-.2,0-.41,0-.62a26.33,26.33,0,0,1,2.78-.33,75.3,75.3,0,0,1,18.31,2.3c4.56,1.06,9.17,2,13.69,3.19S715.64,482.71,719.91,484Z"/><path class="cls-1" d="M746.27,289.42c.13,1.76-.83,2.9-1.77,4-2.29,2.74-4.48,5.57-7,8.15-6.07,6.34-12.27,12.58-18.46,18.82a9.78,9.78,0,0,1-2.62,1.87,1.86,1.86,0,0,1-1.71-.28,1.76,1.76,0,0,1-.07-1.62,6.76,6.76,0,0,1,1.42-1.58l22.23-21.93c2-2,3.93-3.94,5.93-5.88A22.19,22.19,0,0,1,746.27,289.42Z"/><path class="cls-1" d="M374.08,289.38c.81.68,1.68,1.3,2.42,2,6.24,6.23,12.42,12.51,18.67,18.72,3,3,6.1,5.86,9.18,8.77,1.43,1.35,1.89,2.37,1.29,3.11s-2,.59-3.58-.87c-2.46-2.25-4.95-4.48-7.21-6.9-6.13-6.56-12.17-13.19-18.21-19.83a11.55,11.55,0,0,1-3-4.59Z"/><path class="cls-1" d="M438.46,475c.19.67.32,1.17.46,1.68a3.25,3.25,0,0,1-.74.43c-8,1.94-16.07,3.82-24.08,5.84-3.1.78-6.11,1.91-9.17,2.87a12,12,0,0,1-2.39.62c-1.09.12-2.08-.22-2.32-1.37s.87-1.23,1.6-1.44c5.19-1.5,10.36-3.08,15.6-4.38,5.88-1.45,11.82-2.64,17.75-3.9C436.22,475.14,437.33,475.13,438.46,475Z"/><path class="cls-1" d="M784,394.17a5.18,5.18,0,0,1-1.29.77,7.71,7.71,0,0,1-1.93.13q-14.41-.06-28.83-.17c-1.18,0-2.36-.23-3.48-.35-.48-2-.39-2.34,1.05-2.69a9.67,9.67,0,0,1,2.47-.2c4.06.09,8.13.15,12.19.35,5.89.3,11.78.7,17.68,1.09a13.7,13.7,0,0,1,2.07.46C783.92,393.76,783.94,394,784,394.17Z"/><path class="cls-1" d="M336.22,393.69a21.12,21.12,0,0,1,7-1.07c6.81-.38,13.64-.51,20.46-.74,1.29,0,2.58-.13,3.87-.18a17.11,17.11,0,0,1,2.48,0c1.1.13,2.35.3,2.33,1.73s-1.36,1.25-2.27,1.38a29.18,29.18,0,0,1-3.86.16q-13.29.07-26.58.09C338.44,395.06,337,395.38,336.22,393.69Z"/><path class="cls-1" d="M386.83,288.35a25.66,25.66,0,0,1,2.21,1.78q7,6.93,13.91,13.93a3.08,3.08,0,0,1,.88,1.3,1.64,1.64,0,0,1-.34,1.37A1.7,1.7,0,0,1,402,307a5.83,5.83,0,0,1-2-1.38c-4-4.56-8.05-9.14-12-13.77a18.12,18.12,0,0,1-1.74-3.11Z"/><path class="cls-1" d="M734,288.87a28.88,28.88,0,0,1-2.36,3.75c-3.65,4.29-7.4,8.51-11.15,12.72a6.12,6.12,0,0,1-1.92,1.46c-.48.21-1.49.24-1.67,0a3.14,3.14,0,0,1-.28-1.87c0-.29.4-.57.65-.82,4.64-4.65,9.26-9.29,13.92-13.92a26.52,26.52,0,0,1,2.24-1.82Z"/><path class="cls-1" d="M704.61,464.78c-.74,1.91-1.82,1.73-3,1.53q-7.9-1.33-15.82-2.61c-1.9-.31-3.83-.54-5.73-.86A3.7,3.7,0,0,1,678,461.7a10.77,10.77,0,0,1,1.84-.39,87.25,87.25,0,0,1,16.53,1.41c1.63.28,3.29.45,4.9.83A25.87,25.87,0,0,1,704.61,464.78Z"/><path class="cls-1" d="M435,461.34c.18.75.32,1.3.51,2.09l-4.7.8-12.21,2.09c-1,.18-2.19.43-2.51-.82s.85-1.49,1.7-1.66A147.34,147.34,0,0,1,435,461.34Z"/><path class="cls-1" d="M468.86,512.27a19,19,0,0,1-1,3c-1.83,3.33-3.74,6.62-5.63,9.92-.18.31-.34.71-.62.85-.67.35-1.53.93-2.09.75a1.35,1.35,0,0,1-.56-2.21c2.88-4,5.83-8,8.78-12C467.83,512.4,468.1,512.42,468.86,512.27Z"/><path class="cls-1" d="M652.14,512.3a8.06,8.06,0,0,1,1.54,1.28c2.5,3.45,5,6.92,7.38,10.43.58.85,1.22,2-.15,2.75-1.16.64-2-.2-2.45-1q-3.27-5.61-6.39-11.3a6,6,0,0,1-.35-1.88Z"/><path class="cls-1" d="M684.63,448.56a9.44,9.44,0,0,1,2-.28q5.51.51,11,1.13a11.26,11.26,0,0,1,2.12.57c.88.3,1.94.66,1.61,1.76s-1.47,1.18-2.54,1q-4.59-.86-9.2-1.75a28.8,28.8,0,0,1-3.47-.85,8.09,8.09,0,0,1-1.67-1Z"/><path class="cls-1" d="M434.07,448.23c.16.64.28,1.12.47,1.91-2.64.52-5.12,1-7.61,1.5-1.62.32-3.24.6-4.86.89a3.66,3.66,0,0,1-1.59.21,3.09,3.09,0,0,1-1.56-1.2c-.12-.19.56-1.12,1-1.27a29.08,29.08,0,0,1,5-1.19C428,448.69,431,448.5,434.07,448.23Z"/><path class="cls-1" d="M347.1,408.2a7.83,7.83,0,0,1,1.37-.75q4.09-1.14,8.22-2.22a12.14,12.14,0,0,1,1.9-.31c1.6-.15,2.77.46,2.78,1.47,0,1.42-1.11,1.61-2.26,1.78q-4.37.63-8.72,1.31A2.83,2.83,0,0,1,347.1,408.2Z"/><path class="cls-1" d="M773.35,407.86a2.76,2.76,0,0,1-3.35,1.63c-3.08-.46-6.17-.91-9.25-1.38-1-.15-1.79-.55-1.76-1.65s.94-1.38,1.87-1.56a1.29,1.29,0,0,1,.55,0Z"/><path class="cls-1" d="M722.56,285.92a13,13,0,0,1-3.85,6.9c-.34.34-1.45.58-1.57.43a2.4,2.4,0,0,1-.57-1.78,7.27,7.27,0,0,1,1.43-2.21A8.7,8.7,0,0,1,722.56,285.92Z"/><path class="cls-1" d="M397.62,285.69a12.42,12.42,0,0,1,5.87,5.21,1.75,1.75,0,0,1,.31,1.23,2,2,0,0,1-.81,1.2,1.36,1.36,0,0,1-1.17-.29A14.1,14.1,0,0,1,397.62,285.69Z"/><path class="cls-1" d="M683.42,441.53c1.26-1.44,2.52-1,3.66-1a14.9,14.9,0,0,1,3.28.14,2,2,0,0,1,1.31,1.3,1.82,1.82,0,0,1-1.25,1.3,15,15,0,0,1-3.76-.49A28.92,28.92,0,0,1,683.42,441.53Z"/><path class="cls-1" d="M683,434.28c.87-1.61,2.49-1.39,3.84-1.61a1.22,1.22,0,0,1,1,.68,1.17,1.17,0,0,1-.45,1.07A3.94,3.94,0,0,1,683,434.28Z"/><path class="cls-1" d="M518,405c.55,1.13.83,1.76,1.15,2.37L526,420c.16.32.33.63.47.95,1.64,3.66.73,5.39-3.14,6.9-5.71,2.24-11.81,2.75-17.76,3.94-2.77.55-3.92-.53-4.14-3.19-.51-6.11-1.07-12.21-1.63-18.31,0-.13-.19-.25-.42-.5a9.06,9.06,0,0,0-.85.93c-3,4.37-7.55,5.92-12.67,5.63A24.65,24.65,0,0,1,470,409.52a6.92,6.92,0,0,1-1.4-1.62c-2.3-4.28-4.87-8.45-5.74-13.3a21.68,21.68,0,0,1,.5-8.6,43.87,43.87,0,0,1,6.51-15.8c2.79-4,5.57-8.05,8-12.27a77.7,77.7,0,0,0,5.26-11.25,118.42,118.42,0,0,0,4-13.35A97.27,97.27,0,0,0,488.79,323c.14-1,.21-1.89,1.51-2.16s1.78.41,2.37,1.31a102,102,0,0,0,6.43,9.49,40.73,40.73,0,0,0,7.2,6.86c4.58,3.38,9.48,6.37,14.19,9.6q7.43,5.07,14.71,10.3c1.77,1.26,3.41,2.68,5.09,4,9.88,8,11,24.17,1.6,33.49a36,36,0,0,1-8.38,6.4,25.66,25.66,0,0,1-10.6,2.7C521.45,405.09,520,405,518,405ZM489,359.36c-.27-.52-.41-1.27-.84-1.47a2,2,0,0,0-1.74.2,23.38,23.38,0,0,0-3.32,3.8c-1.78,2.74-3.34,5.61-5,8.39-1,1.62-1.08,3.31-.07,3.79s2.34-.33,3.28-1.84q3.24-5.19,6.44-10.39C488.12,361.09,488.47,360.29,489,359.36Zm4.16-5.86a3.18,3.18,0,0,0-3.16-3.27,2.22,2.22,0,0,0-2.36,2.31,3.14,3.14,0,0,0,3.18,3A2.09,2.09,0,0,0,493.11,353.5Z"/><path class="cls-1" d="M433.44,305.17c-.43,3.19,1.48,6.45-1.78,8.94a8.55,8.55,0,0,1-2.66-4.93c-.45-4.35-.8-8.71-1.17-13.06a6.4,6.4,0,0,1,.12-1.57c.22-1.34.59-2.6,2.27-2.95s3.22-.78,4.76.82a43.66,43.66,0,0,1,6.88,10.11c.92,1.72,1.61,3.54,2.49,5.27a2,2,0,0,1-1,3.09c-3.52-1.12-3.05-4.76-5.06-7.14Zm2.46-5.23c-.93-1.35-1.33-2.63-2.9-3.31v4.16Z"/><path class="cls-1" d="M572.76,456.76l6.47-2c0-.86.1-1.79.15-2.73a11,11,0,0,1,.13-2.08c.23-.88.79-1.8,1.85-1.61.64.11,1.24.85,1.69,1.43a2.43,2.43,0,0,1,.4,1.5c-.12,4.27-.24,8.55-.49,12.83a7.59,7.59,0,0,1-.91,2.73,2.55,2.55,0,0,1-3.82,1.32,9.06,9.06,0,0,1-2.89-2c-2.21-2.58-4.29-5.26-6.33-8a5,5,0,0,1-.91-2.41,1.69,1.69,0,0,1,.88-1.38,2.07,2.07,0,0,1,1.68.24A17.1,17.1,0,0,1,572.76,456.76Zm1.22,2.78c1.95,1.42,2.36,3.47,4.48,4.38.27-2,1.2-3.82.43-6Z"/><path class="cls-1" d="M486.35,486a4.12,4.12,0,0,1-1.05-.27c-1.15-.54-1.25-1.67-.07-2.17a26,26,0,0,1,4.45-1.35q10.72-2.48,21.48-4.86c2.15-.47,4.34-.8,6.52-1.13a7.92,7.92,0,0,1,2.74-.08,2.32,2.32,0,0,1,1.4,1.29c.11.27-.55,1.1-1,1.24-2.44.76-4.91,1.48-7.42,2-4.57,1-9.16,1.92-13.76,2.82C495.29,484.33,491,485.11,486.35,486Z"/><path class="cls-1" d="M515.13,484.87c-.45,1.48-1.66,1.78-2.81,2.07-3.92,1-7.86,1.9-11.79,2.86-2.32.57-4.64,1.17-6.95,1.76a11.27,11.27,0,0,1-2.67.64,2.9,2.9,0,0,1-2.06-.85c-.63-.87.25-1.46,1-1.77a36.86,36.86,0,0,1,5.16-1.84c3.58-.83,7.23-1.4,10.83-2.18,2.06-.45,4.09-1.05,6.12-1.65C513.26,483.53,514.35,483.5,515.13,484.87Z"/><path class="cls-1" d="M563.54,326.55c-.5-3-1-5.77-1.44-8.59-.37-2.32-.67-4.66-1-7a5.12,5.12,0,0,1-.06-.78c0-1.06-.06-2.39,1.27-2.59,1.6-.24,1.48,1.34,1.68,2.22,1,4.51,1.91,9.05,2.77,13.58C567.2,325.73,566.7,326.24,563.54,326.55Z"/><path class="cls-1" d="M559,326.4c-.25-.32-.67-.61-.75-1-.6-2.71-1.2-5.44-1.66-8.18-.22-1.29-.09-1.31,1.72-2.46a11.62,11.62,0,0,1,.94,2.09c.52,2.29,1,4.6,1.36,6.91C560.91,325.39,560.82,325.4,559,326.4Z"/><path class="cls-1" d="M562.4,302.05a2.18,2.18,0,0,1-1.87,2.19,2.14,2.14,0,0,1-2.1-2.25,2.35,2.35,0,0,1,2.12-2C561.65,299.9,562.35,300.69,562.4,302.05Z"/><path class="cls-1" d="M523,483.54c-1,1.09-2,2-3.44,2-.56,0-1.12-.59-1.68-.92.33-.46.56-1.17,1-1.34C520.14,482.76,521.55,482.27,523,483.54Z"/><path class="cls-1" d="M651.31,478.59c.37-.89.77-1.85,1.18-2.81.25-.56.36-1.3.81-1.63a3.28,3.28,0,0,1,2.15-.7c.44.08,1,1,1,1.58a4.48,4.48,0,0,1-.3,2.31c-1.51,3.65-3.06,7.29-4.71,10.89a9.54,9.54,0,0,1-2,2.52c-1.51,1.53-3,1.55-4.47,0a7.83,7.83,0,0,1-1.82-2.59c-1.11-3.23-2-6.52-3-9.78a4.14,4.14,0,0,1-.24-1.29c0-.9.19-1.8,1.3-2.05a1.58,1.58,0,0,1,2.07,1.24c.43,1.94,1.71,2.45,3.62,2.31C648.34,478.51,649.72,478.59,651.31,478.59Zm-6.61,2.74c.67,2,1.23,3.66,1.84,5.46a8.58,8.58,0,0,0,3.06-5.46Z"/><path class="cls-1" d="M690,335.47a19.05,19.05,0,0,1,0,3c-.68,4.14-1.45,8.26-2.19,12.39a9.09,9.09,0,0,1-.25,1c-.59,2-1.36,2.28-3.85,1.25a32,32,0,0,1,.42-3.26c.92-4,1.89-8,2.88-12a7.64,7.64,0,0,1,.8-1.94A1.45,1.45,0,0,1,690,335.47Z"/><path class="cls-1" d="M682.9,340.63c.4,3.46-.66,6.65-1.36,9.86a1.61,1.61,0,0,1-2.22,1.18,3.15,3.15,0,0,1-.29-1.16c.43-2.75.88-5.51,1.41-8.25C680.64,341.25,681.23,340.49,682.9,340.63Z"/><path class="cls-1" d="M689.27,331.4a1.69,1.69,0,0,1-1.73-1.89,2.19,2.19,0,0,1,2.47-2.16,1.51,1.51,0,0,1,1.58,1.72A2.22,2.22,0,0,1,689.27,331.4Z"/><path class="cls-1" d="M587.86,487.42a23.31,23.31,0,0,1-4,.49c-.45,0-.84-.9-1.26-1.38.46-.33.89-.9,1.38-.94C585.33,485.47,586.75,485.4,587.86,487.42Z"/><path class="cls-1" d="M744.64,417a1.51,1.51,0,0,1-.26-.73c0-.49.06-1.16.38-1.38a1.82,1.82,0,0,1,1.48.12,16,16,0,0,1,2.51,1.61c.89.69,1.53,1.54,1.12,2.7-.18.13-.36.35-.47.32-2.45-.65-3.71.71-4.81,2.45-.9,1.41-1.91,2.76-3.1,4.48a15,15,0,0,0,1.89-.15,15.54,15.54,0,0,0,2.37-.74c2.58-1.1,6.47-.37,6.56-4.89,2.28,1.8,2.21,3.64,2,5.56-4.41-.17-7.91,2.19-12.12,3-.1,4.35-.28,8.6-.28,12.86,0,1.56-.52,2.34-2.13,2.16a13.82,13.82,0,0,1-2.37-.72c1.7-4.26,1.27-8.53,2-12.91-2,1.11-3.11,2.34-5.4,6a1.92,1.92,0,0,0,.15.48c.42.66,1.27,1.45.4,2a3.09,3.09,0,0,1-2.48.06c-1-.43-2.23-1-2.33-1.89Z"/><path class="cls-1" d="M708.34,396.88c-2.38,1.28-3.88-.67-5.9-1.29-4.39,6.15-6.56,13.28-10.63,19.88l5.87,1.6a30.8,30.8,0,0,1,2.8-3,2.37,2.37,0,0,1,2-.45,1.84,1.84,0,0,1,.81,1.69,20.68,20.68,0,0,1-4.44,7.71c-.16.17-.5.18-.75.26-1.74-.51-.85-2.13-1.51-3.21-1.61-.46-3.29-.88-4.93-1.43-3.28-1.11-3.8-2.45-2.24-5.39q5-9.36,9.91-18.78l-2.83-3.29a5.62,5.62,0,0,1,4.62,0q2.92,1.49,5.83,3C708,394.79,708.75,395.47,708.34,396.88Z"/><path class="cls-1" d="M709.53,423.82a5.92,5.92,0,0,0,4.15-2.61c2.44-3.29,4.78-6.64,7.12-10,.86-1.23,1.61-2.53,2.4-3.79l-.9-2.85c2.63-.64,5.45.3,6.61,2a1.25,1.25,0,0,1-1.09,2.06c-2.34-.27-3,1.3-3.93,2.66-2.53,3.65-4.9,7.41-7.63,10.93a15.63,15.63,0,0,1-4.77,3.85c-2.3,1.26-4.45.17-5-2.29a8.59,8.59,0,0,1,.7-5.91c2.13-4.27,4.36-8.49,6.57-12.72.64-1.23,1.64-2.31.58-3.85a1.81,1.81,0,0,1,.37-1.84,3.23,3.23,0,0,1,2.28-.08,3.39,3.39,0,0,1,1.85,3.48c-.09.32-.4.83-.57.82-1.61-.12-1.63,1.18-2.08,2.05q-2.68,5.17-5.29,10.4a30.61,30.61,0,0,0-1.53,3.65A4.39,4.39,0,0,0,709.53,423.82Z"/><path class="cls-1" d="M726,431.93a10.46,10.46,0,0,1,1.64-1.26,2.07,2.07,0,0,1,1.47,0c.2.08.34.85.17,1.12a23.2,23.2,0,0,1-2.58,3.71c-1,1-2,.8-2.85-.37a5.07,5.07,0,0,0-1.26-1.27,5.26,5.26,0,0,1-2.43-6.19,17.12,17.12,0,0,1,1.64-3.88,34.67,34.67,0,0,1,7.84-9.45c1.37-1.19,3.31-1.8,5-2.62a2.43,2.43,0,0,1,1.36-.17c1.73.33,3.44.72,5.24,1.11.33,1.22-.44,2.14-1,3.1a2.5,2.5,0,0,1-3,1.3c-1.3-.4-1.33-1.47-.83-2.73a8.69,8.69,0,0,0-5.29,2.45,29.22,29.22,0,0,0-7.33,9.47,8.29,8.29,0,0,0-.41,1C722.36,429.85,722.92,430.88,726,431.93Z"/><path class="cls-1" d="M757.75,424.81c.15,1.56.26,2.63.37,3.76,2.2-.14,1.66-2.16,2.59-3.07,2.52,1.21,3.35,2.38,3.34,4.83h-2.19c-4.3,4.76-8.63,9.54-13.11,14.48,1,1,1.06,2.1-.29,2.94-.35.23-1,.5-1.23.36a23.84,23.84,0,0,1-3.3-2.68,1.79,1.79,0,0,1,.13-2.74c2.36.79,3.81-.55,5.21-2.2,1.9-2.26,3.9-4.44,5.89-6.63a2.73,2.73,0,0,0,.81-3.24A4.46,4.46,0,0,1,757.75,424.81Z"/><path class="cls-1" d="M399.85,399.28a6,6,0,0,1,4.75,2.83c2.95,3.91,5.71,7.94,8.53,11.94,1.23,1.74,2.39,3.52,3.64,5.25a2,2,0,0,0,2.83.84,1.3,1.3,0,0,1,.79-.19c.51.11,1.29.24,1.4.55a1.69,1.69,0,0,1-.26,1.6,22,22,0,0,1-4.47,2.55c-1.46.57-2.34-.46-3-1.93a54.61,54.61,0,0,0-3.69-5.88l-2.77,1.56c.79,2.23,1.5,4.38,2.32,6.49.17.43.75.71,1.13,1.07a1.91,1.91,0,0,1-.31,3.29c-1.07.63-2.2,1.33-3.72.92-.1-.29-.37-.64-.3-.92.59-2.26-.42-4.24-1.1-6.3-2.18-6.68-4.3-13.37-6.43-20.07C398.75,401.61,398.45,400.31,399.85,399.28Zm9.1,14.8-4.16-6.32-.56.26a37.59,37.59,0,0,0,2.54,7.28Z"/><path class="cls-1" d="M420.25,406.78a4.5,4.5,0,0,1-3.4-2.27,32.53,32.53,0,0,0-5.05-5.19c-1.46-1.37-3-2.61-5.33-1.64a3.82,3.82,0,0,1-1.24,0,2.65,2.65,0,0,1,1.51-2.56c1.23-.79,2.41-1.62,3.62-2.44.77-.52,1.6-1.07,2.51-.39s.24,1.57-.13,2.34c-.12.24-.21.48-.36.82,1.74,1.59,3.26,3.43,5.62,4.86v-7.06l-3-.68c1.2-2.59,3.37-3.8,5.78-4.67a2.13,2.13,0,0,1,1.71.38,1.1,1.1,0,0,1-.22,1.82c-2.2,1.55.75,3.82-2.32,6.3a2,2,0,0,0-.56,2.47c9.57,18.63,4,19.6,11.39,18.7,0,0,.06,0,.07,0,1.83,2.17.52,2.6-.43,3.16-1.16.69-2.38,1.29-3.47,2.06-1.61,1.13-2.6.75-3-1.11C422.74,416.73,421.49,411.82,420.25,406.78Z"/><path class="cls-1" d="M379.52,418.52l2-.32c.78,1.21.9,2.44,0,3.26-1.39,1.23-2.38,3.23-4.81,3-1.3-1.9.21-3,1.2-4.09-1.43-3.43-5.71-3-7.72-.14-2.37,3.37-1.71,6.34,2.05,8.38,1.2.64,2.49,1.16,3.72,1.75a13.07,13.07,0,0,1,5.66,4.88c1.62,2.62,1.36,5.21-.69,7.25s-4.59,2.29-7.37,1a9.56,9.56,0,0,1-1.44-.79,4.64,4.64,0,0,0-3.54-1c-1.77.2-2.34-.84-1.43-2.32a13.89,13.89,0,0,1,2.27-2.95,2.84,2.84,0,0,1,2.18-.54,1.92,1.92,0,0,1,1.09,1.53c0,1.79,1,2.73,2.57,3.36a2.87,2.87,0,0,0,3.32-.49,2.32,2.32,0,0,0,.4-3.13,14.12,14.12,0,0,0-2.63-3,14.34,14.34,0,0,0-2.84-1.62c-1.05-.55-2.18-1-3.18-1.58-2.71-1.66-4.54-3.8-4.33-7.1a9.86,9.86,0,0,1,5.17-8c1.6-1,3.63-.55,5.3.36A28.75,28.75,0,0,1,379.52,418.52Z"/><path class="cls-1" d="M378.24,409.47c.54.23.87.35,1.17.51,2.12,1.16,2.1,1.14,3.86-.19,2.09-1.56,4.23-3.07,6.3-4.56-.29-2.46-.29-2.46,1.25-3.71,1.45.54,2.14,1.78,2.85,3,.46.75.78,1.56,1.19,2.34s.87,1.6-.05,2.09a4.26,4.26,0,0,1-2.27,0c-.31,0-.59-.37-1.05-.69L388.84,410,399,427.42a12.54,12.54,0,0,1,2.1-.2c.58,0,1.48.2,1.65.56a2.54,2.54,0,0,1-.08,2c-.79,1.58-6.56,4.12-8.46,3.75a2.14,2.14,0,0,1-1.43-1,1.86,1.86,0,0,1,.53-1.54,20.36,20.36,0,0,1,2.29-1.81l-9.35-17.07-2.71,1-1.44,3.19C379.05,414.75,377.47,412,378.24,409.47Z"/></svg>