<svg id="Objects" xmlns="http://www.w3.org/2000/svg" viewBox="0 0 1080 1080"><defs><style>.cls-1{fill:#231f20;}.cls-2{fill:#006838;}.cls-3{fill:#ba1e2d;}.cls-4{fill:#f7ac40;}</style></defs><path class="cls-1" d="M581.19,574.1c1.12.13,2.37.35,3.63.42a98.09,98.09,0,0,0,18-1.13c6.31-.85,12.61-1.79,18.86-2.95,7.28-1.35,14.29-3.48,20.63-7.33a62.27,62.27,0,0,1,7.4-3.57c1.61-.71,3.08-.09,3.34,1.59a13.58,13.58,0,0,1-.09,5.43c-1.24,4.57-2.79,9.07-4.27,13.58-.93,2.82-1.94,5.62-3,8.66,1.22.49,2.19.93,3.21,1.28,3.38,1.16,6.74,2.41,10.18,3.4,2.55.74,5.21,1.12,7.82,1.66,1.62.34,3.28.57,4.85,1.06,3.32,1,3.91,3.4,1.47,5.79a12.74,12.74,0,0,1-2.65,1.86c-1.89,1.09-4,1.93-5.74,3.15-8.41,5.77-17.82,9.56-27.55,12.72a108.7,108.7,0,0,0-16.72,7c-4.84,2.52-10.09,3.82-15.36,5.16-8.17,2.07-16.56,2.7-24.92,3.6l-1.71.22c-.17,1.74-.43,3.38-.47,5-.4,13.51-2.46,26.83-4.7,40.15-1.31,7.77-4.15,15-7,22.37-.56,1.48-1,3-1.48,4.49a6.8,6.8,0,0,1-.51,1.5c-2.93,4.65-4.81,9.87-8.58,14.06-1.52,1.69-2.57,2-4.48.68a26.93,26.93,0,0,1-5.44-4.79,36.45,36.45,0,0,1-5.66-9.57c-1.8-4.59-3.84-9.12-5.24-13.82a69.12,69.12,0,0,1-2.3-12.12c-1-8.53-1.86-17.08-2.35-25.64-.46-8.13-.37-16.28-.52-24.43,0-.51-.1-1-.16-1.72a61.77,61.77,0,0,0-13.27-.93c-6.08.43-12.19.7-18.23,1.41-10.73,1.27-21.48,2.55-31.53,6.68-3.7,1.52-7.3,3.25-10.91,5.14,6.62.9,13.33.52,19.77,2.35a10.86,10.86,0,0,1-5.43,1c-3.51,0-7,0-10.53,0-4.43-.07-8.86-.21-13.28-.35-2.59-.09-5.18-.18-7.74-.43-1.09-.1-2.71-.11-2.41-1.84.27-1.51,1.65-1.41,2.88-1.35l8.34.42c1.91-9.19,6.05-17.69,9.21-26.42-.18-.26-.25-.5-.39-.54-5.3-1.45-9.88-4.68-15.45-5.52-1.25-.18-2.37-1.14-3.58-1.75a7.6,7.6,0,0,1,4.06-4.21c3.92-2.11,7.12-5,10.35-7.87a59.85,59.85,0,0,1,17.88-10.86c12.91-5.07,26.06-9.47,39.87-11.75,7-1.15,14-2.55,21.14-2.65a12.67,12.67,0,0,0,1.57-.24,11.08,11.08,0,0,0,.32-2c-.15-7.26-.33-14.53-.5-21.79-.09-3.5-.14-7-.29-10.49-.24-5.47-2.44-10.39-5.06-15.13-1.4-2.54-3.24-4.86-4.89-7.27a1.84,1.84,0,0,1,.35-2.79,9.71,9.71,0,0,1,1.5-1.16c5.14-2.7,6.89-7.08,6.81-12.33q-.1-6-.37-12.07c-.16-3.67-.43-7.34-.66-11,0-.42-.08-.85-.15-1.51a48.68,48.68,0,0,0-5,0c-5,.51-9.92,1.06-14.84,1.79a17.7,17.7,0,0,0-4.93,1.66c-2.55,1.21-3.07,2.91-1.92,5.46.33.72.77,1.4,1.08,2.13,2.09,5-1.48,9.42-7.12,8.71-7.07-.88-13.25-6.6-12.79-13.53a28,28,0,0,1,.55-5.19c1.38-5.36,5.35-8.67,10.41-10.88a38.86,38.86,0,0,1,11.52-2.68,198.94,198.94,0,0,1,24.65-1c1,0,2,0,3.23,0-2.29-8.37-2.54-16.57-2.31-24.8.38-13.75.82-27.5,1.11-41.25.12-5.69-.14-11.39-.12-17.09a2.21,2.21,0,0,0-1.83-2.51c-.44-.12-.85-.33-1.29-.48-6.37-2.28-9.17-9.67-5.68-15.14a7.26,7.26,0,0,1,1.79-1.59,24.41,24.41,0,0,1,10.84-4.39c-.51-4.53,1-8,5.69-9.36.09-.36.2-.54.17-.69-.46-2-.76-4.22,1.23-5.57a9.28,9.28,0,0,1,8.13-1.48,9,9,0,0,1,6.6,6.65c4,1.37,8.24,2.63,7.51,8.18,2.34.54,4.53,1.21,6.78,1.53,3.65.5,6.52,2.39,9.36,4.34,2.08,1.43,2.86,5.76,1.47,8.54-2,3.94-4.69,7.32-9.38,9.27,0,1,0,2.1,0,3.22-.11,8.32-.42,16.64-.29,24.95.11,7.09.7,14.17,1.15,21.25.38,6,1.13,12.05,1.21,18.07.06,4.35-.68,8.71-1.13,13.06-.19,1.8-.56,3.59-.88,5.61,2.53,0,5.16.11,7.77,0,4.06-.21,8.12-.5,12.16-.93a35.06,35.06,0,0,0,14.16-4.19,15.11,15.11,0,0,0,5.87-6.82,6.48,6.48,0,0,0-.92-7c-1.71-2.33-1.52-4.62-.19-6.92,1.48-2.56,4.17-3.45,7.4-2.65a12.62,12.62,0,0,1,10,10.51c2.62,13.57-5.81,25.88-19.7,28.38a122.33,122.33,0,0,1-21.81,1.74H582a17.22,17.22,0,0,0-.61,2.89c-.19,6.55-1.27,13.13-.09,19.66.8,4.44,2.44,8.59,6.16,11.74,1.79,1.51,3.41,3.2,5.15,4.76.88.79.54,1.5.14,2.35-1.5,3.2-3.15,6.34-4.35,9.64a99,99,0,0,0-4.92,22c-1,8.86-1.71,17.77-2.53,26.66A3.38,3.38,0,0,0,581.19,574.1ZM451.4,642.51l.57.43,2.62-1.37c7.73-4,15.69-7.51,24.31-9.35a211.06,211.06,0,0,1,31.5-4.36c3.42-.21,6.87-.79,10.23-.47,7.53.71,15.07,1.58,22.49,2.94a131.17,131.17,0,0,0,29.26,1.74,240.39,240.39,0,0,0,24.26-2.29A76.35,76.35,0,0,0,619.82,623c5-2.48,10.23-4.44,15.45-6.44,6.16-2.35,12.6-4.13,18.35-7.35,5.15-2.88,10.16-6,15.22-9,.08-.05,0-.29.09-.72-1.1-.24-2.25-.46-3.39-.73-2.95-.68-5.92-1.29-8.83-2.12-2.56-.72-5-1.71-7.55-2.58-1.65-.56-3.32-1.06-4.94-1.69-1.94-.75-2.63-2-2.15-4,.3-1.19.77-2.34,1.17-3.5q3.28-9.48,6.54-19a13.55,13.55,0,0,0,.4-2.1,6.7,6.7,0,0,0-1.32.16,10.51,10.51,0,0,0-1.73.81,68.07,68.07,0,0,1-20.5,8.41c-3.77.85-7.59,1.5-11.41,2.13-9.84,1.62-19.71,3.11-29.74,2.83-4.8-.13-9.59-.62-14.39-1-6.08-.45-12.15-1-18.24-1.39q-6.63-.43-13.28-.53c-2.3,0-4.6.37-6.91.42a164.25,164.25,0,0,0-24.46,2.87,198.46,198.46,0,0,0-35,9.89c-5.16,1.91-10.32,4-14.71,7.24-4.64,3.48-9.07,7.21-13.57,10.85a26.7,26.7,0,0,0-1.92,1.92c.67.29,1,.46,1.33.58l13.91,5.07a10.85,10.85,0,0,1,1.27.51c1.49.75,1.8,1.54,1.13,3-.55,1.21-1.25,2.35-1.75,3.57-1.48,3.58-3,7.15-4.3,10.8C453.37,635.44,452.45,639,451.4,642.51Zm105.28-95.89c4.67-15.76,15.79-26.2,30.24-33.85a4.1,4.1,0,0,0-.38-.71,4.53,4.53,0,0,0-.61-.54c-5.67-4.28-8-10.12-8.39-16.72-.2-3.4.12-6.83.11-10.24,0-1.9-.18-3.8-.28-5.63-2.44-.31-2.54-.38-2.62-2.14,0-1,0-2.05,0-3.1h-3c0,1.54.07,2.92,0,4.29a1.45,1.45,0,0,1-.9,1.06,1.75,1.75,0,0,1-1.34-.65,3.2,3.2,0,0,1-.35-1.51c-.12-1-.19-2.07-.29-3.17h-3.29c-.34,1.92.88,3.84-.82,5.51-2.83-1.16-1.15-3.84-2.25-5.54H559c.2,1.33.34,2.44.52,3.54.14.84.14,1.74-1,1.78a2.2,2.2,0,0,1-1.57-1.06,7.41,7.41,0,0,1-.56-2.28c-.13-.66-.21-1.32-.34-2.14l-3.57.19a36.54,36.54,0,0,1-.06,4.26,1.72,1.72,0,0,1-1.15,1.19,1.87,1.87,0,0,1-1.53-.74,4.62,4.62,0,0,1-.39-2c-.06-.77,0-1.54,0-2.4h-4.7a36.82,36.82,0,0,1,.29,3.91,1.45,1.45,0,0,1-.9,1.09,1.63,1.63,0,0,1-1.39-.5,4.73,4.73,0,0,1-.68-2,23.79,23.79,0,0,1-.16-2.7l-3.65.31c.17,2.07.38,3.81.42,5.55,0,.52-.41,1.46-.67,1.48a3.26,3.26,0,0,1-1.86-.66,6.72,6.72,0,0,1-1.19-1.53c-.54,2.08-1.09,3.84-1.44,5.64a18.65,18.65,0,0,0-.36,3.87c0,4.55.32,9.09.25,13.64a12.93,12.93,0,0,1-5.67,10.64,5,5,0,0,1-1.33.5,75,75,0,0,0,8.75,3.48,19,19,0,0,1,9.65,6.74,68.77,68.77,0,0,1,6.51,10.36C553.27,538,555.52,542,556.68,546.62Zm-23,85.75c-.08,1.7-.22,3-.19,4.29.14,7,.1,14,.56,21,.56,8.46,1.52,16.9,2.36,25.34.94,9.34,4.31,18,8.19,26.55a3.36,3.36,0,0,0,1.56,1.66,21.64,21.64,0,0,0,3.69.87c.23-25.68,3.34-51,3.83-76.37Zm41.74-162.88v0c2.68,0,5.36,0,8,0a169.35,169.35,0,0,0,25.16-1.46c11.1-1.46,19.08-10.7,17.77-22.5-.43-3.91-2.21-7.25-6.66-8.54-2.23-.65-3.72.33-3.57,2.52a30.73,30.73,0,0,0,.84,3.57,13.45,13.45,0,0,1,.5,4.09c-.7,5.14-3.53,9.08-8,12a30.27,30.27,0,0,1-10,3.82c-6.52,1.5-13.2,1.66-19.84,1.89-8.4.29-16.82.38-25.24.37-6.56,0-13.12-.24-19.67-.49a167,167,0,0,0-32.08,1.42,28.68,28.68,0,0,0-7.12,2.07c-8.84,3.93-11.05,13.37-4.85,20.31a9.4,9.4,0,0,0,4.25,2.27,2.88,2.88,0,0,0,3.85-2.39,8.07,8.07,0,0,0-.53-3.25c-1-3.39-.81-8.46,4.46-10.64a28.56,28.56,0,0,1,5.72-1.87c9.19-1.69,18.53-2.2,27.84-2.6,10.06-.44,20.15-.45,30.22-.62C569.47,469.45,572.43,469.49,575.39,469.49Zm-46.85,51.06c.35.55.66,1,.91,1.44,2.31,4.39,4.64,8.83,5.16,13.77.58,5.47.79,11,1,16.48s.14,11.2.22,16.8c0,.93.09,1.86.15,3.09,6.82-1.27,13.29-.07,19.84.33.07-.64.15-1,.15-1.32.1-7.2-1.16-14.24-2.6-21.29-1.63-8-5.39-15.17-9.69-22.15a20.41,20.41,0,0,0-13.22-9.28ZM574,641.87c-6.23.58-11.38,2.86-16.83,5v8.36l16.4-5.3C573.69,647.09,573.82,644.59,574,641.87Zm-17.84,24.48c3.67-1.12,6.81-2.09,10-3,1.49-.44,3-.86,4.51-1.24a2.32,2.32,0,0,0,2-2.47c.05-1.38.33-2.76.46-4.14.06-.63,0-1.27,0-2.12l-16.36,4.46C556.49,660.67,556.32,663.35,556.13,666.35Zm14,8.78-14.94,4.25c.19,2.75-.86,5.44-.21,8.24,3.24-.88,6.32-1.7,9.38-2.56a22,22,0,0,0,3.13-1,2.25,2.25,0,0,0,1.21-1.22C569.16,680.53,569.53,678.22,570.08,675.13Zm1.6-10.13-15.77,4.06c-.19,2.65-.36,5-.53,7.26a2.89,2.89,0,0,0,.81.08c4.46-1.36,8.93-2.7,13.37-4.12a2,2,0,0,0,1.2-1.26C571.14,669.25,571.33,667.45,571.68,665Zm-11-92.13c2.92.1,5.87,1,8.88.17,2.12-.58,4.24-1.19,6.31-1.9.6-.21,1.44-.76,1.52-1.25.33-2.18.42-4.4.61-6.71a7.73,7.73,0,0,0-1.13.21c-5,1.93-10.05,3.86-15.06,5.84C560.12,569.88,560.07,570.18,560.64,572.87Zm.52-6.3c.09,0,.2.09.26.06,5.31-2.2,10.62-4.39,15.9-6.65a2.12,2.12,0,0,0,1.15-1.33,16.4,16.4,0,0,0,.27-5.16,4.77,4.77,0,0,0-1,.23c-4.87,2.64-9.77,5.25-14.6,8C560.46,563.21,560.49,563.33,561.16,566.57Zm18.26-20.29c-.09,0-.2-.07-.27,0q-8.43,3.6-16.85,7.24c-.38.16-.87.55-.91.88-.26,1.84-.4,3.71-.63,6,1.08-.57,1.72-.89,2.33-1.24,4.57-2.61,9.12-5.28,13.73-7.84C579.43,549.81,579.77,549.33,579.42,546.28ZM567.64,687.63c-4.75.3-8.72,1.89-13,3-.16,2.4-.3,4.77-.48,7.5L565.07,695ZM544.86,412.88l-7.1,5.81,6.08,6.26C546.48,423,549.66,422,551,420ZM561.7,551.12c.93-.34,1.36-.47,1.77-.65,4.9-2.23,9.8-4.45,14.68-6.72,2.58-1.19,2.88-1.87,2.28-5-5.51,2.16-11,4.26-16.37,6.44a2.67,2.67,0,0,0-1.44,1.42A37.88,37.88,0,0,0,561.7,551.12ZM574,635.87h-16.4v8.21c1-.41,1.83-.76,2.66-1.08,2.3-.89,4.58-1.84,6.93-2.62,1.73-.58,3.54-.94,5.33-1.37C574.05,638.63,574.57,637.72,574,635.87Zm9-105.3a14.22,14.22,0,0,0-1.6.32q-6.48,2.31-13,4.66a2.23,2.23,0,0,0-1.14.67,15.57,15.57,0,0,0-2.61,5.63c.36.08.56.19.69.14,5.5-2.26,11-4.54,16.58-6.86C582.23,533.69,582.55,532.27,582.94,530.57ZM555,403.91l7.55,5.94,6.36-5.08-7.76-6.39C559,400.24,557.12,402,555,403.91Zm6,22.82c-2.59,2.29-5.32,4-7.68,6.56l6.43,4.23c2.63-1.83,5.35-3.24,7.6-5.65Zm-7.75-20.34-5.85,4.93,6.41,5.52c2.14-1.8,4-3.34,6-5Zm-8.51,3.16c2.27-2,4.53-3.2,6.14-5.34l-6.09-5.59-6.08,5.47ZM547,396.84l6,5.24,5.82-6.15-5.37-4.78Zm-7.6-7.28c1.81-2,3.38-3.66,4.91-5.38a1.62,1.62,0,0,0,0-2.54c-1.2-1.17-2.33-2.42-3.59-3.74a10.52,10.52,0,0,0-4.72,8.16ZM561.53,423a24.33,24.33,0,0,0,6.73-5.27l-5.78-3.95-6.19,5.26Zm.86,16.5c1.71,1.11,3.11,2.09,4.59,2.94.66.38,1.7.9,2.17.66,1.17-.59,2.7-1.43,3-2.45a9.48,9.48,0,0,0-.29-4.88c-.23-.84-1.36-1.47-2.11-2.23Zm22.71,83.3c-3.44,1.22-6.47,2.62-9.66,3.33-3.66.82-4.79,3.27-6.08,6.62,4.41-1.76,8.25-3.39,12.17-4.84C583.9,527.05,584.9,525.47,585.1,522.81ZM545,439.06l6.18,4.88,5.88-4.54-6.18-4.56Zm9.24-17.47-8.19,5.72,4.79,3.83,7.59-6.26Zm-11.56,19c-2,1-4.06,1.69-5.32,3l5.57,5.85,5.82-3.73Zm13.18-51.6,5.88,5.05a12.47,12.47,0,0,0,4.61-4.77L560.67,384Zm4.16,61.23,6-4.72-6.37-4.15-5.53,4.51Zm3.78,248.29-9.69,2.2v6.74l6.86-2.21ZM542.6,436.91l6-4.19-5-4.31a18.92,18.92,0,0,0-6.34,3.79Zm-1.27-46,3.34,4,6.69-5.81-4.66-4.2Zm4.08,60.92,5.45,4.06c2.33-1.19,4.6-2.05,6.58-3.91l-5.79-4.29Zm13.28-69.32-5.06-5.41-4.75,5.13,4.88,4.39a2.39,2.39,0,0,0,.68-.25C555.77,385.15,557.08,384,558.69,382.48Zm11.69,74a11.6,11.6,0,0,0,.64-1.37c.21-.66.39-1.34.54-2,.76-3.48.76-3.48-2.34-5.5a3.8,3.8,0,0,0-.72-.17c-1.67,1.46-3.71,2.73-5.36,4.79Zm.48-37.26-6.17,6.26,5.37,4.15C572.61,426.12,570.65,422.79,570.86,419.25Zm-2-32.39c.64-1.41,1.48-2.41,1.47-3.4a24.19,24.19,0,0,0-.89-5.07c-.06-.23-.56-.42-.89-.52-.68-.22-1.38-.36-2.18-.56l-3.52,4.27Zm-1.79,71.94-6.5-4.56c-2.17,1.33-4.19,2.58-6.75,4.17C558.47,460.27,562.44,459.53,567.12,458.8ZM564,396a22.49,22.49,0,0,0,6.24,4.78c1.48-4.59.9-7.22-2-9.14Zm-21,57.16-5.54,3.21c4.38,3.89,6.71,4,10.16.61Zm-.81-42-5.42-5.38-.59.25a99.1,99.1,0,0,0-.46,10.07Zm3.49-67.35,8.94-.51a5.75,5.75,0,0,0-6-3.85C546.57,339.72,545.71,340.86,545.68,343.82Zm-3.15,52.67-3.79-3.83c-1,1.17-2.24,2-2.39,3a11.09,11.09,0,0,0,.29,6Zm-5.89,23.85-.83.23a64.79,64.79,0,0,0-.17,8.36l5.76-3Zm34-5.41c-.14-2.88-.25-5.27-.37-7.81l-4.82,4.64Zm-30.18,35.74-4.68-5.06-.63.26c.25,2.31.49,4.62.78,7.32Zm-.23-12.42c-1.87-1.64-2.59-3.64-4.9-4.4v6.77Zm15.78-91,1,4.26h4C561.23,348.44,560.39,347.68,556,347.23Zm-12.3,5.45V348c-3.54.65-4.21,1.79-3,5.08Zm3.66,27.63,3.46-3.07a16.24,16.24,0,0,0-7.1.19ZM563.82,377l-.24-.63a12,12,0,0,0-6.05.55l3.3,3.05Zm-17.38-29.58c-.3,4.19,0,4.76,2.39,4.45v-4.45Zm7.09-.2c-2,.51-2.16,1.16-1.45,4.44h2.14C554,350.17,553.77,348.82,553.53,347.26Z"/><path class="cls-2" d="M387,461.06l5.67-7c-1.78-3.5-.7-6.68,1.18-9.56a103.18,103.18,0,0,1,7.94-10.73c2.89-3.34,6.62-5.62,11.49-5.4,3.86.17,5.92,2.19,6.08,5.83a9.2,9.2,0,0,1-1.46,5.53c-2.12,3.31-4.47,6.47-7.84,8.76a93.6,93.6,0,0,1-8.07,5.09c-2.22,1.19-4.67,2.19-7.35,1.09l-6.53,9.83.45.44c.81-.6,1.66-1.16,2.43-1.8,4.81-4,10.53-5.68,16.84-5.65a13.25,13.25,0,0,1,3.55.52c3.66,1.09,5.21,4.71,3.18,7.79a11.57,11.57,0,0,1-3.67,3.46,27.26,27.26,0,0,1-5.81,2.41c-4.64,1.45-9.14,3.44-14.13,3.58-2.76.07-5.53,0-8.47,0a88.83,88.83,0,0,0-7.89,20.38,17.4,17.4,0,0,0,1.47-1.23c4.76-4.86,10.76-7.93,17.06-10.56a13.68,13.68,0,0,1,7.37-.65c2.71.4,4,1.85,4.25,4.42a10.12,10.12,0,0,1-3.23,8.59c-5.94,5.82-13.35,9-21.43,10.94-3.11.75-6.34,1-9.75,1.58-2.19,6.25-3,13-4.61,20.33a14.44,14.44,0,0,0,1.77-1.49c1.44-1.82,2.74-3.76,4.28-5.5a20,20,0,0,1,14.92-6.94c5.55-.21,8.79,4.39,7.06,9.52a16.16,16.16,0,0,1-3.91,6,44.18,44.18,0,0,1-10.55,7.62c-2.55,1.42-5.1,2.85-7.76,4.06-2,.93-4.27,1.52-6.54,2.31-.83,3.13-.21,16.17,1.25,23,.62-1.41,1.12-2.4,1.5-3.42a31,31,0,0,1,6.51-10.91,24,24,0,0,1,4.39-3.57,8,8,0,0,1,6.41-.81c2.05.51,3.45,1.89,3.47,3.91a14.64,14.64,0,0,1-.71,4.64c-2.69,8.12-7.47,14.82-15.25,19.35a41.79,41.79,0,0,1-4.88,2l3.94,17.76a10.9,10.9,0,0,0,1.49-2c1.58-4,4.47-7.26,7.09-10.63a19.88,19.88,0,0,1,5.46-4.73,8.37,8.37,0,0,1,9.33.66,5,5,0,0,1,2,4.13c0,4.28-1.9,7.83-4.75,10.94a39,39,0,0,1-10.46,8.53c-2.07,1.09-4.33,1.84-6.72,2.83a144.57,144.57,0,0,0,10,21.6c.44-1.44.75-2.29,1-3.16a30.93,30.93,0,0,1,4.88-11.09,16.76,16.76,0,0,1,6.51-5.57c4.53-2.12,8.95.51,9,5.32.13,8.21-6.53,17.58-14.85,20.89l-2.5,1c2.21,3.36,4.3,6.55,6.42,9.73,1.36,2,1.29,2.51-.87,4.1a5.92,5.92,0,0,1-3.75-3.16c-1.46-2.42-2.95-4.84-4.35-7.14-.41,0-.63-.14-.75-.07-6.17,3.63-12.84,4.06-19.78,2.78a14.28,14.28,0,0,1-2.93-.73c-5.49-2.32-6.26-8.64-1.49-12.13a12.11,12.11,0,0,1,7.82-2.15,32.64,32.64,0,0,1,9.26,1.47,16.38,16.38,0,0,0,1.88.4c-3-6.81-5.95-13.28-8.91-19.87-1.27.23-2.51.54-3.77.66a35.62,35.62,0,0,1-14.79-1.29,30.49,30.49,0,0,1-7.19-3.83c-2.3-1.55-4.11-3.62-3.49-6.64.67-3.3,3.05-5.13,6.29-6a15.63,15.63,0,0,1,10.76,1.21c2.86,1.33,5.63,2.81,8.6,4.3q-1.8-8-3.57-15.84c-9.38.28-15.89-4.52-21.66-10.39a21.76,21.76,0,0,1-4.24-7c-1.65-4,.7-10.1,7.74-10a6.87,6.87,0,0,1,4,1.47c3.07,2.65,6,5.49,8.77,8.4a32.93,32.93,0,0,1,3.09,4.66c-.5-8.54-1-16.49-1.43-24.59-2.74-.7-5.57-1.49-7.83-3.43-4.46-3.83-8.08-8.32-9.95-13.69-1.48-4.24-1.42-8.7,2.28-12.3a5.94,5.94,0,0,1,7.33-1,9.54,9.54,0,0,1,2.52,2c2.64,3.06,5.14,6.21,6.31,10.11a2.48,2.48,0,0,0,1.22,1.37q2.08-9.39,4.17-18.74c-.08-.1-.12-.22-.19-.24-7.17-1.94-10.42-7.49-13.14-13.28a36.06,36.06,0,0,1-2.74-9.32c-.81-4.79-.06-9.3,4.4-12.52,3.33-2.42,6.38-2.21,8.94.9A27.2,27.2,0,0,1,369.79,486c.45,2.31.84,4.62,1.35,7.45,2.78-6.59,5.37-12.71,8-19,0,.08,0-.14-.08-.24-4.74-4.29-6.18-9.74-6.4-15.72a19,19,0,0,1,4.48-13.72,13.69,13.69,0,0,1,2.82-2.49c2.16-1.42,3.8-1,4.95,1.24a22.53,22.53,0,0,1,2,9.71C387.07,455.63,387,458.07,387,461.06ZM368.46,501.3c1.18-.91.94-2,.79-3-.69-4.49-1.31-9-2.23-13.45a22.66,22.66,0,0,0-4.7-9.41c-1.7-2.12-3.22-2.18-5.43-.56a7.53,7.53,0,0,0-3.16,6.42c0,8.15,3.25,15.14,9.12,21.05a3.22,3.22,0,0,0,3.06,1.24c-.43-1-.78-1.73-1.15-2.51-1.08-2.31-2.19-4.62-3.27-6.94-.52-1.13-.94-2.28.16-3.63C364.59,493.82,365.6,498.06,368.46,501.3Zm.65,38.16.55.5c2.77-1.55,5.59-3,8.31-4.66a40.13,40.13,0,0,0,9.67-7.4,9.61,9.61,0,0,0,2.86-5.29c.28-2.61-.73-3.83-3.49-3.93a14.77,14.77,0,0,0-11.75,4.93,100.47,100.47,0,0,0-6.93,8.86,7.81,7.81,0,0,0-1.62,4.41c2.55-2.48,4.75-4.71,7.06-6.83,1.54-1.43,1.92-1.35,3.87.41Zm-9.43,0c-1.5-2.07-2.74-3.76-3.95-5.47a14.05,14.05,0,0,1-1.71-2.67,2.27,2.27,0,0,1,1-3.25,35.52,35.52,0,0,0,6.33,8,6.82,6.82,0,0,0-.24-4.78c-.88-2-1.56-4.11-2.38-6.15a24.52,24.52,0,0,0-6.17-8.62c-2.18-2.05-4.38-1.8-5.95.65a8.69,8.69,0,0,0-1.23,3.42,11.11,11.11,0,0,0,1.21,6.62,33.67,33.67,0,0,0,7.59,9.6C355.52,538.11,357,539.45,359.68,539.5Zm3,35.08.38-.33c-1.23-2.22-2.43-4.46-3.73-6.65a13.79,13.79,0,0,0-2.24-3c-2.62-2.47-5.27-4.91-8.05-7.2a4.83,4.83,0,0,0-7.73,2.27A5.26,5.26,0,0,0,342,564c3.19,6,8.48,9.78,14.79,12.43a26.47,26.47,0,0,0,2.66.83,31.55,31.55,0,0,0-5-4.74c-.49-.4-1.05-.73-1.49-1.17-.63-.61-1-1.47-.26-2.08a2.46,2.46,0,0,1,2-.21,7.72,7.72,0,0,1,2.08,1.26C358.77,571.71,360.73,573.15,362.7,574.58Zm10.83-69.82c0,.12.08.24.13.36a4.42,4.42,0,0,0,1,.05,51.68,51.68,0,0,0,16.77-5.91,63.92,63.92,0,0,0,7.77-5.85,5.45,5.45,0,0,0,1.9-4.75c-.09-1.61-.37-2.12-2.1-2.14a11.28,11.28,0,0,0-4.83.73c-3.94,1.88-7.79,4-11.52,6.21a17.68,17.68,0,0,0-5.54,5.41c1.74-.71,2.88-1.21,4.05-1.65a38,38,0,0,1,3.89-1.35,1.82,1.82,0,0,1,2.25,1.09c.41.94-.2,1.53-.95,1.92-1,.56-2.15,1-3.23,1.49ZM398.9,451.4a44.75,44.75,0,0,0,11-7,22.5,22.5,0,0,0,5.84-8.18,3.34,3.34,0,0,0-.49-3.73,3.57,3.57,0,0,0-4.1-.67c-2,.95-4.32,1.82-5.85,3.32a54.85,54.85,0,0,0-8.9,11.94,5.44,5.44,0,0,0-.39,1.41,27.23,27.23,0,0,0,4.42-4c1.18-1.22,2.31-2.49,3.55-3.66,1-.92,2-1.13,3.08.3C404.68,444.89,401.15,447.67,398.9,451.4ZM375.38,598.25l.53.33c1-1,2.11-1.93,3.15-2.91.84-.81,1.61-1.69,2.5-2.45.66-.58,1.65-.87,2.2-.13a2.37,2.37,0,0,1,0,2.08,8.67,8.67,0,0,1-1.76,2c-1.4,1.44-2.83,2.85-4.37,4.4.52.09.71.19.85.14a5.94,5.94,0,0,0,1-.46,43.13,43.13,0,0,0,10.64-9.09,12.29,12.29,0,0,0,3.16-6.88c.25-2.69-1.37-4.08-4.21-3.63a7.28,7.28,0,0,0-4.61,2.7c-2.33,2.93-4.63,5.89-6.73,9A32.9,32.9,0,0,0,375.38,598.25Zm-6.48,4.23.39-.41c-.67-.68-1.31-1.39-2-2-3-2.76-6.89-4-10.65-5.37a10.46,10.46,0,0,0-8.09,0c-2.76,1.28-4.6,3.89-.91,6.76a21.84,21.84,0,0,0,13,4.39c1.5.06,3,0,4.51,0-1.69-1.35-3.57-1.5-5.47-1.69a15.11,15.11,0,0,1-3.74-.8,2.11,2.11,0,0,1-1-1.64c0-.35.77-1,1.27-1.09a12.21,12.21,0,0,1,3.57.08C362.83,601.18,365.86,601.86,368.9,602.48Zm22.37,28.38c.62,0,.82.06,1,0a10.6,10.6,0,0,0,1.2-.64c4.9-3,7.58-7.56,9.24-12.7a13.1,13.1,0,0,0,.62-3.87c0-2.77-2.13-4-4.62-2.68a14.7,14.7,0,0,0-3.65,2.78c-3.8,4.06-5.37,9-6,14.38a9.32,9.32,0,0,0,2-2c1.05-1.44,2-3,3.16-4.31.36-.42,1.27-.42,1.93-.61a6,6,0,0,1,.3,1.87,4.58,4.58,0,0,1-.92,1.6C394.11,626.62,392.78,628.6,391.27,630.86Zm-21.19-56.6.66.51a87.13,87.13,0,0,0,6.75-5.76A29.8,29.8,0,0,0,385,554.87c.59-2.52-.5-3.48-3.17-2.93a6.54,6.54,0,0,0-2.69,1.26,24.66,24.66,0,0,0-3.27,3.19c-2.75,3.17-4.31,6.92-5.65,10.76a10.17,10.17,0,0,0-.33,1.57l.52.22c1.2-1.63,2.37-3.28,3.6-4.88.57-.74,1.37-1.33,2.37-.77s.78,1.59.29,2.33c-1.08,1.62-2.29,3.17-3.49,4.73C372.18,571.67,371.12,573,370.08,574.26ZM382.31,467c2.84-4.94,2.64-18.48-.43-22.9a9.4,9.4,0,0,0-2.15,1.86c-1.24,2-2.69,4-3.31,6.25-1.38,4.95-.53,9.88,1.26,14.65a10.15,10.15,0,0,0,1.67,2.23c-1.43-9.6-1.43-9.6.46-11.44C380.9,460.77,380.6,464.12,382.31,467Zm6,5.48a13.84,13.84,0,0,0,2,.1,66.48,66.48,0,0,0,19.26-6.19,5.55,5.55,0,0,0,2.05-2.06c1-1.56.4-2.89-1.47-3.44a8.77,8.77,0,0,0-2.45-.32,23,23,0,0,0-9.68,1.86,27.15,27.15,0,0,0-7.5,5.3c6.45-1.15,6.45-1.15,7.33.94C395.23,470.71,391.53,470.58,388.33,472.52Zm-6,160A27.51,27.51,0,0,0,367,629.78a8.24,8.24,0,0,0-3.88,1.82c-2.15,1.76-1.66,4.64.85,5.87a7.71,7.71,0,0,0,2.36.68,49.49,49.49,0,0,0,6.06.49,15,15,0,0,0,7.8-1.85,14.35,14.35,0,0,0-3.26-.16c-1.47.11-2.93.35-4.4.48-1,.09-1.92,0-2.14-1.16s.86-1.52,1.69-1.72c1.51-.35,3.09-.47,4.63-.73C378.62,633.2,380.49,632.86,382.36,632.54Z"/><path class="cls-2" d="M722.17,580.94l-3.58,16c2.89-1.45,5.62-2.86,8.39-4.18a15.4,15.4,0,0,1,10.74-1.32,11.8,11.8,0,0,1,4.1,2.05c3,2.34,3.39,5.7,1,8.62a17.39,17.39,0,0,1-8.3,5.5,34.62,34.62,0,0,1-18.56,1,7.17,7.17,0,0,0-1-.08l-8.85,19.69A11.72,11.72,0,0,0,708,628a33.77,33.77,0,0,1,9.27-1.44,12.92,12.92,0,0,1,6.17,1.21c3.74,1.76,5.56,5.22,4.36,9-.84,2.64-3.17,4.06-5.93,4.59-7.24,1.4-14.34,1.46-20.88-2.5a1.72,1.72,0,0,0-.54-.11c-3.26,3.14-3.78,8.25-8.23,10.51-2.47-1.57-2.55-2.06-1.08-4.25,2.12-3.17,4.18-6.37,6.33-9.64-.67-.31-1.06-.54-1.49-.69-9-3.26-13.54-9.9-15.58-18.41a11.25,11.25,0,0,1-.18-3.66,5.9,5.9,0,0,1,8.29-4.75,16.3,16.3,0,0,1,7.23,5.93,30.5,30.5,0,0,1,4.85,11.1c.2.83.49,1.66.89,3,4.31-7.1,7.22-14.23,10.15-21.51a6,6,0,0,0-1.26-.67,24.14,24.14,0,0,1-10.1-5.27c-3.5-2.86-7.09-5.74-8.92-9.91a20.4,20.4,0,0,1-1.62-6.3c-.26-3,2.27-5.52,5.44-5.91a9.86,9.86,0,0,1,7.76,2.07,18,18,0,0,1,3.25,3.22c2.56,3.53,5.61,6.76,7.25,10.84a14,14,0,0,0,1,1.61c1.37-1.76,3.8-11.6,4.36-17.36a28.87,28.87,0,0,1-15.48-12,34.87,34.87,0,0,1-4.91-10.81c-.56-2.2-.78-4.48,1.35-6.05a6.62,6.62,0,0,1,6.83-.67,20.22,20.22,0,0,1,5.52,3.83,29.71,29.71,0,0,1,6.85,11.3,12.48,12.48,0,0,0,1.46,2.83,101.19,101.19,0,0,0,1.52-22.48c-7.66-1.8-13.94-5.84-20.17-9.87a30,30,0,0,1-6-5.39,14.11,14.11,0,0,1-2.88-5c-1.67-5.26,2-9.31,6.93-9.18a20.09,20.09,0,0,1,15,6.8c1.38,1.52,2.51,3.25,3.79,4.86a7.52,7.52,0,0,0,1.94,1.81c-1.15-6.82-2-13.63-4.26-20.12a50.72,50.72,0,0,1-25.17-7.66,42.36,42.36,0,0,1-6.52-5.27c-2.55-2.41-3.06-5.53-2.52-8.79.32-2,1.8-3.24,4.22-3.58a15.85,15.85,0,0,1,8.9,1.31c6,2.75,11.78,5.89,16.26,10.76a5.6,5.6,0,0,0,1.14.55,113.92,113.92,0,0,0-8.34-20.49h-6.36a29.86,29.86,0,0,1-10.05-1.63c-3.28-1.18-6.64-2.15-9.92-3.34a10.92,10.92,0,0,1-5.44-3.9c-2.5-3.62-1-7.68,3.46-8.54a23.34,23.34,0,0,1,17.16,3.4c1.75,1.09,3.35,2.4,5.23,3.46-1.45-3.6-4.33-6.39-6-10-3.81.89-6.89-.48-9.8-2.5-.74-.51-1.55-.94-2.34-1.39A31.41,31.41,0,0,1,669,440.12a9.87,9.87,0,0,1-1.61-6.78c.38-2.84,2.24-4.58,5.25-4.93,4.66-.54,8.33,1.46,11.36,4.43a70.43,70.43,0,0,1,6.12,7.45,32.48,32.48,0,0,1,2.77,4.24c1.61,2.92,2.9,5.92,1.1,9.47l5.4,6.71.49-.15c0-.55,0-1.1,0-1.65a35.86,35.86,0,0,1,.44-11,22.42,22.42,0,0,1,1.62-4.71c.91-1.86,2.48-2.24,4.35-1.21a9.76,9.76,0,0,1,2.37,1.8,17.48,17.48,0,0,1,5.28,12.1,55.44,55.44,0,0,1-.23,6,18.37,18.37,0,0,1-6.25,12.33l8.05,19.12c.5-2.61,1-4.76,1.31-6.94a30.78,30.78,0,0,1,4.77-11.67,10.48,10.48,0,0,1,1.57-1.83,5.74,5.74,0,0,1,7.51-.84,10.65,10.65,0,0,1,5.44,9.51,29.79,29.79,0,0,1-.8,6.75,32.57,32.57,0,0,1-8.13,15.31c-1.63,1.81-2.53,2.33-7.36,4.23,1.39,6.25,2.78,12.53,4.29,19.37a11.8,11.8,0,0,0,1.14-1.93,27.25,27.25,0,0,1,6.53-10.28c3.72-4,8.62-3.35,11.32,1.35a11.64,11.64,0,0,1,.56,10.21,30.1,30.1,0,0,1-10.71,14.07c-2,1.43-4.54,2.21-7.06,3.39-.45,7.59-.93,15.59-1.42,23.88.38-.38.68-.57.81-.84,2.48-5.12,7.07-8.53,11.32-12.1,4-3.36,10.91-.54,11.72,4.62a8.82,8.82,0,0,1-.58,4.85c-4,8.45-11,13.63-20.24,16.27a11.28,11.28,0,0,1-2.45.39A27.26,27.26,0,0,1,722.17,580.94Zm-1.51-77.18a5.53,5.53,0,0,0,3.88-2.08A30.9,30.9,0,0,0,732.88,484c.4-3.09.13-6.17-2.42-8.56s-4.61-2.32-6.55.56a29.28,29.28,0,0,0-3.57,6.77,61.74,61.74,0,0,0-3,16.22,10.46,10.46,0,0,0,.33,2.19c3.27-3.15,4.44-7.32,7.23-10.68,1.28,1.38.72,2.6.17,3.79C723.69,497.35,722.26,500.37,720.66,503.76Zm-1,32.84.49-.16a19.94,19.94,0,0,0-1.71-3.75,82.58,82.58,0,0,0-7.25-9.28,14.53,14.53,0,0,0-12.12-4.69c-2,.18-2.94,1.21-3,3.12a7,7,0,0,0,2.08,5,38.46,38.46,0,0,0,6,5.43c3.92,2.62,8.09,4.9,12.17,7.3a3.16,3.16,0,0,0,.94.23l.28-.37-8.54-9c2-1.76,2.33-1.83,3.9-.39C715.21,532.19,717.41,534.42,719.66,536.6Zm7.58,2.52.44.51a14.76,14.76,0,0,0,2.79-1.27,28.53,28.53,0,0,0,9.92-12,13.34,13.34,0,0,0,.79-5.89,8.19,8.19,0,0,0-1.83-4c-1.17-1.52-2.74-1.6-4.4-.54a10,10,0,0,0-1.64,1.4c-4.5,4.34-6.35,10-8.25,15.53a8.64,8.64,0,0,0,.05,2.95l.65.18,6.13-7.75c1.08,1.47,1.29,2,.77,3.1a16.84,16.84,0,0,1-1.72,2.67C729.73,535.73,728.48,537.42,727.24,539.12Zm-.66,38a9.56,9.56,0,0,0,1.52-.1,31.26,31.26,0,0,0,14-9.1,19.42,19.42,0,0,0,3.13-5.22,4.52,4.52,0,0,0-1.77-5.58,5,5,0,0,0-6.09.49c-1.39,1.15-2.64,2.47-4.07,3.56a26.4,26.4,0,0,0-8,9.93c-.51,1.1-1.11,2.16-1.66,3.25,2.63-1.46,4.87-3.13,7.18-4.7.92-.63,2-1.55,3.15-.39.71.71.23,1.68-1.21,2.79-.35.27-.74.51-1.09.8ZM712.9,505.38c.05-.13.1-.26.14-.39-.16-.17-.29-.42-.5-.51-3.07-1.41-6.15-2.79-9.23-4.18-.92-.41-1.87-.76-2.75-1.24s-1.67-1-1.23-2.05a1.86,1.86,0,0,1,2.48-1.1c1.57.49,3.09,1.13,4.63,1.72.84.32,1.67.66,2.51,1a2.12,2.12,0,0,0-.66-1.41c-4.52-4.85-10.35-7.84-16.54-10.23a13.23,13.23,0,0,0-4.61-.39c-1.08,0-1.54.71-1.61,1.76a6.73,6.73,0,0,0,2.22,5.44c5,5,11.44,7.88,18.28,9.93C708.28,504.4,710.61,504.84,712.9,505.38Zm-22.65-56.64.5-.36a8.33,8.33,0,0,0-.5-1.43,67.39,67.39,0,0,0-8.73-11.76,12.25,12.25,0,0,0-6.38-3.49c-3-.66-5,1.07-4.31,3.95a12.51,12.51,0,0,0,1.53,3.33c3.28,5.7,8.88,9,14.45,12.25a6.63,6.63,0,0,0,1.38.35c-2.59-4-6.45-6.64-8.46-10.43.76-1.16,1.61-1.22,2.49-.63a10.35,10.35,0,0,1,1.6,1.43Q687,445.34,690.25,448.74ZM708.46,602l.42-.5c-1.61-1.62-3.25-3.22-4.82-4.87a8.64,8.64,0,0,1-1.53-2.14,1.47,1.47,0,0,1,.35-1.36,1.7,1.7,0,0,1,1.49-.21,10.75,10.75,0,0,1,2.3,1.84,22.11,22.11,0,0,0,4.34,3.71,1.85,1.85,0,0,0-.12-1.08c-1.95-4.8-5.23-8.82-8.53-12.81a7.13,7.13,0,0,0-2-1.75,10.06,10.06,0,0,0-3.32-1.17c-2.45-.27-4,1.13-3.62,3.42a13.84,13.84,0,0,0,1.42,4.46c2.21,4.18,5.91,7.11,9.67,10C705.72,600.38,707.13,601.12,708.46,602Zm9,.1.33.55c1.13-.28,2.25-.64,3.41-.84,2.71-.48,5.42-.93,8.15-1.29,1-.14,2.23,0,2.44,1.17s-.92,1.8-2,2-2.18.33-3.27.46c-1.71.22-3.44.35-4.9,1.38a33.48,33.48,0,0,0,6.07.17,20.24,20.24,0,0,0,11.8-4.62c2.44-2.09,2.25-4.36-.56-6a7.67,7.67,0,0,0-3.08-1,14.45,14.45,0,0,0-7,1.06c-1.35.56-2.75,1-4.07,1.62A19.94,19.94,0,0,0,717.43,602.05Zm-20.16,26.2.65-.36c-.84-4.77-2.23-9.38-5.49-13.22a17.82,17.82,0,0,0-4.56-3.74c-2.31-1.33-4.39,0-4.52,2.56a8.63,8.63,0,0,0,.16,2.09,23.62,23.62,0,0,0,7.18,12.77,9.2,9.2,0,0,0,4.38,2.47c-1.1-2.05-2.36-3.94-3.6-5.84a8.94,8.94,0,0,1-1.19-2.06c-.16-.5.13-1.12.21-1.68.67.13,1.51.07,2,.43a12.37,12.37,0,0,1,1.82,2.3C695.28,625.39,696.27,626.82,697.27,628.25Zm19.09-59.31.54-.26c-.4-1.19-.78-2.39-1.22-3.58a26.85,26.85,0,0,0-6.77-10.72A10.69,10.69,0,0,0,705,552c-2.7-.81-3.84.29-3.38,2.93a10.13,10.13,0,0,0,.36,1.54,31.79,31.79,0,0,0,12.8,17.31c.47.31,1,.53,1.51.8a24.85,24.85,0,0,0-3-4.48c-1.14-1.49-2.3-3-3.3-4.54-.48-.74-.74-1.85.39-2.25a2.92,2.92,0,0,1,2.13.63c.56.39.81,1.16,1.25,1.72C714.58,566.76,715.47,567.85,716.36,568.94Zm-9.43-99.72c6.42-5.51,4.82-21.43-2.3-24.84-3,4.16-3.1,19,.07,22.69.75-3.24,1.45-6.28,2.15-9.32l.76.1C709.25,461.61,707.41,465.33,706.93,469.22Zm-9.1,3.57c-2.71-2.22-6.42-2.08-9.1-4.09.85-1.94,1.23-2.19,3-1.84,1.24.23,2.45.62,3.68.95-3-3.42-6.56-5.95-11.09-6.64a31.26,31.26,0,0,0-7.67-.24c-2.2.22-2.87,2-1.56,3.67a7.77,7.77,0,0,0,3.11,2.46q6.76,2.61,13.72,4.8A40,40,0,0,0,697.83,472.79ZM704.41,632c0,.21,0,.41,0,.62l5.64.93c1.63.27,3.29.46,4.87.88a2.1,2.1,0,0,1,1.29,1.42c.11.93-.73,1.34-1.67,1.29-1.11-.05-2.2-.21-3.3-.29-1.58-.12-3.17-.2-4.75-.29.16.55.35.74.58.83,4.74,1.86,9.59,1.23,14.43.56a3.16,3.16,0,0,0,.79-.25c3-1.24,3.54-4.51.93-6.31a10.06,10.06,0,0,0-4.8-1.73A34.28,34.28,0,0,0,704.41,632Z"/><path class="cls-3" d="M595,539.89a37,37,0,0,1,4.31-.41c4.89.08,9.79.3,14.68.39a190,190,0,0,1,24.52,2.32c4.37.64,8.8,1,13.22,1.33,7.17.62,14.35,1.15,21.53,1.75a11,11,0,0,1,3,.52,2.27,2.27,0,0,1,1.36,1.39c.14.92-.73,1.34-1.62,1.42a13.85,13.85,0,0,1-2.49.07c-11.31-1-22.63-2-33.93-3.15-5-.51-10-1.54-15.07-2.06-8-.81-16-1.36-24-2.06-1.8-.16-3.59-.47-5.39-.71Z"/><path class="cls-3" d="M488.38,540.57c-1.67.27-3.32.64-5,.79-8.28.73-16.57,1.33-24.85,2.12-4.12.4-8.21,1.21-12.33,1.67-6.51.73-13,1.35-19.56,2q-8.13.79-16.28,1.47a13.25,13.25,0,0,1-3.56-.17,1.89,1.89,0,0,1-1.07-1.31c-.06-.33.47-1,.89-1.15a12.24,12.24,0,0,1,2.95-.65c4.41-.41,8.83-.76,13.24-1.14,9.75-.85,19.5-1.48,29.19-3,5.72-.88,11.58-1,17.39-1.3,4.89-.26,9.79-.34,14.68-.42a38.54,38.54,0,0,1,4.27.41C488.35,540.12,488.36,540.34,488.38,540.57Z"/><path class="cls-3" d="M669,532.63c-.5,2.23-2,2.42-3.32,2.44a71.58,71.58,0,0,1-7.75-.25c-3.77-.34-7.51-1-11.28-1.3-5.61-.46-11.24-.74-16.87-1.09q-13.69-.82-27.4-1.66c-1.33-.09-2.64-.35-4-.53,0-.23,0-.45,0-.68a32.36,32.36,0,0,1,3.87-.6,289.72,289.72,0,0,1,31.6.76c.65,0,1.3.11,1.94.09,6.32-.24,12.53.75,18.79,1.32,3.49.32,7,.43,10.5.72A35.66,35.66,0,0,1,669,532.63Z"/><path class="cls-3" d="M414.38,532.82a14.53,14.53,0,0,1,2.91-.9c8.19-.71,16.37-1.52,24.58-2,10.05-.54,20.13-.83,30.2-1.1,3.6-.1,7.21.14,10.81.28a4.7,4.7,0,0,1,2.07.73,10,10,0,0,1-4.37.93c-11,.72-21.94,1.67-32.93,2-7.53.23-14.88,1.58-22.34,2.08-2.49.16-5,.26-7.48.22C416.47,535.07,415,534.93,414.38,532.82Z"/><path class="cls-3" d="M483.59,520.17a21.49,21.49,0,0,1-3.38.33c-3.78-.21-7.55-.51-11.33-.83q-18.08-1.51-36.15-3.07c-4.87-.41-9.75-.79-14.62-1.24a6.75,6.75,0,0,1-2.64-.65,1.93,1.93,0,0,1-.85-1.68,2,2,0,0,1,1.57-1c2.77.13,5.52.46,8.28.7,5.7.49,11.4.92,17.1,1.47,7.53.72,15.06,1.44,22.57,2.33,5.58.66,11.13,1.59,16.68,2.42.95.14,1.87.39,2.81.6C483.62,519.74,483.61,520,483.59,520.17Z"/><path class="cls-3" d="M599.75,519.45c2.79-.51,5.55-1.17,8.36-1.51,9.52-1.16,19-2.31,28.58-3.29,9.36-1,18.74-1.7,28.12-2.53a11,11,0,0,1,2.48-.13c.54.08,1.37.56,1.41.93a2.32,2.32,0,0,1-.76,1.74,3.33,3.33,0,0,1-1.79.55c-2.94.32-5.87.63-8.82.88q-18.08,1.56-36.15,3.07c-5.61.47-11.22.93-16.84,1.32-1.51.11-3.11.32-4.53-.42Z"/><path class="cls-3" d="M481.41,503.08a20,20,0,0,1-3-1.05c-4.27-2.25-8.47-4.64-12.76-6.85-11.11-5.71-22.27-11.34-33.39-17-1.86-.95-3.65-2.05-5.41-3.17a4.59,4.59,0,0,1-1.68-1.68,2.07,2.07,0,0,1,.26-1.85c.24-.31,1.14-.24,1.73-.19a2,2,0,0,1,.94.53c3.26,2.48,7,4.17,10.66,6.06,6.81,3.52,13.37,7.46,20.25,10.84,7.25,3.55,13.92,7.93,20.73,12.12a13.05,13.05,0,0,1,1.53,1.12,2,2,0,0,1,.39.64C481.59,502.74,481.5,502.91,481.41,503.08Z"/><path class="cls-3" d="M601.5,502.37c.84-.62,1.66-1.28,2.53-1.85a234.32,234.32,0,0,1,23.67-13.59c7.52-3.73,14.87-7.78,22.25-11.74,1.68-.91,3.21-2.06,4.82-3.09a4.45,4.45,0,0,1,1.38-.84c.57-.12,1.49-.14,1.73.17a2.06,2.06,0,0,1,.27,1.85,4.3,4.3,0,0,1-1.68,1.68c-1.93,1.19-3.89,2.34-5.91,3.4-6.15,3.19-12.32,6.34-18.49,9.5-5.28,2.7-10.59,5.35-15.85,8.09-3.8,2-7.52,4.09-11.31,6.08a22.5,22.5,0,0,1-3,1.06Z"/><path class="cls-3" d="M604.21,509.12a29.68,29.68,0,0,1,2.84-1.23c15.19-4.93,30.63-9,46.23-12.65,3.22-.75,6.37-1.76,9.56-2.65a5,5,0,0,1,1.58-.4c.57.06,1.45.34,1.57.71a2,2,0,0,1-.37,1.83,10.31,10.31,0,0,1-3.23,1.38c-7.77,1.89-15.57,3.66-23.33,5.57-8.39,2.07-16.75,4.27-25.13,6.35-3.1.76-6.25,1.35-9.38,2C604.44,509.74,604.32,509.43,604.21,509.12Z"/><path class="cls-3" d="M478.91,509.68c-1.82.37-3.58-.25-5.29-.66-6.43-1.57-12.8-3.35-19.23-4.9-8.4-2-16.85-3.88-25.26-5.87-3.13-.74-6.22-1.62-9.32-2.46a3.8,3.8,0,0,1-1.73-.75,2.9,2.9,0,0,1-.84-2c.14-.94,1.13-1,2-.83s1.93.6,2.91.85c9.52,2.44,19.08,4.75,28.56,7.33,8.6,2.35,17.1,5,25.64,7.5a24.89,24.89,0,0,1,2.72,1.15C479,509.26,479,509.47,478.91,509.68Z"/><path class="cls-3" d="M481.91,489.15a27.7,27.7,0,0,1-3.41-1.4q-18.37-10.51-36.7-21.11c-2.06-1.18-4.12-2.34-6.15-3.56a31,31,0,0,1-2.91-2c-.87-.67-1.32-1.47-.39-2.46s1.72-.68,2.66,0c2.91,2,5.79,4.06,8.8,5.91,9.14,5.63,18.36,11.13,27.5,16.76,3.48,2.14,6.83,4.46,10.23,6.72a3.85,3.85,0,0,1,.63.75Z"/><path class="cls-3" d="M651.75,460a30.48,30.48,0,0,1-3.24,2.57q-6.64,4-13.4,7.91-14.68,8.44-29.42,16.8c-1.31.75-2.75,1.29-4.13,1.93l-.33-.42a4.88,4.88,0,0,1,.88-1c3.72-2.44,7.41-4.92,11.19-7.26,10.6-6.55,21.24-13,31.85-19.57,1-.61,1.9-1.38,2.85-2.08C649.82,457.52,650.11,457.59,651.75,460Z"/><path class="cls-3" d="M604.24,655.5c1,.16,1.92.26,2.86.47,5.38,1.19,10.75,2.43,16.14,3.6q11,2.4,22.12,4.72c2,.41,4,.62,6,1a6.48,6.48,0,0,1,2.11.53c.46.26,1,1,.89,1.4a2.09,2.09,0,0,1-1.27,1.39,8.48,8.48,0,0,1-3.29-.11q-11.94-2.79-23.85-5.72c-4.73-1.15-9.47-2.31-14.15-3.62-2.28-.64-4.46-1.65-6.67-2.51a6.2,6.2,0,0,1-1-.67Z"/><path class="cls-3" d="M479.23,656.06a30.18,30.18,0,0,1-2.87,1.37c-2.67.94-5.33,2-8.09,2.67-11.42,2.82-22.87,5.52-34.31,8.25a12.22,12.22,0,0,1-2.18.34c-1.88.11-2.66-.27-2.87-1.34s.42-1.62,2.34-2c1.54-.28,3.1-.45,4.63-.76,6.85-1.4,13.68-2.85,20.53-4.26,3.15-.64,6.33-1.18,9.47-1.87,3.32-.73,6.6-1.61,9.91-2.4,1-.25,2.12-.42,3.18-.62C479.06,655.66,479.15,655.86,479.23,656.06Z"/><path class="cls-3" d="M598.15,669.2a29.09,29.09,0,0,1,2.94,1q19,8.73,38.07,17.51a15,15,0,0,1,2.9,1.51,1.93,1.93,0,0,1,.65,1.76c-.16.41-1.16.77-1.76.74a6.65,6.65,0,0,1-2.3-.8c-7.11-3.35-14.22-6.68-21.28-10.11q-7.38-3.59-14.58-7.47a50.5,50.5,0,0,1-5-3.51Z"/><path class="cls-3" d="M485.39,669.6a5.29,5.29,0,0,1-1,1.1,71.68,71.68,0,0,1-7.14,4.48c-10.88,5.37-21.83,10.6-32.77,15.85a8.12,8.12,0,0,1-2.61.73,1.57,1.57,0,0,1-1.27-.72,1.43,1.43,0,0,1,.24-1.4,13,13,0,0,1,2.78-1.66c6.74-3.05,13.54-6,20.26-9.08,6-2.75,11.87-5.64,17.81-8.43,1.11-.52,2.29-.88,3.43-1.32Z"/><path class="cls-3" d="M590.34,680.83c.88.72,1.77,1.43,2.62,2.18q13.31,11.67,26.59,23.36c1.15,1,2.28,2,3.35,3.14a1.59,1.59,0,0,1,.15,2.37c-.84.87-1.7.4-2.41-.23-1.68-1.5-3.36-3-5-4.55Q604.33,696.32,593,685.5a46.68,46.68,0,0,1-3.37-4Z"/><path class="cls-3" d="M493.57,681.29a18.75,18.75,0,0,1-1.72,2.47c-2.36,2.46-4.75,4.89-7.22,7.24-6.76,6.45-13.57,12.86-20.36,19.28a10.6,10.6,0,0,1-2.1,1.69,2,2,0,0,1-1.72,0,1.69,1.69,0,0,1-.45-1.6,5.2,5.2,0,0,1,1.44-1.85c3.3-2.93,6.66-5.79,10-8.71q9.91-8.76,19.82-17.56a22.34,22.34,0,0,1,1.85-1.34Z"/><path class="cls-3" d="M607.8,646.35a30.4,30.4,0,0,1,8.1-1.19c4.52-.33,9.05-.35,13.57-.61,4.79-.27,9.58-.68,14.37-1a4.73,4.73,0,0,1,2.17.12,2.28,2.28,0,0,1,1.13,1.54c.05.37-.62,1.08-1.09,1.21a18.23,18.23,0,0,1-3.81.61c-4.43.22-8.85.41-13.28.52-2.22.05-4.44-.11-6.65-.13-2.68,0-5.36.05-8,0-2.16,0-4.32-.17-6.48-.26C607.8,646.89,607.8,646.62,607.8,646.35Z"/><path class="cls-3" d="M597.27,551a13.24,13.24,0,0,1,2.4-.3c6.62.33,13.26.34,19.8,1.7,3.5.72,7.13.86,10.7,1.28.45,0,1.05,0,1.32.24a3.09,3.09,0,0,1,1,1.61,1.24,1.24,0,0,1-1.2,1.49,14.38,14.38,0,0,1-3.28-.07c-5.61-1-11.2-2.14-16.83-3.06-3.72-.62-7.49-.92-11.24-1.42a25.41,25.41,0,0,1-2.79-.72C597.21,551.45,597.24,551.2,597.27,551Z"/><path class="cls-3" d="M486.61,551c-1.91,1.73-3.8,1.62-5.44,1.73-6.56.44-12.92,1.92-19.36,3-2.17.38-4.34.77-6.52,1.14a13.53,13.53,0,0,1-2.2.2c-1.18,0-2.21-.26-2.33-1.65-.09-1.09.53-1.64,2.14-1.83,1.37-.17,2.74-.3,4.11-.47,8.77-1.11,17.49-2.59,26.38-2.51C484.28,550.67,485.17,550.84,486.61,551Z"/><path class="cls-3" d="M501.61,695.56a9.94,9.94,0,0,1-1,2.25q-4.49,5.84-9.09,11.56c-1.46,1.81-3,3.55-4.56,5.28-.81.9-1.75,1.69-2.65,2.56-1.78-1.19-1.34-2.27-.48-3.3,1.61-1.92,3.27-3.8,4.92-5.69,3.07-3.5,6.13-7,9.24-10.47.86-1,1.88-1.81,2.83-2.71Z"/><path class="cls-3" d="M599.2,717.26a25.07,25.07,0,0,1-2.51-2.2c-3.73-4.34-7.44-8.7-11.08-13.11a48.63,48.63,0,0,1-3.34-4.82,2.3,2.3,0,0,1,0-2,20.39,20.39,0,0,1,2.53,2c4.07,4.52,8.1,9.09,12.11,13.66.95,1.07,1.84,2.2,2.72,3.32C600.41,715.07,600.57,716,599.2,717.26Z"/><path class="cls-3" d="M613.39,636.18c3.06-1.74,6.11-2.36,9.09-3.13a15.89,15.89,0,0,1,3-.47,1.57,1.57,0,0,1,1.84,1.23,1.46,1.46,0,0,1-1.12,1.83c-.09,0-.16.1-.25.11-3.83.39-7.66.78-11.49,1.14C614.25,636.91,614,636.61,613.39,636.18Z"/><path class="cls-3" d="M447,451a19.46,19.46,0,0,1-7.62-4.48c-.81-.77-.3-1.69.87-1.86,2.27-.33,7.07,3.5,7.18,5.73C447.47,450.48,447.38,450.55,447,451Z"/><path class="cls-3" d="M636,451.1a2.93,2.93,0,0,1,1.22-3.62,41.3,41.3,0,0,1,4.2-2.52,2.94,2.94,0,0,1,1.59-.25c1.18.1,1.67,1.07.86,1.84A19.72,19.72,0,0,1,636,451.1Z"/><path class="cls-3" d="M574.44,705.45a25.11,25.11,0,0,1,1.29,2.16c.8,1.75,1.56,3.53,2.28,5.32a4.09,4.09,0,0,1,.34,1.74,1.33,1.33,0,0,1-.79.93,1.56,1.56,0,0,1-1.18-.31,2.18,2.18,0,0,1-.8-1c-.8-2.32-1.58-4.64-2.24-7-.14-.49.25-1.12.39-1.68Z"/><path class="cls-3" d="M506,716.33c-.51-1-1.24-1.81-1-2.24,1.23-2.87,2.65-5.67,4-8.48a2.41,2.41,0,0,1,.59,0c.13.55.57,1.25.39,1.76C509,710.2,508.83,713.37,506,716.33Z"/><path class="cls-4" d="M551.62,607.6,557,625c1,0,2.18,0,3.34,0a7.31,7.31,0,0,1,2.45.21,2.32,2.32,0,0,1,1.17,1.54c0,.35-.7.87-1.18,1.21a2.12,2.12,0,0,1-1.06.21c-3.14.16-6.27.31-9.41.44a2.46,2.46,0,0,1-1.35-.12,3.85,3.85,0,0,1-1.53-1.61c-.29-.9.54-1.41,1.4-1.64.6-.16,1.24-.22,2.2-.38-1-5.53-3.63-10.48-4.56-16.12l-3.67.28c-1.09.08-2.18.13-3.44.2-.54,4.81.19,9.46.86,14.16a18.74,18.74,0,0,1,2.4.8c1.3.62,1.36,1.72.11,2.38a4.92,4.92,0,0,1-2.09.58c-3.87.1-7.75.18-11.62.16-1.26,0-2.88,0-3.24-1.49-.4-1.63,1.5-1.71,2.64-2.62-.18-11.7-.37-23.57-.56-35.71a16.28,16.28,0,0,1,3-1,52.64,52.64,0,0,1,19.82.43,12.41,12.41,0,0,1,7.27,4.06c4.07,5,2.35,11.83-3.77,14.9C554.82,606.42,553.42,606.87,551.62,607.6Zm-10.53-2.71c2.61-.23,5.18-.33,7.69-.73a22.57,22.57,0,0,0,5.77-1.55,6.49,6.49,0,0,0,4.12-6.05c0-2.56-1.65-4.31-4-5.52-3.7-1.88-7.78-1.93-11.8-2.31a10.44,10.44,0,0,0-2,.16c0,5.09,0,10,0,14.85A6.36,6.36,0,0,0,541.09,604.89Zm-3.58-16c-4.06-.36-4.5,0-4.49,3.21s0,6.63.06,9.94a22.88,22.88,0,0,0,.29,2.42c4.08.17,4.45-.14,4.33-3.46-.06-1.84-.15-3.68-.18-5.51C537.49,593.35,537.51,591.19,537.51,588.91Z"/><path class="cls-4" d="M614.94,608.78c.88-2.55.44-4.91.21-7.21-.36-3.65-1-7.28-1.5-10.92-.25-1.81-1-3.12-3.13-3.45-.58-.09-1.44-.77-1.48-1.22a1.92,1.92,0,0,1,1.15-1.54,85.36,85.36,0,0,1,8.71-1.26c.5,0,1.36.83,1.58,1.44.12.34-.67,1.13-1.22,1.47a10.71,10.71,0,0,1-2.34.72c.72,8.78,1.45,17.61,2.16,26.32,2.32.71,2.32.71,2.89,2.33-2.34,1.56-5.15,1.68-7.84,2.12a1.77,1.77,0,0,1-1.5-.75c-.15-.39.32-1.05.62-1.53.17-.27.54-.42.94-.72-3.27-5-4.44-10.87-8.05-16-.61,2.67.23,9.95,1.86,17.45l3.23,2a2.73,2.73,0,0,1-2.31,2.27c-3.51.74-7,1.55-10.51,2.28a8,8,0,0,1-2.71.2,1.9,1.9,0,0,1-1.35-1.06c-.1-.38.43-1.05.85-1.38a26.13,26.13,0,0,1,2.62-1.57q-1.61-12.71-3.25-25.68a18.24,18.24,0,0,1-2.58-.19c-1.22-.26-1.52-1.43-.53-2.14a6.34,6.34,0,0,1,2.45-1.15c3.89-.71,7.8-1.32,11.72-1.88,1-.15,2.56-.38,2.79,1,.26,1.56-1.33,1.57-2.48,1.79l-1.43.32C608,596.8,611.38,602.65,614.94,608.78ZM597.87,593.2c.38,2.26.67,4.25,1.07,6.22s-.39,4,1,5.77l3-.75c.32-3.55-.67-9.81-1.87-11.82Z"/><path class="cls-4" d="M567.33,607.79a94.63,94.63,0,0,1,1.36-10.1,24.53,24.53,0,0,1,3-7,8,8,0,0,1,12.12-1.52,15.72,15.72,0,0,1,2.9,3.15c6,9.28,6.53,21.34-.78,30.23-3.89,4.74-12,3.58-14.75-.45a21.28,21.28,0,0,1-3.51-10.37c-.1-1.3,0-2.62,0-3.93Zm12.33,14.46c1.46.45,2.19-.36,2.93-1.16,7.79-8.35,6.46-19,1.06-27.2a24.67,24.67,0,0,0-2.45-2.58A161.18,161.18,0,0,0,579.66,622.25Zm-4-30.81c-3.48,4.1-5.34,12.64-3.91,16.84l3.79-.85c.32-4.47.68-9,.92-13.49A8.55,8.55,0,0,0,575.64,591.44Z"/><path class="cls-4" d="M494.06,586.72l1.44,2.75L515.9,588c0-1.12,0-2.23,0-3.34a1.55,1.55,0,0,1,1.63-1.74c1.1,0,1.35.86,1.46,1.62.3,2.16.55,4.33.68,6.5a1.78,1.78,0,0,1-.83,1.43,1.92,1.92,0,0,1-1.7-.19c-1.33-1.2-2.76-1.18-4.64-.66.28,9.31.23,18.63.85,28a21.58,21.58,0,0,1,2.73.37,1.63,1.63,0,0,1,1.35,2c-.17,1-.84,1.16-1.83,1.14-5.26-.14-10.52-.2-15.78-.31a4.33,4.33,0,0,1-1.9-.23c-.57-.31-1.25-1-1.26-1.47s.83-1.06,1.42-1.23a21.44,21.44,0,0,1,3.18-.49V591.87l-5.39.29a18.84,18.84,0,0,1-.42,3.34,2.18,2.18,0,0,1-1.37,1.35,2,2,0,0,1-1.57-1.07,45,45,0,0,1-1.08-6.69C491.32,587.74,492.25,586.84,494.06,586.72Zm9.51,18.95c2,1.49,3.71.5,5.47.39V591.33l-5.47.35Z"/><path class="cls-4" d="M482.25,602.46c-2.19-2.31-.73-4.6-1.17-6.79h-4.51a9.62,9.62,0,0,0,2,4.87c2.13,2.74,4.28,5.48,6.27,8.31a13.68,13.68,0,0,1,1.65,13.52,5.83,5.83,0,0,1-1.51,2.45c-3.12,2.48-6.54,4.1-10.88,3.42-4-.61-7.22-2.06-9.15-5.68l-2.77.68c-.14-1-.61-1.88-.33-2.53,1-2.41,3.34-3.69,5.63-4.82,1-.5,2.17,1,1.71,2.24a10.47,10.47,0,0,1-1.27,2,6.53,6.53,0,0,0,8,2.07c1.27-.64,2.12-1.54,1.76-2.94a15.56,15.56,0,0,0-1.66-4.64c-1.54-2.37-3.54-4.48-5.22-6.77a38.09,38.09,0,0,1-3.77-5.77,6.37,6.37,0,0,1,2.37-8.37,7,7,0,0,1,3.3-1.1,40.66,40.66,0,0,1,5.5.31c1.38.13,2.61.38,3.77-.85a1.55,1.55,0,0,1,2.71,1.09,54.86,54.86,0,0,1-.66,7.57C483.86,601.29,483,601.77,482.25,602.46Zm-1.05,6.41c-.7-1-1.33-1.9-2-2.8-2.12-2.83-4.58-5.49-4.75-9.22,0-.58-.17-1.15-.25-1.7-4.21.1-6.23,2.91-4.16,6.15,2.17,3.39,5,6.43,7.45,9.58Z"/><path class="cls-4" d="M641.69,600.21c-2.89-.92-1.42,2.25-2.94,2.56-2.39-1.81-2.77-4.75-.67-6.64l1.42,1.64a14.84,14.84,0,0,1,1.55-.08c2,.06,2.64.63,2.93,2.45,1.12,7-3.45,10.82-9.56,11.12-3.81.19-6-2-7.51-4.85a18.84,18.84,0,0,1-2-6,30.8,30.8,0,0,1,.48-11.75c.8-3.24,3.34-5.17,6.84-5.5,2.49-.23,4.37.45,5.51,2.6.73,1.37,1.4,2.77,3.43,2.83-1.87,2.19-3,2.55-6,1.89a2.85,2.85,0,0,0-.17-3.95c-.76-.85-1.61-.6-2.72,0,.45,2.34,1,4.7,1.36,7.08.69,4.14,1.29,8.29,2,12.43a3.54,3.54,0,0,0,1,2.22c1,.68,2.13,0,3-.72C642.12,605.52,642.27,602.94,641.69,600.21Zm-12.14-11.4-.58,0a13.23,13.23,0,0,0-.56,8.84c1.88-.16,2.63-.84,2.31-2.42C630.28,593.08,629.93,590.94,629.55,588.81Z"/></svg>