<svg id="Objects" xmlns="http://www.w3.org/2000/svg" viewBox="0 0 1080 1080"><defs><style>.cls-1{fill:#231f20;}.cls-2{fill:#414042;}.cls-3{fill:#ba1e2d;}.cls-4{fill:#3a3852;}</style></defs><path class="cls-1" d="M674.76,353.48c12.78-7.81,25.46-15.54,38.13-23.3,12-7.37,24-14.83,36.1-22.1,5.48-3.28,11.15-6.3,16.86-9.23,3.15-1.62,4-3.7,3.7-7a136.1,136.1,0,0,1-.71-18.82c.52-11.47,9.84-20.17,22-21.06,3.63-.27,7.3,0,10.92-.34,8.74-.73,14.22,3.77,19.16,9.7,7.57,9.07,7.92,18.68,2.69,29.67,2.68-.23,4.8-.54,6.92-.55a129.91,129.91,0,0,1,13.68.27,19.6,19.6,0,0,1,16.64,25.46,27.17,27.17,0,0,1-13,16.49c-9.46,5.42-19.56,8.65-30.64,5.56-4.3-1.2-8.2-3.69-12.21-5.7a29.55,29.55,0,0,1-3.6-2.5c-26.91,18.58-54,36.5-82.37,52.67-12,6.81-23.52,14.2-35.29,21.28-2.37,1.42-3.91,2.94-4.13,5.93-.76,10-2,20-2.91,30-.24,2.6,0,5.24,0,8.34l98.53-8c.41-1.9.84-3.8,1.22-5.72.61-3.14,1.59-6.05,5.44-6.85a10.23,10.23,0,0,1,9.9,3c1.8,1.86,3.13,4.13,5,5.89a7,7,0,0,0,4.3,1.83c8.63-.11,17.25-.44,25.86-.81,3.43-.15,6.84-.57,11.39-1-2-2.6-3.66-4.48-5.09-6.48-4.57-6.39-9.25-12.72-13.5-19.3a5.73,5.73,0,0,1,.07-5.47c1-1.24,3.77-2.05,5.54-1.76A67.15,67.15,0,0,1,838.68,407c7.08,2.73,13.94,6,20.86,9.05q20.76,9.27,41.47,18.65a48.6,48.6,0,0,1,6.06,3.09c2.17,1.35,2,2.81-.12,4.12a20.31,20.31,0,0,1-2.06.95c-24.26,11.13-48.5,22.31-72.8,33.35a44.82,44.82,0,0,1-9.74,3c-1.43.28-3.85-.24-4.51-1.19s-.06-3.14.74-4.33c5.76-8.48,11.72-16.84,17.59-25.25.79-1.13,1.42-2.36,2.42-4L800,445.47c-.22,2-.27,3.43-.54,4.8a45.17,45.17,0,0,1-1.9,7.83c-1.39,3.47-3.58,6.43-8.24,6.42a11.91,11.91,0,0,1-10.17-6.85c-.47-1.17-.62-2.45-1-3.66-.61-2-1.26-4.07-2-6.56l-99.45,6.29c-1.24,5.9-.13,11.82,1,17.56,2.83,14,.21,11.91,14.68,18.93a102,102,0,0,1,11.4,6.23c15.72,10.36,32.76,18.61,49.51,27.29,11.72,6.07,23.16,12.69,35.81,17.14,4.86,1.71,8.28,2,13-1.3,7.88-5.45,17.26-5.06,26.32-1.74,1.94.72,3.69,1.92,5.58,2.78,15.6,7.12,14,29.46,3.38,36.26-5.14,3.3-9,8.33-16.18,9,0,2.78.12,5.28,0,7.77-.67,12.09-8.25,24.73-24.87,25.86-12.89.87-29.65-6-28.82-23.15.26-5.49,1.26-10.94,2-17a22.66,22.66,0,0,0-2.72-1.42,403.93,403.93,0,0,1-43.74-20.33c-8.93-4.81-18.56-8.48-28-12.36-1.87-.76-4.4-.11-7.09-.11C681.71,566,670,582,646.42,587.08c0,4.1-.38,7.52.07,10.84a165.4,165.4,0,0,1,1.19,30.1c-.88,18.56,1.14,37,4.77,55.26,4.35,21.9-9.08,38.87-26.07,47.18a120.45,120.45,0,0,1-11.52,4.87c-3.9,1.42-7.94,2.48-12.19,3.78-1,2.61-1.93,5.55-3.26,8.31-3.87,8-9.89,13.58-19.07,16.74-13.7,4.7-27,3.94-40.51,0a28.48,28.48,0,0,1-17.17-13.5c-.35-.61-.82-1.17-1.4-2-11.93,1.19-23.07-2-34.12-5.69-12.75-4.24-22-11.87-27.4-23.69-7-15.26-10.08-31.23-10.86-47.7-.93-19.82.49-39.52,2.82-59.21.63-5.31.1-10.74.1-16.82-4.39-.8-9-1.91-13.66-2.44-16.14-1.83-28.76-9.44-39-20.79a39.68,39.68,0,0,1-9.2-17.76c-.53-2.26-1-4.53-1.72-7.61-5.45,2.38-10.67,4.45-15.67,6.9-10.7,5.24-21.18,10.87-31.94,16-7.33,3.48-15,6.38-22.81,9.68a19.44,19.44,0,0,0,.92,4.14c2.63,5.72,2.05,11.66,1.41,17.55-.67,6.14-4.37,10.58-9.89,13.82-9.86,5.8-23.19,6.73-32.82-.58-6.78-5.16-10-12.12-10.63-20.15-.22-2.66,0-5.35,0-8.35-8.8-1.06-13.94-7-19.31-12.17-7.54-7.29-7.31-25.33,4.92-32.38,8.29-4.78,16.81-7,26.26-4.87a22.43,22.43,0,0,1,8.58,4c2.93,2.26,5.62,2.73,8.94,1.36,6-2.46,12.19-4.47,17.87-7.4,17.63-9.09,34.84-18.9,52.65-27.67,11.72-5.77,21.46-14.58,34-19a6.6,6.6,0,0,0,3.2-3.54c3.31-7.93,4.21-16.25,4.79-25.25-4-.16-7.36-.49-10.75-.4-22.05.55-44.1,1-66.14,1.88-17.24.69-34.45,2-51.68,2.88-3.23.17-4.81,1.31-5.59,4.21a17.22,17.22,0,0,1-2.82,5.75c-1.56,2.1-3.74,3.82-6.82,3a7.65,7.65,0,0,1-5.9-6c-.37-1.72-.43-3.5-.64-5.32h-19c-1.51,4-2.54,7.63-4.27,11-2.84,5.47-6.08,10.77-9.25,16.08-1.4,2.33-3.65,3.43-6.55,3.82A554.91,554.91,0,0,1,158.62,501a76.9,76.9,0,0,1-12-.74c-4.72-.64-5.48-3-2.61-6.55,7.41-9.16,14.75-18.36,22.36-27.84a11.92,11.92,0,0,0-1.54-2.41c-4.78-4.91-9.49-9.88-14.49-14.59-4.25-4-5.41-8.85-5.67-14.76,2.07-.39,4.05-1.09,6-1.07,14,.13,28,.32,42,.65,9.58.22,19.14.72,28.71,1,3.29.12,5.17,1.67,6.46,4.46,2.36,5.11,5.06,10.08,7.51,15.15,1.57,3.28,3.57,5.06,7.94,4.42,4.88-.71,9.91-.48,15.3-.68.68-5.52,3.71-9.83,9.48-9.93,5.27-.1,8.3,3.83,8.94,8.31l132.19-5.78c0-6,0-12,0-18.08,0-.87-.34-1.74-.36-2.62-.23-7-.26-13.95-.74-20.9-.11-1.49-1.47-3.26-2.8-4.26-2.37-1.79-5.19-3.06-7.77-4.61-36-21.59-72.17-43-106.46-67-1.37-1-2.72-2-4.33-3.13-2.44,1.56-4.87,3.23-7.42,4.73-8.86,5.23-18.35,6-28.07,2.71a58.77,58.77,0,0,1-12.34-5.66c-9.67-6.05-13.48-14.9-12.35-25.61.68-6.45,7.45-13.23,14.72-15.11a40.48,40.48,0,0,1,16-.76c2.05.29,4.12.5,6.82.82a32.45,32.45,0,0,0-1-3.3c-6.54-14.53,1.76-28.21,14.45-35.28a4.44,4.44,0,0,1,2.17-.63c7.26.16,14.7-.49,21.73.81a21.21,21.21,0,0,1,17.82,20.56,155.71,155.71,0,0,1-.77,18.82c-.27,3.12.71,4.95,3.53,6.61,13,7.64,25.77,15.52,38.7,23.23,17.45,10.41,35,20.74,52.71,31.27a16,16,0,0,1,2.8-.83c2.23-.32,3.14-1.51,3.66-3.52,3.93-15.23,12.21-28.19,23.74-39.4a13.47,13.47,0,0,1,3.68-2.55c11.52-5.29,22.92-10.85,34.69-15.59,5.19-2.09,11.13-2.52,16.75-3.64,7.49-1.49,15.1-2.55,22.47-4.46,9.2-2.38,18.61-2.49,27.94-2.76a291,291,0,0,1,31,.83c13.3,1.06,24.77,7.1,36.17,13.07,3.17,1.67,6.3,3.38,9.43,5.1a104.68,104.68,0,0,1,38.15,35.88C667.51,341.2,671,347.19,674.76,353.48ZM602.59,637.22c-1.1-3.62-2-6.32-2.75-9-2.46-8.85-5.74-17.59-7.06-26.58s1.7-9.32,8.44-10.57c4.12-.76,8.3-1.27,12.44-1.94,11.59-1.87,22.47-5.88,33.3-10,5.12-1.94,10.78-3.62,14.81-6.9A50.89,50.89,0,0,0,681,536c1-11.6-1-23-3.69-34.22-1.85-7.7-4.64-15.21-6.34-22.94-3.6-16.37-3.29-32.88-.94-49.39a223,223,0,0,0,2.28-41.4c-1-23.61-11.32-43.42-27.85-60.6-16-16.68-36.48-26.38-59.6-31.45-3.72-.82-7.58-1.26-11.18-2.41-9.57-3-19.37-4-29.41-4.2-20.82-.37-40.7,3.92-60.19,10.24-6,2-11.77,4.42-18.23,6.87l5.73,3.19c-3.37.66-6.39.27-9.42.19-2-.06-4.39-.2-6.06.64-3.47,1.73-6.59,4.09-10.82,6.82,3,.89,4.87,1.27,6.55,2s4.14.68,5.27,4c-4.09-.92-7.34-1.77-10.66-2.35-1.37-.24-3.38-.44-4.21.26a19.13,19.13,0,0,0-6.28,8.63c4.28,1.77,8.68.95,12.88,3.08-5.4,2.37-10-.42-15,0l-3.7,8.72,12.39,3.4c-5,3.68-9.62.05-14.55,1.05-.51,2.92-1,5.81-1.62,9.16l13.92,2.41c-5.08,3.69-10,1.42-14.83,1.95-.68,2-1.35,4-2.07,6.06,4,1.64,8.49.36,12.32,4.13H422.21c-.6,3.33-1.12,6.24-1.75,9.79,2.58,0,4.47-.13,6.33,0s3.68.62,5.52,1l-.12,1.29-12.33,1.09c-.4,3.43-.74,6.43-1.15,10,2.21.14,4.05.22,5.89.37s4.15-.32,5.85,1.58c-3.38,3.53-8,2.13-12.21,3-.19,2.92-.38,5.68-.56,8.36,5.1,1.89,10.37-.54,14.73,2.76-4.61,3.36-10.27.8-15,2.73v7.49l8.53,2.85-.18,1.14-8.3,1.32V432c3.09,1.17,6.41.39,9.49,3.11l-9.3,2.08c.14,2.57.28,5.13.41,7.48l9.57,2.53c-.07.49-.13,1-.2,1.45l-9.56.69c-.21,3.16-.42,6.45-.63,9.78l8,2.23v1l-8.73,1.79c-.31,3.24-.64,6.69-1,10,4,1.23,4,1.23,6.21,3.33L414.34,479c-.68,2.53-1.31,4.91-2,7.45l7.68,2.14c0,.37-.06.75-.1,1.12l-9.44,1.23q-1.74,4.94-3.36,9.49c3,1.86,6.49.91,9.28,4H405.58c-.92,3.17-1.75,6-2.7,9.33l11.21,1.2c-4.07,3.39-8.59,1.92-12.57,2.88-1.34,3.36-3,6.54-2.45,10.66h13.22c-5.1,3.18-9.81,2.73-14.5,3.32V542c4.66,1.05,9.43-.58,13.86,1.9-4.35,3.46-9.59,1.87-14.52,3.51.66,2.5,1.27,4.82,1.79,6.76l11.77,1c.06.48.12,1,.17,1.44l-9.77,2.88c.92,1.65,1.63,3.06,2.48,4.4,2.57,4.06,2.58,4,7.78,3.3,2.64-.36,5.31-.57,8-.84.1.42.21.84.32,1.27l-9.35,3.87,9,6.6,8-2.08-2.93,4.64c5,2.7,9.31,3.29,14.15.07a21.09,21.09,0,0,1,13.13-3.93l-10.88,8c6.46,1.21,11.8,2.78,17.21,3.1,7.76.47,15,2.54,22.1,5,7.36,2.61,12.7,7.18,14.82,15.15,2.44,9.21,2.07,18.11.2,27.21-.64,3.1-.77,6.3-1.21,10.11,3.77.29,6.76.64,9.75.75,28.67,1.06,57.07-1.6,85.37-5.48C593.2,640.11,597.33,638.59,602.59,637.22Zm23.94-42.84a11.56,11.56,0,0,0,.16,1.86c4.18,14.14,5.28,28.7,5.73,43.22.58,19,.91,38.06-4.56,56.7a11.7,11.7,0,0,1-3.54,5.91c-6.9,6.1-15.56,8.49-24.52,9.54-15.19,1.79-30.39,3.79-45.78,3.58-7.86-.1-15.72.08-23.58.06s-15.47-.3-23.24-1c-11.35-1.05-20.68-6-30.07-11.22a3.67,3.67,0,0,1-1.65-1.44c-2.4-5.83-6.6-11.05-7.15-17.52-.61-7.16-1.57-14.34-1.48-21.5.26-20.13,1-40.25,1.52-60.38,0-1.53-.17-3.07-.28-4.78L456.9,598c.27,3.49.48,6.3.7,9.13a19.07,19.07,0,0,1,2.62.6,24.21,24.21,0,0,1,2.64,1.46l-5.3,3.11v6.47l4.94,1.83L456.84,624v10.69l5.07.32.41,1.09-5.78,3v9.16l6.91.7-7.12,3.85v10.63h5.55c.14.32.28.64.41,1l-6,4.46c.34,3,.72,6.27,1.13,9.84h7.66c.11.38.22.76.34,1.14l-7.93,3.52c.48,2.24.91,4.29,1.22,5.76l8.29,3.16c-.08.31-.17.62-.25.93l-7.05,1.6c1,3.67,2,7,2.75,9.77l7.54,2.31c0,.31-.08.63-.11.94l-5.65,1.84,4.08,9.1,13.86-2.61c-2.29,5.09-7.47,4.58-10.63,6.87,1.66,4.13,4.79,4.88,8.83,4.09,2.41-.47,4.87-1.77,7.94-.11l-6.43,4.48c2.45,2.8,5.06,2.84,8.08,2a59.4,59.4,0,0,1,7-1l.4,1-3.46,3.33c5.25,1.65,9.78,4.06,14.55.41.12-.09.57.2.9.32-.41.75-.82,1.5-1.41,2.56,4,1.09,7.79,1.65,11.61.38.89-7.52.89-7.52,4.33-9.69.53,2.46,1.17,4.66,1.47,6.91,1.31,9.73,7.14,16.16,16.74,19.37,8.57,2.87,17.61,4.14,26.58,2.39,6.83-1.34,13.94-2.7,18.91-8.2a28.79,28.79,0,0,0,7.67-19.82c0-4.14.39-8.17,3.79-11.75,3.2,3,2.88,7.14,4.68,10.35a9.58,9.58,0,0,0,1.8,0c.55-.12,1-.57,1.57-.64,9.65-1.17,17.77-5.52,25-11.24,9-7.2,14.51-16.28,13.5-27.81-.73-8.41-2.29-16.77-2.81-25.18-.72-11.83-1.71-23.75-1-35.53.81-12.82-.18-25.48-.84-38.2,0-.43-.49-.85-.84-1.41ZM412.36,359.72c-1.25-.87-2-1.43-2.78-1.9-21.61-13-43.16-26.09-64.86-38.94-8.42-5-17.07-9.63-25.83-14.07-5.74-2.91-8.39-6.63-7.51-13,.81-5.84.45-11.82.65-17.74.33-9.78-9-15.52-16.93-15.72-3.26-.09-6.53.11-9.78-.06-5.23-.29-8.43,2.72-11.48,6-1,1.06-1.61,2.42-2.53,3.55-5,6.2-4.05,16.42,2.11,21.54,1.72,1.43,3.54,2.79,5.1,4.36a3.67,3.67,0,0,1,.25,5.38c-1.34,1.56-3,.86-4.71.26-9-3.17-18.23-3.69-27.64-2.62-9.15,1-14.9,9.29-11.76,18.41,2.9,8.39,14,16.06,24.7,16.8,7.9.55,14.73-1.53,20.52-6.62a22.78,22.78,0,0,1,2.13-1.8c4-2.79,6.4-2.6,10.08.74a26.3,26.3,0,0,0,2.89,2.6c16.3,10.76,32.52,21.64,49,32.17,14.56,9.31,29.39,18.27,44.17,27.28,5.3,3.23,10.8,6.16,16.25,9.17a10.6,10.6,0,0,0,2.54.64c1-3.07.29-4.82-2.76-5.79a26.33,26.33,0,0,1-6.14-2.89c-2.6-1.66-5.31-3.37-6.42-6.76,6.25-.43,10.33,4.28,15.81,5,.46-3.44.49-3.48-1.31-4.58-1.28-.79-2.68-1.4-4-2.18-3.15-1.89-6.34-3.75-8.37-7.09,3.25-1.63,5.7-.64,8.08.51s4.47,2.32,6.71,3.49l1-1.28c-3.44-5.2-11.89-6-14.45-12.92,6.3-1,10.38,2.77,15.52,5.18C411.3,364.15,411.78,362.12,412.36,359.72Zm269,36.84c2.25-1.18,4.13-2.05,5.87-3.11,9.14-5.6,18.07-11.52,27.4-16.82,25.11-14.28,49.18-30,73-46.11a74.6,74.6,0,0,0,7.26-5.26c5.56-4.86,7.21-4.94,13-.17,3.77,3.11,7.82,5.8,13,6.53,10.88,1.55,20-2.12,27.84-8.79,3.53-3,5-7.18,5.39-11.62.59-7.2-3.43-12.63-11.07-14.1a56.24,56.24,0,0,0-29.29,2.33c-1.75.6-3.38,1.12-4.64-.53a3.51,3.51,0,0,1,.22-4.94c1.69-1.7,3.85-3,5.4-4.81,1.76-2,3.71-4.25,4.48-6.69,2.24-7.16-1.49-16.58-8-21-1.95-1.32-4.2-2.77-6.46-3a69.3,69.3,0,0,0-12.64,0c-8.21.59-15,5.87-15.76,12.65-.59,5.33-.33,10.75-.28,16.13,0,2.87.43,5.74.62,8.61a6.71,6.71,0,0,1-3.45,6.42q-2.62,1.65-5.37,3.13c-6.63,3.59-13.4,7-19.89,10.77-14.46,8.46-28.79,17.12-43.15,25.73-9.67,5.8-19.29,11.64-29.19,17.61.63,2.52,1.18,4.68,1.78,7.08,5.29-1.93,9.1-6.42,15.27-4.63-.8,3.06-3,4.47-5.2,5.89-2.51,1.65-5.16,3.11-7.6,4.85-.66.46-.76,1.6-1.34,2.94,5.71-.9,9.33-6.56,16.1-3.65A71.31,71.31,0,0,1,689,376.9a56.31,56.31,0,0,1-6.83,4c-2.28,1.16-2.89,2.58-1.46,4.86,5.46-1,9.58-5.51,16.46-4.94-1.9,2-3,3.72-4.65,4.79a53.91,53.91,0,0,1-8.9,4.84C680.64,391.64,680,393.28,681.39,396.56Zm17.85,143c2.43.62,4.39.8,6,1.58,9.55,4.56,19,9.31,28.52,13.91,9,4.34,18.06,8.64,27.17,12.82,4.29,2,8.84,3.46,13.12,5.47,5,2.36,5.71,4,3.57,9a29.16,29.16,0,0,0-2.43,16.33c.41,2.56,1.24,5.49,3,7.38,7,7.67,22.71,10,30.78.06,5.08-6.24,5.75-13.07,4.08-20.41-.42-1.84-.85-3.68-1.41-6.15a67.1,67.1,0,0,0,6.78-.68c2.74-.58,5.74-1,8-2.33a44,44,0,0,0,8.15-6.78c4.84-4.77,5.14-15.34.2-19.92-4.4-4.07-9.82-7.09-16.21-7.35-5.38-.23-10.63.52-14.88,4.41A10.18,10.18,0,0,1,793.05,549a50.17,50.17,0,0,1-5.39-1.82C776.74,542,765.74,536.9,755,531.41c-19.65-10-39.48-19.85-57.58-32.36-2.74-1.9-5.6-3.91-9.27-4.9.41,6.31,3.77,9.68,9.33,11.59a40.56,40.56,0,0,1,7.08,3.43c1.56.91,1.72,2.29-.15,3.93l-10.76-2.82c0,3.48,1.16,5.8,4.16,7.4a78.11,78.11,0,0,1,7.66,4.74c1.57,1.09,3.62,2,3.54,4.31-4.21,2-7.2-1.55-10.85-2.06.25,5.55.27,5.51,5,7.54a38.38,38.38,0,0,1,6,3.11c.9.59,1.32,1.84,2.08,3-4.76,2-7.62-1.87-11.62-2C699.49,537.29,699.38,538.29,699.24,539.56ZM399.89,493.74c-2.32,1.27-4.18,2.14-5.89,3.23-6,3.83-11.74,8.13-18,11.55q-28.77,15.74-57.91,30.87c-6.52,3.38-13.5,6-20.33,8.79-5.37,2.21-10.29,1.78-14.86-2.17-1.71-1.47-4.28-2.22-6.6-2.87-8.68-2.44-15.79,1.05-22.22,5.91a11.32,11.32,0,0,0-3.61,5.93c-1.77,6.75-.64,12.85,5.81,17.3a18.08,18.08,0,0,1,3,2.51c2.88,3.09,6.57,4.13,10.8,4.14,1.83,0,3.66.33,6.1.58l-.74,5.13c-.42,3-1.25,6-1.17,9,.22,7.76,3.77,14.08,11.38,17.41,7.81,3.41,15.31,1.77,22.09-3a11.48,11.48,0,0,0,5.07-8.7c.47-5.41.19-10.66-2.07-15.85-2.81-6.45-2-7.84,4.66-10.78.86-.38,1.76-.7,2.64-1a328.67,328.67,0,0,0,41.58-19.47,140.54,140.54,0,0,1,29.06-12.8c-.07-1-.15-2-.24-3.07-4,.17-7.06,4.14-11.82,2,1.89-3.92,5.53-4.82,8.7-6.2,4.62-2,4.65-2,4.17-7.44-3.45.92-6.47,4.17-11.31,1.63,2-1.64,3.51-3.12,5.26-4.34,2.46-1.71,5-3.28,7.64-4.8,2.78-1.63,3.43-3.91,3-6.76l-10.37,2.8c-2-1.59-1.82-2.95-.27-3.9a32.08,32.08,0,0,1,6.52-3.27C395.63,504,399.45,500.82,399.89,493.74Zm176.7,172.73a12.61,12.61,0,0,0,2.63.23q6.78-1,13.54-2.18c7.77-1.36,8.81-2.53,8.94-9.94a48.55,48.55,0,0,0-.12-5.91,18.59,18.59,0,0,0-1-3.51L575,648.94C575.55,655.15,576.06,660.78,576.59,666.47ZM514.9,652.59l-21.72-1.31c.48,4.34.56,8.15,1.43,11.79.5,2.12,1.75,4.94,3.55,5.76a36.07,36.07,0,0,0,16.74,3Zm7.35-.24c-.3,7-.72,13.19,1.34,19.15,7.18,1.3,15,.86,18.53-.8-.34-6.3-.67-12.39-1-18.35ZM568.35,668c-.17-6.46.89-12.46-1.49-18.44l-18.08,2.21c.57,6.37,1.09,12.16,1.66,18.55ZM198,468.57c-5.4-1-9.2-1.25-12.31,3.57-3.51,5.47-8.31,10.2-12.51,15.27-1.2,1.46-2.27,3-3.64,4.87,13.3,1.09,13.66.94,19.93-8.33,1.23-1.81,2.42-3.65,3.46-5.56C194.6,475.28,196.16,472.1,198,468.57Zm33.34-9.38c-2.64-4.87-4.54-9-7-12.7-1.23-1.84-3.42-4-5.48-4.3-4.17-.67-8.55-.2-14-.2,5,6.07,9.35,11.41,13.85,16.63a4.54,4.54,0,0,0,3,1C224.48,459.63,227.31,459.39,231.31,459.19Zm-20.38,1.4c-3.94-5.33-7.31-9.86-10.66-14.4-4.28-5.78-6.09-6.36-14.41-4.3,4.21,6.13,8.27,12.16,12.52,18.07a4.65,4.65,0,0,0,3.27,1.65C204.44,461.56,207.22,461,210.93,460.59ZM191.68,462c.06-.57.26-1,.09-1.25-4.34-6.08-8.65-12.19-13.15-18.17a5.2,5.2,0,0,0-3.34-1.63c-2.54-.25-5.13-.08-9.11-.08,5.68,7,10.17,13.05,15.46,18.64C184.62,462.64,187.85,463,191.68,462ZM558.4,695.73l-17.07,1.09c.82,4.32,1.53,8.07,2.24,11.77h15.87C559.09,704.33,558.78,700.52,558.4,695.73Zm-348-206.3c4.44,0,8.35-.13,10.79-3.38,4.52-6,7.19-12.91,10.08-20.13h-8Zm5.67-22.33c-5.81-1.19-8.66,0-10.77,4.64-2.44,5.4-6.41,10.18-9.72,15.22-.76,1.16-1.54,2.31-2.76,4.15,4.41-.55,8.55,1.16,11-2.9C207.85,481.34,211.81,474.41,216.05,467.1Zm-61.86,24.61c3.28,1.86,5.13,1.14,6.8-.77,5.55-6.36,11.18-12.66,16.7-19a23.14,23.14,0,0,0,2.16-3.61c-4.61-1.4-7.77-.53-10,3.29-1.08,1.85-2.93,3.29-4.27,5C161.82,481.5,158.15,486.44,154.19,491.71ZM534.08,708.59v-10.9h-15.4c.25,3.75.47,7.16.72,10.9Zm51.37-1.74,11.67-1.63c2-7.6-2.22-12.29-11.67-9.61ZM498,706.24l14.25,2.09c-.28-4.21.43-7.8-2.55-10.62-2.59,0-5.06-.12-7.51,0-3.66.23-4.17.76-4.43,4.18A40.5,40.5,0,0,0,498,706.24Zm69-10.52c.25,1.93.46,3.33.62,4.74.91,7.79,1.17,8,9.49,7.12.33,0,.62-.35,1.64-1-.41-3.41-.85-7.15-1.29-10.9ZM174.6,462.63l1.31-.93c-5.14-6.74-10.22-13.54-15.53-20.17-.57-.72-2.52-.47-4.57-.79C160.05,450.53,167.67,456.3,174.6,462.63Z"/><path class="cls-2" d="M334.11,736.4c14.32,8.07,28.13,16.15,43.21,22,13.08,5.1,26.21,10.1,39.33,15.12,3.9,1.49,7.78,3.08,11.79,4.28,10,3,20.12,5.75,30.17,8.63,7.14,2,14.33,4,21.37,6.27,14.53,4.78,29.62,5.66,44.77,5.94,13.8.26,27.62,0,41.43-.06,15.2,0,30.14-2.34,45.11-4.47,24.07-3.44,48-7.75,71.34-14.11S729,766.4,752.22,759.51a37,37,0,0,0,3.45-1.37c-.38-9.78-1.06-19.28-1-28.77,0-9.68.83-19.36,1.21-29,.15-3.65,2-6.5,4.45-9.1,4.31-4.52,9.72-7.47,15.56-10C795.6,672.9,815.93,666,836.24,659c16.33-5.64,32.27-12.35,48.09-19.2,8.84-3.82,17.06-8.9,25.56-13.41a36.76,36.76,0,0,1,3.55-1.78c4.56-1.81,7.49-.19,7.76,4.52a21.66,21.66,0,0,1-.7,6.39c-3.24,13-8.23,25.39-16,36.68a24.32,24.32,0,0,0-1.64,2.84,5.22,5.22,0,0,0-.17,1.4,17.93,17.93,0,0,0,3.74.53c11.08-.72,22.17-1.32,33.21-2.39,6.07-.6,12-2,18.06-3.09,1.32-.23,2.64-.49,4-.6,5.88-.49,8.3,2,7,7.34a11.41,11.41,0,0,1-2.48,4.76c-3.19,3.58-6.31,7.33-10.07,10.32-14.63,11.62-29.32,23.18-44.35,34.34-8,5.9-16.65,10.91-25,16.33-.94.6-1.83,1.27-3.25,2.25,2.63,3.67,5.08,7.3,7.75,10.76,6.36,8.23,6.64,8.43-.74,15.54-5.32,5.13-11.48,9.48-17.13,14.32a302,302,0,0,0-31.52,30.62,189.05,189.05,0,0,1-30.09,27.39c-13.08,9.7-25.79,19.89-39.36,28.93-26.39,17.56-54.81,31.89-85.69,41.05-18.39,5.45-37.49,8.83-56.37,12.76-9.52,2-19.57,2.16-28.8,4.88-11.74,3.47-24,1.41-35.65,4.65a13.49,13.49,0,0,1-4.58.23c-19.1-1.41-38.16-3-56.73-7.86-8.3-2.17-16.67-4.21-25.12-5.73-21.31-3.82-40.76-12.3-60.34-20.53-.7-.29-1.37-.66-2.08-.9-20.05-6.78-36.54-19.63-55.3-28.51-19.82-9.39-37.74-21.34-55.49-33.56-7.07-4.87-13.26-10.87-19.84-16.36-4.86-4-9.89-7.93-14.54-12.18-7.52-6.87-14.81-14-22.16-21-4.83-4.62-9.4-9.49-14.45-13.87-7.73-6.72-15.81-13.08-23.66-19.67-4-3.34-7.85-6.83-11.71-10.3-2.74-2.48-3.4-4.68-1.18-7.51,3.6-4.61,7.71-8.88,11.73-13.2,2.87-3.08,5.94-6,9.29-9.38-4.91-2.32-9.12-4.39-13.4-6.3-9.5-4.25-19.07-8.36-28.54-12.67a48.71,48.71,0,0,1-6.75-4.06q-11.7-7.79-23.3-15.68a45.6,45.6,0,0,1-4.22-3.63c-1.8-1.57-3.48-3.29-5.41-4.69s-3.14-3.23-2.57-5.56,2.58-3.55,5.05-3.76c2.66-.22,5.36-.13,8-.26,11.1-.54,22.21-.88,33.28-1.78,4.24-.34,8.36-2,12.34-3C192,649.49,190,644.31,188,639.14a5.3,5.3,0,0,0-.95-1.95c-4.66-4.69-5.49-11-7.94-16.58-1.64-3.76-1.5-7.67-1.13-11.44,4.57-2.71,8.77-2.36,13.26-.3s9.63,3.56,14.3,5.63c6.56,2.91,12.86,6.36,19.46,9.18,9.57,4.09,19.1,8.42,29,11.59a311.73,311.73,0,0,1,48.86,20c10.21,5.3,20.42,10.62,30.82,15.58,5.75,2.75,8.81,7.41,11.11,12.49,1.61,3.55,0,7.37-1.17,11A275.31,275.31,0,0,0,334.11,736.4ZM843.5,705.5c0,4.93-.61,9.56-4.06,13.22s-7.13,7.63-11.35,10.66c-18.36,13.17-38.15,24.34-59.91,31.64Q726,775.18,683.06,787.27c-23.3,6.6-47.3,10.64-71.37,14.14-15,2.18-29.93,4.44-45.12,4.56s-30.31.44-45.45,0c-15.52-.42-31-1.65-45.78-6.87-4.83-1.7-9.83-3-14.78-4.37-15-4.22-30.12-8.06-44.83-13.42-25.92-9.45-51.63-19.12-75.45-32.79-12.59-7.22-25.85-13.5-37.92-21.4a364.23,364.23,0,0,1-45-35.19c-1.58-1.44-3.33-2.72-5.25-4.28l-5.05,6.7c4.45,3.63,10.73,5.59,9.86,13.35l-13.06-8.84-2.38,3.22c3.71,2.77,7.2,5.52,10.86,8.06,2.75,1.9,4.6,4,4.24,7.77-8.89-.25-13.64-6.14-19.23-11.5L230.78,714c4.57,5.59,13.5,6.87,14.36,15.91-7.36-2.31-12-7.28-18.15-10.72l-3.77,4.41c2.84,2.37,5.42,4.48,7.95,6.64s5.16,4.16,6.2,8c-8.32-.26-12.72-6.08-18.57-9.8L214,732.59c3.5,4.29,9.72,5.76,11.67,12.37a89.17,89.17,0,0,1-8.67-3,86.25,86.25,0,0,1-7.65-4.59l-4.83,7.9c2.57,1.76,4.67,3,6.53,4.52q12.58,10.25,25,20.62c2.43,2,4.74,4.18,7,6.36,8.59,8.2,17,16.63,25.77,24.61,9.23,8.34,18.87,16.29,28.38,24.36,2.13,1.81,4.41,3.47,6.72,5.07q10.39,7.23,20.87,14.33a247.8,247.8,0,0,0,36.28,20.78,130.46,130.46,0,0,1,15.55,8.15,242.68,242.68,0,0,0,43.46,21.89c.89.33,1.72.79,2.6,1.16,15.77,6.54,31.39,13.62,48.24,17.29,21.07,4.58,41.86,10.42,63.35,13.12,8.91,1.12,17.94,2.23,26.88,2,9.33-.19,18.67-1.65,27.91-3.08,18.89-2.93,37.78-5.92,56.55-9.43,21.61-4.06,42.77-9.46,63.11-17.85,40-16.49,74.77-40.13,107.35-66.9,7.34-6,13.84-12.95,20.6-19.57,2.65-2.59,4.79-5.63,7.43-8.22,11.54-11.31,23.43-22.26,36.8-31.71,2.7-1.91,5.06-4.22,7.9-6.62l-7.78-10.55c-5.31,3.29-9.49,7.3-16,9.5.5-8.48,9-9.64,12.64-14.89l-2.55-3.16c-3.19,2.48-5.88,4.79-8.82,6.78-1.88,1.27-4.33,3.75-6.43,1.34s.87-4.22,2.62-5.73c3.09-2.66,6.38-5.12,10-8-1.73-2.53-3.29-4.82-5-7.27-3.26,2.51-5.9,4.58-8.59,6.61s-4.86,5-9.66,4.34c1.85-8,9.62-10.67,14.7-15.73l-5.87-6.09c-2.62,2.72-4.64,5.13-7,7.18s-3.76,4.84-7.07,5.91c-1.16-4.85-.84-6.12,2.38-9.61,2.75-3,5.56-5.91,8.16-8.67C853.1,712.05,847.06,709.91,843.5,705.5Zm4.16-4.69c1.56,2.43,3.4,3,5.84,1.59,3.11-1.77,6.25-3.5,9.37-5.26,1.73-1,3.4-2.31,5.93-.49-3.55,4.78-8.74,7.51-13.92,10.92l4,4.14c7.22-.42,11.84-5.88,19.39-6.15-3.71,6.35-10.06,7.72-15.31,10.93l2.52,2.81,22.42-8.79c-4.3,8.37-13.19,9.09-19.26,13.81l3.32,3.62c6.27-1.39,10.79-5.74,16.69-6.81l.73,1-7.58,7.36c2.82-.28,4.83-.1,6.53-.69,8.6-3,17.42-5.73,24.74-11.18,9.6-7.16,19.05-14.51,28.54-21.81,2.19-1.69,4.26-3.51,6.16-5.08-.4-3.45-.75-6.42-1.12-9.63-1.52.08-2.64,0-3.73.19a299.6,299.6,0,0,1-42.45,2.46,36.08,36.08,0,0,1-4,0c-3.9-.49-5.51-3.31-3.79-6.66.58-1.12,1.53-2.07,2.2-3.16,3.62-5.92,7.24-11.84,10.77-17.81.62-1.06,1.43-2.56,1.07-3.48-1.76-4.45-3.9-8.78-6-13.28-1.37.57-2.09.81-2.75,1.14-24.77,12.37-50.91,21.61-77.28,30.44-15.84,5.3-31.27,11.76-46.65,18.18-3.85,1.6-7.32,4.69-10,7.8-3.74,4.26-1.66,9.31,4.13,9.85,7.38.68,15,1.16,22.29.26,9.24-1.14,18.28-3.76,27.41-5.73,6.13-1.33,12.21-3.35,18.58-2.44,3.7.53,6.64.17,9.48-2.32a12,12,0,0,1,10-3.25Zm-689.58-26.6c5.9,4.18,11.31,8.15,16.89,11.91a65,65,0,0,0,9.3,5.29c12.41,5.61,24.91,11.05,37.39,16.53,3.8,1.67,3.82,1.64,6.07-2.56-3.06-3.86-9.74-4.39-11-10.07,4.71-1.78,4.72-1.79,8.27.12,2.92,1.57,5.83,3.17,9,4.88,1.51-2,2.66-3.57,3.8-5.12-11.18-6.81-12.82-8.58-12.21-13.16,6.79-.12,10.21,5.86,16.08,8l3.6-3.55c-2.9-2-5.47-3.52-7.83-5.33s-5.76-3-5.21-7.18c6.64.73,11.08,5.2,16.71,7.24l4.39-3.49c-3-1.6-5.7-2.89-8.23-4.46-2.34-1.44-5.69-2.28-5.33-6.38,7.52.95,13.23,5.26,20,7.38a48.33,48.33,0,0,0-4.87-5.94c-1.74-1.95-4-3.83-2.18-7.67,3.35,2.67,6.49,4.72,9,7.3,3.61,3.69,8.17,6,12.83,7.82a257.46,257.46,0,0,0,27.1,8.84c6.4,1.68,13.17,2.17,19.8,3,4.68.57,8.58-1.4,12-4.18,2.76-2.24,2.68-4-.17-6.17a14.67,14.67,0,0,0-2.49-1.3c-10.62-4.94-21.34-9.69-31.84-14.85a304.78,304.78,0,0,0-44.68-18.27c-13.67-4.24-27-9.12-39.26-16.4-4.77-2.83-10.31-4.5-15.21-6.57l-8.11,8.88c1.38,3,3.17,6,4.17,9.24,1.47,4.73,3.36,9.15,6.76,12.95a13.51,13.51,0,0,1,2.07,3.22c1.62,3.53,1,5.64-2.79,6.87-7.56,2.47-14.95,5.48-23.25,5.61-6.42.11-12.83,1.06-19.14,1.62C158.92,670.54,158.53,672.28,158.08,674.21Z"/><path class="cls-3" d="M893.66,559.41c4.89-1.68,9.64-4.61,15.28-1.77-.91,4.68-6.28,5.84-8.07,9.93,2.19,3,8,2.64,8.9,7.78-6.16,2.63-11.27-2.59-17.77-1.81l-5.41,8.13c-.71,1.06-1.17,2.47-2.18,3.1a6,6,0,0,1-4,.7c-.53-.11-1-2.1-.84-3.14.4-2.6,1.18-5.15,1.81-7.71-3.85-1.92-8.76.25-11.66-4.41a41.55,41.55,0,0,1,5.72-3.15c4.12-1.49,5.91-4.21,6-8.23a50.77,50.77,0,0,1,.75-6.94,9.32,9.32,0,0,1,1.27-3.51c1.95-3,5-3,6.43.3S892.3,555.45,893.66,559.41Z"/><path class="cls-3" d="M131.63,609.72H145.1c-3.7,5.31-9.31,3.08-13.09,5.71.6,4.48,7.55,6.26,7,11.91-5.5.21-7.72-4.1-11.43-6.25-1.75,2.76-1,7-6.53,7.32-.33-2.48-.66-5-1-7.87-4.46,1-6,6.18-11.14,6.46a11.54,11.54,0,0,1,6-9.56c-4.67-1.57-9.39,1.2-13.65-2,6.13-3.9,13-1.61,19.09-4.53-1.43-2-2.86-4-4.36-6s-4.75-2.57-4.46-5.87c4.23-1.5,5.89,2.78,9.26,3.59.73-2.77,1.42-5.36,2.24-8.44,4.72,2.68,3.06,7,4.74,10,3.72-.15,5.2-5.39,10.59-3.9Z"/><path class="cls-4" d="M532.11,142.61a61.89,61.89,0,0,1,1.09,6.7c1.08,20.08,4.5,39.89,7.58,59.75,2.17,14,4.18,28.08,6.24,42.12.11.71.39,1.57.09,2.12a5.67,5.67,0,0,1-2.31,2.58c-.53.23-2.1-.76-2.56-1.53a11.68,11.68,0,0,1-1.28-4.1c-1.65-10.84-3.37-21.66-4.82-32.52-1.71-12.83-3.41-25.65-4.66-38.52-1-10.52-1.41-21.09-2-31.64a24.32,24.32,0,0,1,.76-5Z"/><path class="cls-4" d="M381.86,186.57a58,58,0,0,1,5.17,4.57,379.09,379.09,0,0,1,35.47,46.41c6.32,9.63,13.42,18.81,20.3,28.1a81.55,81.55,0,0,0,6,6.52c.75.81,1.88,1.56,2.08,2.49a5.07,5.07,0,0,1-.44,3.81c-1,1.39-2.78,1-4-.19-2.08-2.1-4.18-4.21-6-6.48-10.19-12.41-18.66-25.89-27.64-39.06-8.14-12-17-23.47-25.57-35.18-2.34-3.2-4.62-6.44-6.93-9.66Z"/><path class="cls-4" d="M618.4,157.23c-.68,3.78-1.31,7.57-2,11.35q-6.35,32.53-12.75,65.06c-1.36,6.87-2.85,13.72-4.42,20.56-.54,2.3-.37,5.44-4.21,5.4-2,0-2.52-2.29-1.59-6.48q6.74-30.28,13.49-60.57c2.06-9.11,4.18-18.21,6.48-27.26a73.77,73.77,0,0,1,3.24-8.5Z"/><path class="cls-4" d="M454.49,158.79a66.56,66.56,0,0,1,3.85,6.94c6.91,16.73,13.72,33.49,20.55,50.24q7.56,18.56,15.1,37.11a26.5,26.5,0,0,1,1.5,4.62c.32,1.55.72,3.4-1.51,4.09s-3-1.2-3.6-2.6c-2.73-6.3-5.31-12.66-7.95-19-2.3-5.5-4.77-10.94-6.86-16.51-2.27-6.07-4.08-12.3-6.29-18.39-4.73-13.08-9.63-26.1-14.39-39.17-.79-2.17-1.22-4.45-1.82-6.67Z"/><path class="cls-3" d="M161.29,563.86c-3.1-.65-6.13.07-6.92-3.43,1.13-2.21,3.52-2.75,6-2.88,3.22-.17,4.73-1.7,5.29-4.62.6-3.17,1.56-6.28,2.4-9.41.28-1,.35-2.35,1.06-3,1-.93,2.58-2,3.74-1.87,1,.13,2.37,1.9,2.42,3a89.29,89.29,0,0,1-.4,10.2c-.12,1.74-.41,3.48-.71,6,2.7,0,4.93-.12,7.15,0s4,1.06,4.56,3.49c-1.72,3.57-5.77,1.76-8.84,3.18.77,1.53,1.51,3,2.22,4.37.56,1.14,1.55,2.3,1.52,3.43a5.76,5.76,0,0,1-1.64,3.63c-1.36,1.34-2.87.49-3.92-.71s-2-2.61-3-3.91c-1.21-1.57-2.43-3.13-4.2-5.4-1.42,2-2.42,3.43-3.38,4.86-.8,1.22-1.46,2.54-2.34,3.7a3.13,3.13,0,0,1-4.53.72,4,4,0,0,1-1.05-3.72C157.77,569,159.46,566.83,161.29,563.86Z"/><path class="cls-4" d="M677.71,189.37a27.41,27.41,0,0,1-1.55,4.26c-5.08,9.26-10,18.57-15.42,27.68-9.63,16.32-19.51,32.5-29.31,48.73a12.14,12.14,0,0,1-2.53,3.53,4.28,4.28,0,0,1-3.52.62c-.72-.32-1.23-2.08-1-3a16.39,16.39,0,0,1,2.17-4.93c9.18-14.68,18.44-29.32,27.66-44,5.64-9,11.17-18,16.88-26.92a79.86,79.86,0,0,1,5.31-6.66Z"/><path class="cls-4" d="M422.76,628.42c.83,3.57-.87,5.58-2.39,7.58-8,10.5-16.09,21-24.09,31.46-6.55,8.6-13,17.28-19.54,25.89a7.07,7.07,0,0,1-2.81,2.53,4.8,4.8,0,0,1-3.57-.46,2.91,2.91,0,0,1-.76-2.75,17.68,17.68,0,0,1,2.69-5.3q19.71-24.79,39.6-49.47C414.73,634.38,417.72,630.91,422.76,628.42Z"/><path class="cls-4" d="M733.18,697c-5,2.38-5.77,2.21-8-.78q-20.07-26.55-40.18-53.1a64.66,64.66,0,0,1-4.36-5.66,34.5,34.5,0,0,1-2.24-5.64l1.24-.76a28.31,28.31,0,0,1,4.21,3.21c4.82,5.33,9.68,10.65,14.19,16.21q15.78,19.5,31.21,39.27C730.85,691.88,731.79,694.46,733.18,697Z"/><path class="cls-3" d="M899.13,502c-2.6-1.75-5.64-3-4.9-7.28l10,2.26c1-2.4-1-6.05,3.82-7.6l4.2,7c3.17,1.19,8.13-4,12,1.86l-9.44,4.59c.84,3.88,7.21,2.59,7.59,6.83-1.92,3.16-4.86,1.15-7.21,1.35-.24.44-.53.73-.57,1.05-.23,2.17-.25,4.81-3.39,4.65-2.92-.15-2.92-2.86-3.36-5-.4-1.9-.85-3.8-1.42-6.28-3.61,1.38-6.73,2.61-9.88,3.77-2.62,1-4.81.85-6.12-2.76Z"/><path class="cls-4" d="M696,612.34c3-1.51,4.75.32,6.58,1.46,12,7.48,22.84,16.31,33.53,25.32,2,1.67,4.23,3.11,6,4.93,1.07,1.07,2.59,2.59,1,4.24s-3.49,1.21-5.21.15a39.85,39.85,0,0,1-4.09-3Q717.44,632,701,618.56C698.89,616.82,696.83,615,696,612.34Z"/><path class="cls-4" d="M406,610a46.79,46.79,0,0,1-4.91,5.5q-16.56,13.79-33.34,27.34a24.57,24.57,0,0,1-5.67,3.61c-.88.37-2.62-.21-3.48-.9-.5-.4-.27-2,.1-2.83a6.74,6.74,0,0,1,2.05-2.53q15.68-12.27,31.45-24.41a87.85,87.85,0,0,1,8.94-5.89c1.13-.65,2.67-.68,4-1Z"/><path class="cls-4" d="M673.25,675.61a6.89,6.89,0,0,1,7.21,3.23c7.24,10.11,14.29,20.34,21.34,30.57a21.68,21.68,0,0,1,1.52,3.48c.71,1.56.42,3.08-1.28,3.56a6.71,6.71,0,0,1-4.13-.43c-.89-.38-1.43-1.6-2-2.52q-10-16.31-20-32.66C675,679.34,674.32,677.72,673.25,675.61Z"/><path class="cls-4" d="M428.43,672.4a38,38,0,0,1-2,4.89q-10.33,17.1-20.84,34.12a5.92,5.92,0,0,1-2.79,2.5,4.77,4.77,0,0,1-3.57-.53,3,3,0,0,1-.81-2.78,25.85,25.85,0,0,1,3-6.39q9.33-13.59,19-27A10.46,10.46,0,0,1,428.43,672.4Z"/><path class="cls-4" d="M112.14,543.93c-.16,5.65-4.23,10.38-8.81,10.25-5.25-.15-10.13-4.29-10.12-8.59,0-4.93,5.3-9.37,11.2-9.4C108.46,536.18,112.25,540,112.14,543.93Z"/><path class="cls-4" d="M649.31,290.41a9.8,9.8,0,0,1,1.67-2.24c9.75-6.91,19.48-13.83,29.37-20.56,1.71-1.16,4.1-1.45,6.87-2.37,0,1.78.37,2.93-.07,3.58a13.35,13.35,0,0,1-3.48,3.51Q670.56,281,657.3,289.46C655,291,652.58,292.69,649.31,290.41Z"/><path class="cls-4" d="M386.7,266.06c1.87.46,4.09.5,5.65,1.47,7.11,4.45,14.07,9.11,21,13.79,1.74,1.17,2.27,3,1,4.71-1.42,1.89-3.28,1.35-5,.26-.64-.39-1.28-.78-1.88-1.22L388.74,271C387.28,269.89,385.54,268.89,386.7,266.06Z"/><path class="cls-4" d="M662.22,704.6c2.53,1.24,4.26,1.55,4.94,2.51,3.15,4.43,6.13,9,8.9,13.62,1,1.71,1.38,4-1.25,5-2.46,1-3.93-.42-4.92-2.38-2.12-4.18-4.32-8.33-6.27-12.58C662.93,709.27,662.86,707.52,662.22,704.6Z"/><path class="cls-4" d="M438.94,702.54c.07,1.31.44,2.3.11,3-2.51,5.41-5.08,10.8-7.81,16.11-.79,1.55-2.56,2.57-4.25,1.38-1-.68-2-2.56-1.65-3.48,2.29-6.3,5.5-12.16,11.19-16.47C436.91,702.79,437.59,702.83,438.94,702.54Z"/><path class="cls-4" d="M378.67,605.42a78.73,78.73,0,0,1-14.42,9.74,3.56,3.56,0,0,1-5-1.24c-1.1-1.95,0-3.45,1.92-4.41q5.55-2.79,11.15-5.51C374.31,603.05,376.3,602.53,378.67,605.42Z"/><path class="cls-4" d="M723.31,608.06c1.87-2.75,4.05-2.29,5.92-1.46,3.94,1.76,7.75,3.77,11.58,5.75,1.64.85,2.88,2.41,1.74,3.92-.76,1-2.79,1.18-4.27,1.7a.81.81,0,0,1-.55-.11A62,62,0,0,1,723.31,608.06Z"/><path class="cls-4" d="M379.23,296c3-2.45,5.29-1.35,7.52-.41,3.28,1.38,6.56,2.79,9.71,4.4,1,.51,2.38,2.19,2.16,2.55a6.51,6.51,0,0,1-3.16,2.47,5.46,5.46,0,0,1-3.34-.26A29.17,29.17,0,0,1,379.23,296Z"/><path class="cls-4" d="M684.68,301.83c2.24,3,.19,4.8-1.87,6.4-4.62,3.59-10,4.73-16.35,4.22,1.49-4.18,5.34-5,8.63-6.45S680.55,301.38,684.68,301.83Z"/><path class="cls-4" d="M140.05,547.73c.09,3.17-1.85,5.57-4.63,5.7s-4.37-1.47-4.55-4.34c-.21-3.34,2-6.53,4.46-6.43A5,5,0,0,1,140.05,547.73Z"/><path class="cls-4" d="M932.15,543.39c.4-3.64,2.94-5.86,6.32-5.52,2.54.26,3.36,1.41,2.95,4.16-.57,3.87-3,6.06-6.21,5.65C932.84,547.38,931.86,546,932.15,543.39Z"/><path class="cls-4" d="M954.53,567.7c4.55,3.69,5,8,5.75,12.11.15.78-.94,2.49-1.44,2.49-1.11,0-2.76-.57-3.21-1.39C953.46,577.05,953,572.94,954.53,567.7Z"/><path class="cls-4" d="M862.53,516.76c3.38,1.61,4.6,3.93,4.69,6.72a3.3,3.3,0,0,1-3.28,3.67,3.47,3.47,0,0,1-4.07-2.9C859.16,521.41,860.16,519.05,862.53,516.76Z"/><path class="cls-4" d="M953.14,588.08c-6.52,1.44-10.21.56-12.87-3.24,3.18-2,6.44-1.3,9.7-.42C952,585,952,585,953.14,588.08Z"/><path class="cls-4" d="M964.42,591.86c5,1.32,6.94,4.63,9.55,7.18-1.1,2.34-2.58,2.74-4.71,1.76C965.53,599.09,964.24,596.28,964.42,591.86Z"/><path class="cls-4" d="M974,572c1,5.44-.66,10.19-4.32,12Q966.06,575.7,974,572Z"/><path class="cls-4" d="M96.07,581.56c1.38-3.35,3.37-4.71,6.34-4.71,2.51,0,3.91,2.09,2.43,3.94a6.68,6.68,0,0,1-4.06,2.44C99.29,583.35,97.69,582.19,96.07,581.56Z"/><path class="cls-4" d="M648.92,728.75c4.13,0,5.64,2.42,6.49,5.25.24.79-.48,2.57-1,2.66a4.42,4.42,0,0,1-3.45-.81A8.48,8.48,0,0,1,648.92,728.75Z"/><path class="cls-4" d="M957.88,594.39c2.29,4.66,2.21,6-.47,10.08C952.59,602.32,952.62,599.34,957.88,594.39Z"/><path class="cls-4" d="M986.79,587.06c-1.64,5.13-5.57,6.39-11.55,4C978.56,588,982.22,586.89,986.79,587.06Z"/><path class="cls-4" d="M453.62,726.07c-1,2.79-1.53,5-2.63,6.9a3.62,3.62,0,0,1-3.25,1,3.17,3.17,0,0,1-1.26-3C447.26,728.45,448.74,726.19,453.62,726.07Z"/><path class="cls-1" d="M643.2,477.66c-.62,4.8-1,11.67-2.55,18.28-1.14,4.81-3.54,9.47-6,13.86-2.85,5-6.84,9.09-13.35,10.19a22.22,22.22,0,0,0-4.75,1.87c-18.07,7.63-38.86,1.55-49.38-12-7.54-9.69-13.76-19.89-16.42-31.74a32.63,32.63,0,0,1-1-7.46c.18-16-.26-32,3.59-47.69,2.78-11.35,4.49-23,10.6-33.42,3.16-5.41,8.19-9,13.3-12.22,2.23-1.4,6.38-1.06,9.34-.35a35.18,35.18,0,0,1,17.25,10c16.44,16.58,26.52,36.34,34.43,57.32C642.08,454.43,642.29,465.06,643.2,477.66Z"/><path class="cls-1" d="M536,457c.25,6.06.59,12.12.74,18.17.41,16.9-7.33,30.92-17.76,44a39.07,39.07,0,0,1-13.43,10.78c-10.42,5.16-21.22,5.5-32.26,2.34A87.63,87.63,0,0,1,461,527.84a19.08,19.08,0,0,1-6.15-4.68c-6.49-7.25-9.56-15.8-10.65-25.15a105.21,105.21,0,0,1,8.95-57.41c5.66-12.29,12.14-24,20.66-34.73a107.25,107.25,0,0,1,12-13c5.42-4.87,12.32-7.14,19.85-7.4a6.06,6.06,0,0,1,3.79,1c4.09,3.42,8.85,6.54,11.74,10.74a57.22,57.22,0,0,1,8.92,22.59c1.44,8.15,3.37,16.21,4.83,24.35.77,4.24,1,8.56,1.44,12.84Z"/><path class="cls-4" d="M545,551.39c-.74,9.12-1.38,18.24-2.28,27.34-.55,5.59-8.23,10.23-14,8.7-8.64-2.31-11.22-5.86-9.94-14.24A36.35,36.35,0,0,1,525,557.72c1.14-1.64,2-3.49,3.21-5.07a44.1,44.1,0,0,1,5.73-6.54c2.26-1.94,4.87-3.28,8.3-1.59S545.33,548.69,545,551.39Z"/><path class="cls-4" d="M549.05,560.4V548.56c0-2.54.88-4.59,3.64-5.5s4.57.63,5.82,2.42A67.59,67.59,0,0,1,565,556.11c2.23,4.93,3.76,10.14,5.6,15.23.24.68.56,1.34.77,2,2.28,7.21.18,11.22-6.71,12.83-7.51,1.76-13.67-1.76-15-8.62a32.12,32.12,0,0,1-.69-5.34c-.11-3.94,0-7.88,0-11.83Z"/><path class="cls-4" d="M622,545c-5-.25-8.82-.31-12.62-.67a25.9,25.9,0,0,1-6.09-1.4c-1.8-.63-3.62-1.63-2.82-4,.71-2.07,2.38-2.52,4.55-2.23,3.77.5,7.56,1,11.35,1.22,10.56.48,20-2.11,27.76-9.21A9.28,9.28,0,0,1,648,526.6c2.29-.57,4.71-.37,6.29,1.55s1.15,4.15-.48,5.92a29.19,29.19,0,0,1-5.65,5.18C639.87,544.39,630.74,546.43,622,545Z"/><path class="cls-4" d="M463.28,554.5a39.79,39.79,0,0,1-25.58-6.26,19.16,19.16,0,0,1-5.46-5.34c-2.65-3.88-.53-7.4,4.29-7.13a9.7,9.7,0,0,1,5.6,2.19c10.37,9.62,23.14,10,36.34,8.44,5-.58,7.14-.27,7.57,2.24.33,1.91-2.09,3.86-6.23,4.38C474.33,553.7,468.79,554,463.28,554.5Z"/><path class="cls-4" d="M327.23,338.84c-2.15,2.13-4,1.22-5.56.33q-6.87-3.85-13.54-8c-2-1.21-3.55-2.79-2-6.05C313.93,328.81,321.15,332.92,327.23,338.84Z"/><path class="cls-4" d="M292.14,266.31c-2.63,5.11-4.89,9.73-7.4,14.23-.52.94-1.91,1.45-3,2.22C278.17,275.54,283.31,267,292.14,266.31Z"/><path class="cls-4" d="M311,318.9a21.2,21.2,0,0,1,15.27,11.18C320.93,329.51,313.88,324.34,311,318.9Z"/><path class="cls-4" d="M299.94,270.2a25.46,25.46,0,0,1-7.06,12.38C289.73,277.75,292.93,271.83,299.94,270.2Z"/><path class="cls-4" d="M760.91,338.52a79.93,79.93,0,0,1,20.75-13.29l1.2.9c-.69,1.45-1,3.48-2.16,4.26-5.15,3.35-10.53,6.4-15.94,9.38-.9.49-2.36.07-3.56.07C761.11,339.4,761,339,760.91,338.52Z"/><path class="cls-4" d="M796.19,266.12c8.59,1.35,13.12,8.74,10.42,16.36a4.12,4.12,0,0,1-4.14-3,28.63,28.63,0,0,0-6-10.88C796.06,268.2,796.29,267.3,796.19,266.12Z"/><path class="cls-4" d="M777,318.86c-2.68,5.32-9.73,10.56-15.16,11.27C764.31,324.55,770.26,320.13,777,318.86Z"/><path class="cls-4" d="M788.76,270.07c6.56,2.56,8.94,6.9,7,12.08A15.2,15.2,0,0,1,788.76,270.07Z"/><path class="cls-4" d="M771.48,563.1c-7,1.4-20.77-4-24.87-10,1.68-.25,3.26-1,4.29-.56,6.6,2.77,13.08,5.79,19.57,8.78C770.87,561.54,771,562.23,771.48,563.1Z"/><path class="cls-4" d="M825.29,553.59c.92,1.41,2.39,2.74,2.63,4.25a37.91,37.91,0,0,1,.4,9.63c-.4,4.09-2.57,4.58-5.89,2.16.67-5.37,1.3-10.4,1.93-15.43Z"/><path class="cls-4" d="M765.88,552.42c-6.55,1.16-11.82-.94-14.52-5.8C754.92,545.94,761.46,548.55,765.88,552.42Z"/><path class="cls-4" d="M815.1,566c-2.68-4.36,1-7.45.95-11.41C820.05,559.33,819.79,562.35,815.1,566Z"/><path class="cls-4" d="M341.23,553.34c-4,5.75-17.79,11.17-24.18,9.86,1.61-3.13,3.73-4.52,14.15-8.56C334.16,553.5,337.12,551.17,341.23,553.34Z"/><path class="cls-4" d="M262.55,553.62c2.69,5.17-.28,10.59,4.58,15.34-1.85.9-3.44,2.32-4.52,2a4.75,4.75,0,0,1-2.88-3.34A39.31,39.31,0,0,1,260,558C260.25,556.47,261.66,555.08,262.55,553.62Z"/><path class="cls-4" d="M337.27,545.45c-3.36,6-8.63,8.13-16.46,6.74C326.45,549.54,330.79,546.65,337.27,545.45Z"/><path class="cls-4" d="M271.79,555.13c-.23,3.59,4.28,6.79,1,10.65C268.29,562.74,267.93,559.79,271.79,555.13Z"/><path class="cls-3" d="M538.47,835.65c2.75,6.83,1.59,13.07-2.88,16.35-3.39-1.35-2.07-4.65-3.36-7.34H521.07c-1.72,8.25-3.4,16.27-5.16,24.69H525c.66-1.73,1-3.53,2-5a4.68,4.68,0,0,1,3.32-1.52c.75,0,1.87,1.11,2.25,2,1.92,4.29-.64,13.95-4.44,17.3-2.75-2.1-2.75-2.1-4.2-6.84h-9c-2.06,9.12-4.14,18.29-6.42,28.34l11.56.86c.73-2.88,1.34-5.3,2-8,6.63,4.62,7.45,14.7,2.13,18.8a2.48,2.48,0,0,1-3.91-.65,31.77,31.77,0,0,1-1.89-4.56c-11.93-2.16-24.44-.75-35.76-5.44a14.5,14.5,0,0,1,0-2.62c2.86-13,5.59-26,8.71-39,1.6-6.65,3.88-13.15,5.87-19.72a6.33,6.33,0,0,1,6.68-4.86c5.74,0,11.48.13,17.23.18,3.43,0,6.87.16,10.3,0,1.19-.07,2.33-1,3.49-1.45ZM508.05,844c-2.53,9.6-5,18.93-7.58,28.72l8.07.63c2.46-9.83,4.81-19.26,7.25-29Z"/><path class="cls-3" d="M769.61,838.55l-9.41-13.32-11.06,6.28c-.32,5.62,1.6,12,5.82,19.71a35.64,35.64,0,0,1,6-1c2.5,0,3.4,1.6,2.18,3.66a9,9,0,0,1-2.57,2.84c-3.27,2.18-6.6,4.29-10,6.24-3.11,1.76-6.34,3.32-9.58,4.85a14.18,14.18,0,0,1-4.33,1.36c-2.48.28-4.44-1.76-3.2-3.65,2.09-3.17.53-5.79-.26-8.69-3.52-12.84-6.91-25.72-10.45-38.56-1.09-4-2.54-7.83-3.88-11.91-1.31.09-2.71.52-3.8.16a4.68,4.68,0,0,1-2.66-2.4c-.24-.61.72-2.07,1.53-2.53,6.39-3.59,12.87-7.05,19.35-10.49a10.94,10.94,0,0,1,3.25-1c3.06-.53,4.1.58,3.39,3.58-.16.67-.46,1.32-.75,2.15,13.49,12.8,26.7,25.73,37.3,41,1.77-.5,3.23-1.31,4.62-1.21a6.85,6.85,0,0,1,4.34,1.69c1.39,1.6,0,3.19-1.6,4a120.51,120.51,0,0,1-12.49,5.34c-1.2.42-3.42-.37-4.38-1.32-.59-.59.11-2.56.58-3.8A14,14,0,0,1,769.61,838.55Zm-36-3.95,2-.38c-1.19-11.34-1.21-22.83-4.81-34.69L725,802.71C728,813.78,730.81,824.19,733.63,834.6Zm21.24-13.67c-3.29-5.48-7.24-9.69-12.93-12.59l4.94,17.24Z"/><path class="cls-3" d="M441.42,875.62,476,837.72c-1.51-.57-2.54-.89-3.52-1.33-1.91-.88-3.13-2.11-2.13-4.28s3.51-3.66,5.53-2.31c3.64,2.43,7.83,2.66,11.85,3.67,2.44.62,4.93,1.37,4.16,5.14H483.6C473,850.51,462.68,862.26,452.23,874c-4.55,5.08-9.15,10.13-14,15-3.09,3.12-4.05,3-8,1-11-5.69-11.06-6.45-9.32-18.28a220.51,220.51,0,0,1,6.32-27.89c2.39-8.47,4.35-17,6.57-25.88l-6.5-4c2.28-3.41,5.07-2.8,7.52-2.13,3.48,1,6.81,2.38,10.22,3.58,4.3,1.51,8.61,3,12.91,4.51a5.93,5.93,0,0,1,2.5,1.17,3.87,3.87,0,0,1,.87,2.79c-.08.5-1.44,1.18-2.21,1.17a60.66,60.66,0,0,1-6.3-.75c-1.27,17.69-8.72,34-12.65,51.08Zm-.63-32,7.17-21.2-8.81-3.08c-1.62,8.59-3.59,16.48-4.41,24.89Z"/><path class="cls-3" d="M677.26,875.13c-.42,14.91-5.31,22-21.32,27.89-4.79,1.75-9.6,3.46-14.4,5.2a18.22,18.22,0,0,1-2.13.8c-3.2.78-4.48-.48-4.28-3.6a22.36,22.36,0,0,0-.36-7.36c-1.81-6.59-4.06-13.08-6.06-19.62-2.84-9.31-5.61-18.63-8.45-27.94-.58-1.89-1.29-3.75-2-5.61-1.27-3.49-1.06-4.51,2.53-5.95,7.38-3,14.82-5.83,22.36-8.42,6.58-2.26,12.66-.94,17.17,4.14,3,3.42,6,7.17,7.74,11.25,3.36,8,5.88,16.26,8.6,24.47A21.12,21.12,0,0,1,677.26,875.13Zm-21,20.74c7.16-2,11.66-6,13.17-12.11a27.41,27.41,0,0,0,.41-12.72,169.07,169.07,0,0,0-7.74-22.44c-1.33-3.28-3.73-6.25-6-9.12s-5.29-4.32-9-3.42c-3.26.78-6.39,2.05-9.09,2.94C644.2,858.3,650.19,876.93,656.29,895.87ZM639.51,860.5c-2-6.52-3.89-12.78-6-19.54L625.69,844c1.74,6.9,3.33,13.23,5,19.75Z"/><path class="cls-3" d="M699.56,812c1.28-2.4.19-5.86,4.41-6.72,2.54,4,3.49,8.53,4.42,13a4.71,4.71,0,0,1-1.92,4c-1.88,1.09-3-.84-4-2.14-.53-.71-1-1.47-1.63-2.4L689,821.58c3.25,8.08,6.26,15.55,9.48,23.52l6.15-3.09a44.76,44.76,0,0,1,.1-6.5c.13-.88,1.34-1.61,2.37-2.76,4.41,3.88,5.35,8.82,6,13.71.35,2.6-1.22,3.31-4.1,2.32a13.13,13.13,0,0,1-2.05-1.2l-5.79,3.35c2.66,7.12,5.28,14.11,8.18,21.85l7.37-4.78v-9.67a5.09,5.09,0,0,1,5.63,3,113.62,113.62,0,0,1,4.68,11c.36,1,.14,2.72-.56,3.26s-2.45.35-3.58,0a9.38,9.38,0,0,1-2.59-1.78c-6.62,3.18-13,6.27-19.44,9.34-1,.49-2.08.93-3.15,1.32-4.76,1.7-6.2.92-8.55-3.35-7-12.69-10.42-26.52-14.85-40-1.12-3.42-2.28-6.84-3.72-10.15-1.95-4.46-1.48-7.41,3.07-9.47,6.67-3,13.67-5.42,20.56-8A54,54,0,0,1,699.56,812Zm-15.83,10.75c-7.55,2.76-7.68,3-5.39,8.8q3.09,7.81,6.29,15.59a35.1,35.1,0,0,0,2.08,3.7l6-2.73Z"/><path class="cls-3" d="M350.32,778c-5.43,5.89-10.71,11.58-15.94,17.31s-10.12,11.21-15.69,17.37l13.81,8.73c3.08-1.89,6.06-3.77,9.12-5.55.57-.32,1.45-.18,3.3-.36-1.24,2.41-2,4.31-3.14,6-3,4.59-6.06,9.15-9.27,13.62a12.78,12.78,0,0,1-4,3.73,4.18,4.18,0,0,1-3.65-.38,3.58,3.58,0,0,1-.61-3.27,39.37,39.37,0,0,1,2.83-5.61c-7.45-5.59-14.36-11.48-22.55-15.83-.83-.44-1.74-.76-2.53-1.26-4-2.49-4.73-4.42-3-8.58a23.77,23.77,0,0,1,2.71-4.7,238.33,238.33,0,0,1,28.18-32.65c.24-.24.29-.65.65-1.48-1.47-.87-3.35-1.54-4.47-2.8-1-1.07-1.76-3.07-1.33-4.24.68-1.85,2.87-2.44,4.84-1.41,6.28,3.27,13.28,5.17,18.66,10.16,4.46,4.12,9.94,7.26,14.91,10.89a12.77,12.77,0,0,1,3.61,3.39A4.43,4.43,0,0,1,367,785c-.91,1.48-2.62.81-4.05,0C358.89,782.68,354.77,780.45,350.32,778Zm-17.83,11.33,12.94-14.78-8.35-6L323,784.41Z"/><path class="cls-3" d="M417.55,816.6c-.95,3.82-1.38,7.83-2.94,11.41-5,11.46-12.87,20.8-24.9,26.41-7,3.3-14.45,3.49-21.41-.39-7.94-4.43-11.32-10.76-8.88-21.37,3.44-15,12.92-26.09,27.27-33.53,6.14-3.18,12.49-3.15,18.82-1C413.93,801,416.86,805.94,417.55,816.6Zm-45.9,32.33a15,15,0,0,0,14.46.64c12.6-5.88,26.57-19.65,22.5-37.37-.53-2.31-.82-4.56-4-5.78Zm25.74-43.52c-.21-.49-.41-1-.61-1.48-3.63.46-7.72.07-10.77,1.56-4.89,2.4-8.75,6.37-12.55,10.55l10.13,4.29a29,29,0,0,0,2.53-2.26C389.9,813.87,393.64,809.64,397.39,805.41Z"/><path class="cls-3" d="M758.26,784.35c.77-1.28,1.11-2.49,1.94-3.07,5.51-3.83,11-7.71,16.75-11.19,4.16-2.51,8.58-1.69,13.18-.17,18.75,6.19,30.56,34.11,18.26,52.27a28,28,0,0,1-7,7c-4.3,3-9.22,2.7-12-1.29-3.17-4.48-6.58-8.81-9.69-13.32-5.5-8-10.82-16.07-16.31-24.05C761.94,788.47,760.14,786.61,758.26,784.35Zm46.49,28.93c5.77-10.75-2.24-28.86-10.71-34.84a31.57,31.57,0,0,0-8.17-3.78,8.09,8.09,0,0,0-8.4,1.92ZM766.2,784l16,22.29,4.83-4.86-15-21.37Z"/><path class="cls-4" d="M264.21,767.33c-5.3-1.15-11.49,2.33-15-4.4a38.55,38.55,0,0,1,4.87-4.29c2.51-1.58,3.62-3.5,3.35-6.31a21.67,21.67,0,0,1,.09-4.83c.45-3.74,2.73-5,6.37-3.6a1.43,1.43,0,0,1,.51.25c4,3.87,7.85,3.37,12.58.71,2.71-1.52,6.54-1.29,10.17-1.9,1.93,6.28-2,10.9-3.19,16.45,1.06.87,2.35,1.86,3.57,2.92s2.55,1.82,3.1,3a5.71,5.71,0,0,1,.33,4.43c-.37.75-2.69,1-4.07.9-5.95-.54-8.26.49-10.91,5.32a28.14,28.14,0,0,1-2,3.86,12.25,12.25,0,0,1-3.54,3.38c-3.7,2.08-6.28.56-6.24-3.43S264.21,771.65,264.21,767.33Z"/><path class="cls-4" d="M829.85,763.54c2.43-1.4,4.92-2.73,7.28-4.23,2-1.26,4.24-1.6,5.73,0a6.63,6.63,0,0,1,1.22,4.8,14.42,14.42,0,0,1-2,5c-1.16,2.23-.79,4,1,5.82a30.77,30.77,0,0,1,4.5,5.53c1.07,1.75,1.3,3.86-.48,5.47a4.81,4.81,0,0,1-5.81.57c-2.45-1.24-5-2.36-8.5-4,0,3.84,0,6.8,0,9.77,0,1.66,0,3.72-2.14,3.72a5.57,5.57,0,0,1-3.85-2.49c-2-3.25-3.45-6.75-5.12-10.12-2.44-.32-4.49-.57-6.54-.85s-4-.57-7-1c1.38-2,2-3.82,3.34-4.76,5.41-3.88,7-8.62,4.64-14.61a4.76,4.76,0,0,1,0-1.65C821.82,756,824.91,762.05,829.85,763.54Z"/><path class="cls-1" d="M590.71,846.9c7.4.19,12.51,3.8,13.9,9.82,1.47,6.34-2.55,14.08-8.62,16.6-7.48,3.11-10.11,1.87-14.06-5-2.91-5.07-2.39-9.52.56-14.14a21.59,21.59,0,0,0,1.53-2.89C585.73,847.44,586.69,846.8,590.71,846.9Zm8.35,12.28c-1.33-1.88-2-3.75-3.38-4.49a6.31,6.31,0,0,0-4.76.17c-1.83.8-3.46,8.6-2.58,10.42,1.15,2.4,3,3.11,4.86,1.34C595.38,864.52,597,861.89,599.06,859.18Z"/><path class="cls-1" d="M555.86,851.3c1.83-3.54,5.84-3.13,8.94-3.94,3.83-1,7.94-1.12,12-1.45a7.93,7.93,0,0,1,3.86.66,3.1,3.1,0,0,1,1.66,2.34,3.29,3.29,0,0,1-2.08,2.1c-2.37.66-4.86,1-7.77,1.47,0,2.14.06,4.24,0,6.33-.16,4.13-.38,8.26-.61,12.39-.15,2.77-1.44,4.76-5.08,5.72-3.74-7.27-1.12-15.11-2.48-22.95h-4.78C557.51,854,556.09,853.4,555.86,851.3Z"/><path class="cls-4" d="M601.18,884.29c-3.55.39-7.26,1-11,1.17-6.87.24-13.75.19-20.62.25-.76,0-1.77.16-2.23-.21-1.05-.88-2.28-2-2.54-3.12-.14-.68,1.43-1.71,2.25-2.57a.91.91,0,0,1,.53-.17c9.91-.36,19.81-.89,29.72-.95C600,878.68,602.45,880.26,601.18,884.29Z"/><path class="cls-3" d="M567.21,892.7c3-2.8,6.83-3.2,10.6-3.49,5.72-.43,11.45-.71,17.18-1.06.38,0,.77,0,1.15,0,2.44-.15,5,0,5.39,2.77.37,2.51-2.07,3.41-4.15,3.6-8.57.75-17.15,1.34-25.74,1.86C569.18,896.48,567.93,894.91,567.21,892.7Z"/></svg>